%TF.GenerationSoftware,KiCad,Pcbnew,9.0.6*%
%TF.CreationDate,2025-12-18T17:34:00+05:30*%
%TF.ProjectId,Blueprint_Project,426c7565-7072-4696-9e74-5f50726f6a65,rev?*%
%TF.SameCoordinates,Original*%
%TF.FileFunction,Paste,Top*%
%TF.FilePolarity,Positive*%
%FSLAX46Y46*%
G04 Gerber Fmt 4.6, Leading zero omitted, Abs format (unit mm)*
G04 Created by KiCad (PCBNEW 9.0.6) date 2025-12-18 17:34:00*
%MOMM*%
%LPD*%
G01*
G04 APERTURE LIST*
G04 Aperture macros list*
%AMRoundRect*
0 Rectangle with rounded corners*
0 $1 Rounding radius*
0 $2 $3 $4 $5 $6 $7 $8 $9 X,Y pos of 4 corners*
0 Add a 4 corners polygon primitive as box body*
4,1,4,$2,$3,$4,$5,$6,$7,$8,$9,$2,$3,0*
0 Add four circle primitives for the rounded corners*
1,1,$1+$1,$2,$3*
1,1,$1+$1,$4,$5*
1,1,$1+$1,$6,$7*
1,1,$1+$1,$8,$9*
0 Add four rect primitives between the rounded corners*
20,1,$1+$1,$2,$3,$4,$5,0*
20,1,$1+$1,$4,$5,$6,$7,0*
20,1,$1+$1,$6,$7,$8,$9,0*
20,1,$1+$1,$8,$9,$2,$3,0*%
G04 Aperture macros list end*
%ADD10RoundRect,0.079500X-0.079500X-0.100500X0.079500X-0.100500X0.079500X0.100500X-0.079500X0.100500X0*%
%ADD11RoundRect,0.135000X0.185000X-0.135000X0.185000X0.135000X-0.185000X0.135000X-0.185000X-0.135000X0*%
%ADD12RoundRect,0.140000X0.140000X0.170000X-0.140000X0.170000X-0.140000X-0.170000X0.140000X-0.170000X0*%
%ADD13RoundRect,0.250000X-0.450000X-0.350000X0.450000X-0.350000X0.450000X0.350000X-0.450000X0.350000X0*%
%ADD14RoundRect,0.135000X0.135000X0.185000X-0.135000X0.185000X-0.135000X-0.185000X0.135000X-0.185000X0*%
%ADD15R,0.600000X1.450000*%
%ADD16R,0.300000X1.450000*%
%ADD17RoundRect,0.140000X-0.170000X0.140000X-0.170000X-0.140000X0.170000X-0.140000X0.170000X0.140000X0*%
%ADD18RoundRect,0.140000X-0.140000X-0.170000X0.140000X-0.170000X0.140000X0.170000X-0.140000X0.170000X0*%
%ADD19RoundRect,0.135000X-0.185000X0.135000X-0.185000X-0.135000X0.185000X-0.135000X0.185000X0.135000X0*%
%ADD20RoundRect,0.140000X0.170000X-0.140000X0.170000X0.140000X-0.170000X0.140000X-0.170000X-0.140000X0*%
%ADD21RoundRect,0.375000X0.625000X0.375000X-0.625000X0.375000X-0.625000X-0.375000X0.625000X-0.375000X0*%
%ADD22RoundRect,0.500000X0.500000X1.400000X-0.500000X1.400000X-0.500000X-1.400000X0.500000X-1.400000X0*%
%ADD23RoundRect,0.249999X-0.395001X-0.395001X0.395001X-0.395001X0.395001X0.395001X-0.395001X0.395001X0*%
%ADD24RoundRect,0.050000X-0.387500X-0.050000X0.387500X-0.050000X0.387500X0.050000X-0.387500X0.050000X0*%
%ADD25RoundRect,0.050000X-0.050000X-0.387500X0.050000X-0.387500X0.050000X0.387500X-0.050000X0.387500X0*%
%ADD26RoundRect,0.162500X0.650000X0.162500X-0.650000X0.162500X-0.650000X-0.162500X0.650000X-0.162500X0*%
%ADD27RoundRect,0.200000X-0.200000X-0.800000X0.200000X-0.800000X0.200000X0.800000X-0.200000X0.800000X0*%
G04 APERTURE END LIST*
D10*
%TO.C,C14*%
X170500000Y-64250000D03*
X169810000Y-64250000D03*
%TD*%
D11*
%TO.C,R4*%
X181000000Y-83760000D03*
X181000000Y-82740000D03*
%TD*%
D12*
%TO.C,C16*%
X176570000Y-105380000D03*
X175610000Y-105380000D03*
%TD*%
D13*
%TO.C,Y1*%
X177530000Y-103520000D03*
X179730000Y-103520000D03*
X179730000Y-101820000D03*
X177530000Y-101820000D03*
%TD*%
D12*
%TO.C,C8*%
X171160000Y-92010000D03*
X170200000Y-92010000D03*
%TD*%
D14*
%TO.C,R5*%
X179050000Y-105370000D03*
X178030000Y-105370000D03*
%TD*%
D15*
%TO.C,J2*%
X182960000Y-68265000D03*
X182160000Y-68265000D03*
D16*
X180960000Y-68265000D03*
X179960000Y-68265000D03*
X179460000Y-68265000D03*
X178460000Y-68265000D03*
D15*
X177260000Y-68265000D03*
X176460000Y-68265000D03*
X176460000Y-68265000D03*
X177260000Y-68265000D03*
D16*
X177960000Y-68265000D03*
X178960000Y-68265000D03*
X180460000Y-68265000D03*
X181460000Y-68265000D03*
D15*
X182160000Y-68265000D03*
X182960000Y-68265000D03*
%TD*%
D10*
%TO.C,C13*%
X170310000Y-70000000D03*
X171000000Y-70000000D03*
%TD*%
D17*
%TO.C,C9*%
X181500000Y-98020000D03*
X181500000Y-98980000D03*
%TD*%
D18*
%TO.C,C5*%
X185010000Y-87160000D03*
X185970000Y-87160000D03*
%TD*%
D19*
%TO.C,R7*%
X203000000Y-71000000D03*
X203000000Y-72020000D03*
%TD*%
D11*
%TO.C,R3*%
X180000000Y-83760000D03*
X180000000Y-82740000D03*
%TD*%
D19*
%TO.C,R6*%
X204250000Y-70990000D03*
X204250000Y-72010000D03*
%TD*%
D20*
%TO.C,C3*%
X179310000Y-81400000D03*
X179310000Y-80440000D03*
%TD*%
%TO.C,C17*%
X196000000Y-75480000D03*
X196000000Y-74520000D03*
%TD*%
D21*
%TO.C,U2*%
X167650000Y-68550000D03*
X167650000Y-66250000D03*
D22*
X161350000Y-66250000D03*
D21*
X167650000Y-63950000D03*
%TD*%
D19*
%TO.C,R2*%
X177820000Y-69920000D03*
X177820000Y-70940000D03*
%TD*%
D18*
%TO.C,C7*%
X185750000Y-91610000D03*
X186710000Y-91610000D03*
%TD*%
D20*
%TO.C,C15*%
X179830000Y-100000000D03*
X179830000Y-99040000D03*
%TD*%
D19*
%TO.C,R1*%
X181640000Y-70120000D03*
X181640000Y-71140000D03*
%TD*%
D20*
%TO.C,C4*%
X178310000Y-81390000D03*
X178310000Y-80430000D03*
%TD*%
D23*
%TO.C,U1*%
X178680000Y-89580000D03*
X178680000Y-91180000D03*
X180280000Y-89580000D03*
X180280000Y-91180000D03*
D24*
X176042500Y-87780000D03*
X176042500Y-88180000D03*
X176042500Y-88580000D03*
X176042500Y-88980000D03*
X176042500Y-89380000D03*
X176042500Y-89780000D03*
X176042500Y-90180000D03*
X176042500Y-90580000D03*
X176042500Y-90980000D03*
X176042500Y-91380000D03*
X176042500Y-91780000D03*
X176042500Y-92180000D03*
X176042500Y-92580000D03*
X176042500Y-92980000D03*
D25*
X176880000Y-93817500D03*
X177280000Y-93817500D03*
X177680000Y-93817500D03*
X178080000Y-93817500D03*
X178480000Y-93817500D03*
X178880000Y-93817500D03*
X179280000Y-93817500D03*
X179680000Y-93817500D03*
X180080000Y-93817500D03*
X180480000Y-93817500D03*
X180880000Y-93817500D03*
X181280000Y-93817500D03*
X181680000Y-93817500D03*
X182080000Y-93817500D03*
D24*
X182917500Y-92980000D03*
X182917500Y-92580000D03*
X182917500Y-92180000D03*
X182917500Y-91780000D03*
X182917500Y-91380000D03*
X182917500Y-90980000D03*
X182917500Y-90580000D03*
X182917500Y-90180000D03*
X182917500Y-89780000D03*
X182917500Y-89380000D03*
X182917500Y-88980000D03*
X182917500Y-88580000D03*
X182917500Y-88180000D03*
X182917500Y-87780000D03*
D25*
X182080000Y-86942500D03*
X181680000Y-86942500D03*
X181280000Y-86942500D03*
X180880000Y-86942500D03*
X180480000Y-86942500D03*
X180080000Y-86942500D03*
X179680000Y-86942500D03*
X179280000Y-86942500D03*
X178880000Y-86942500D03*
X178480000Y-86942500D03*
X178080000Y-86942500D03*
X177680000Y-86942500D03*
X177280000Y-86942500D03*
X176880000Y-86942500D03*
%TD*%
D20*
%TO.C,C6*%
X185500000Y-84730000D03*
X185500000Y-83770000D03*
%TD*%
D17*
%TO.C,C11*%
X182750000Y-98020000D03*
X182750000Y-98980000D03*
%TD*%
D20*
%TO.C,C10*%
X177320000Y-81380000D03*
X177320000Y-80420000D03*
%TD*%
%TO.C,C1*%
X185500000Y-82480000D03*
X185500000Y-81520000D03*
%TD*%
D12*
%TO.C,C2*%
X174230000Y-87000000D03*
X173270000Y-87000000D03*
%TD*%
D26*
%TO.C,U3*%
X203050000Y-68530000D03*
X203050000Y-67260000D03*
X203050000Y-65990000D03*
X203050000Y-64720000D03*
X195875000Y-64720000D03*
X195875000Y-65990000D03*
X195875000Y-67260000D03*
X195875000Y-68530000D03*
%TD*%
D20*
%TO.C,C12*%
X182000000Y-83500000D03*
X182000000Y-82540000D03*
%TD*%
D27*
%TO.C,SW1*%
X199400000Y-80250000D03*
X203600000Y-80250000D03*
%TD*%
M02*
