%TF.GenerationSoftware,KiCad,Pcbnew,9.0.6*%
%TF.CreationDate,2025-12-18T17:34:30+05:30*%
%TF.ProjectId,Blueprint_Project,426c7565-7072-4696-9e74-5f50726f6a65,rev?*%
%TF.SameCoordinates,Original*%
%TF.FileFunction,Plated,1,2,PTH,Mixed*%
%TF.FilePolarity,Positive*%
%FSLAX46Y46*%
G04 Gerber Fmt 4.6, Leading zero omitted, Abs format (unit mm)*
G04 Created by KiCad (PCBNEW 9.0.6) date 2025-12-18 17:34:30*
%MOMM*%
%LPD*%
G01*
G04 APERTURE LIST*
%TA.AperFunction,ViaDrill*%
%ADD10C,0.300000*%
%TD*%
G04 aperture for slot hole*
%TA.AperFunction,ComponentDrill*%
%ADD11C,0.600000*%
%TD*%
%TA.AperFunction,ComponentDrill*%
%ADD12C,1.000000*%
%TD*%
G04 APERTURE END LIST*
D10*
X156300000Y-82030000D03*
X157730000Y-82950000D03*
X158830000Y-87010000D03*
X162020000Y-75470000D03*
X163140000Y-88130000D03*
X163870000Y-73710000D03*
X166100000Y-70820000D03*
X166470000Y-90200000D03*
X169510000Y-91590000D03*
X171470000Y-83340000D03*
X171770000Y-91740000D03*
X171830000Y-81950000D03*
X172370000Y-81120000D03*
X172600000Y-84040000D03*
X173160000Y-84681450D03*
X173430000Y-100060000D03*
X173630000Y-71080000D03*
X173960000Y-84681450D03*
X175421250Y-87158750D03*
X178090000Y-77590000D03*
X178310000Y-82660000D03*
X179030000Y-98520000D03*
X179710000Y-104450000D03*
X180670000Y-88330000D03*
X180680000Y-96020000D03*
X180740000Y-98020000D03*
X180850000Y-97170000D03*
X181060000Y-76359742D03*
X181550000Y-81460000D03*
X181560000Y-95970000D03*
X182690000Y-96810000D03*
X183530000Y-77110000D03*
X184090000Y-87160000D03*
X184810000Y-91610000D03*
X184910000Y-68770000D03*
X186540000Y-79460000D03*
X186650000Y-92500000D03*
X187310954Y-84651354D03*
X192520000Y-102600000D03*
X193750000Y-91210000D03*
X193890000Y-64840000D03*
X193930000Y-67290000D03*
X193970000Y-66050000D03*
X195330000Y-110660000D03*
X196230000Y-106990000D03*
X202860000Y-99230000D03*
X205140000Y-100390000D03*
X205141000Y-102020000D03*
X205440000Y-66040000D03*
X205460000Y-68560000D03*
X205630000Y-67290000D03*
D11*
%TO.C,J2*%
X175390000Y-62870000D02*
X175390000Y-63470000D01*
X175390000Y-66800000D02*
X175390000Y-67900000D01*
X184030000Y-62870000D02*
X184030000Y-63470000D01*
X184030000Y-66800000D02*
X184030000Y-67900000D01*
D12*
%TO.C,J1*%
X149750000Y-63550000D03*
X149750000Y-66090000D03*
X149750000Y-68630000D03*
X149750000Y-71170000D03*
X149750000Y-73710000D03*
X149750000Y-76250000D03*
X149750000Y-78790000D03*
X149750000Y-81330000D03*
X149750000Y-83870000D03*
X149750000Y-86410000D03*
X149750000Y-88950000D03*
X149750000Y-91490000D03*
X149750000Y-94030000D03*
X149750000Y-96570000D03*
X149750000Y-99110000D03*
X149750000Y-101650000D03*
X149750000Y-104190000D03*
X149750000Y-106730000D03*
X149750000Y-109270000D03*
X149750000Y-111810000D03*
%TO.C,J4*%
X159890000Y-113250000D03*
X162430000Y-113250000D03*
X164970000Y-113250000D03*
X167510000Y-113250000D03*
X170050000Y-113250000D03*
X172590000Y-113250000D03*
X175130000Y-113250000D03*
X177670000Y-113250000D03*
X180210000Y-113250000D03*
X182750000Y-113250000D03*
X185290000Y-113250000D03*
X187830000Y-113250000D03*
X190370000Y-113250000D03*
X192910000Y-113250000D03*
X195450000Y-113250000D03*
X197990000Y-113250000D03*
X200530000Y-113250000D03*
X203070000Y-113250000D03*
X205610000Y-113250000D03*
%TO.C,J3*%
X207580000Y-100390000D03*
X207580000Y-102930000D03*
X207580000Y-105470000D03*
%TO.C,J4*%
X208150000Y-113250000D03*
M02*
