%TF.GenerationSoftware,KiCad,Pcbnew,9.0.6*%
%TF.CreationDate,2025-12-18T17:34:00+05:30*%
%TF.ProjectId,Blueprint_Project,426c7565-7072-4696-9e74-5f50726f6a65,rev?*%
%TF.SameCoordinates,Original*%
%TF.FileFunction,Copper,L1,Top*%
%TF.FilePolarity,Positive*%
%FSLAX46Y46*%
G04 Gerber Fmt 4.6, Leading zero omitted, Abs format (unit mm)*
G04 Created by KiCad (PCBNEW 9.0.6) date 2025-12-18 17:34:00*
%MOMM*%
%LPD*%
G01*
G04 APERTURE LIST*
G04 Aperture macros list*
%AMRoundRect*
0 Rectangle with rounded corners*
0 $1 Rounding radius*
0 $2 $3 $4 $5 $6 $7 $8 $9 X,Y pos of 4 corners*
0 Add a 4 corners polygon primitive as box body*
4,1,4,$2,$3,$4,$5,$6,$7,$8,$9,$2,$3,0*
0 Add four circle primitives for the rounded corners*
1,1,$1+$1,$2,$3*
1,1,$1+$1,$4,$5*
1,1,$1+$1,$6,$7*
1,1,$1+$1,$8,$9*
0 Add four rect primitives between the rounded corners*
20,1,$1+$1,$2,$3,$4,$5,0*
20,1,$1+$1,$4,$5,$6,$7,0*
20,1,$1+$1,$6,$7,$8,$9,0*
20,1,$1+$1,$8,$9,$2,$3,0*%
G04 Aperture macros list end*
%TA.AperFunction,SMDPad,CuDef*%
%ADD10RoundRect,0.100000X-0.130000X-0.100000X0.130000X-0.100000X0.130000X0.100000X-0.130000X0.100000X0*%
%TD*%
%TA.AperFunction,SMDPad,CuDef*%
%ADD11RoundRect,0.135000X0.185000X-0.135000X0.185000X0.135000X-0.185000X0.135000X-0.185000X-0.135000X0*%
%TD*%
%TA.AperFunction,SMDPad,CuDef*%
%ADD12RoundRect,0.140000X0.140000X0.170000X-0.140000X0.170000X-0.140000X-0.170000X0.140000X-0.170000X0*%
%TD*%
%TA.AperFunction,SMDPad,CuDef*%
%ADD13RoundRect,0.250000X-0.450000X-0.350000X0.450000X-0.350000X0.450000X0.350000X-0.450000X0.350000X0*%
%TD*%
%TA.AperFunction,SMDPad,CuDef*%
%ADD14RoundRect,0.135000X0.135000X0.185000X-0.135000X0.185000X-0.135000X-0.185000X0.135000X-0.185000X0*%
%TD*%
%TA.AperFunction,SMDPad,CuDef*%
%ADD15R,0.600000X1.450000*%
%TD*%
%TA.AperFunction,SMDPad,CuDef*%
%ADD16R,0.300000X1.450000*%
%TD*%
%TA.AperFunction,HeatsinkPad*%
%ADD17O,1.000000X2.100000*%
%TD*%
%TA.AperFunction,HeatsinkPad*%
%ADD18O,1.000000X1.600000*%
%TD*%
%TA.AperFunction,ComponentPad*%
%ADD19R,1.700000X1.700000*%
%TD*%
%TA.AperFunction,ComponentPad*%
%ADD20C,1.700000*%
%TD*%
%TA.AperFunction,SMDPad,CuDef*%
%ADD21RoundRect,0.140000X-0.170000X0.140000X-0.170000X-0.140000X0.170000X-0.140000X0.170000X0.140000X0*%
%TD*%
%TA.AperFunction,SMDPad,CuDef*%
%ADD22RoundRect,0.140000X-0.140000X-0.170000X0.140000X-0.170000X0.140000X0.170000X-0.140000X0.170000X0*%
%TD*%
%TA.AperFunction,SMDPad,CuDef*%
%ADD23RoundRect,0.135000X-0.185000X0.135000X-0.185000X-0.135000X0.185000X-0.135000X0.185000X0.135000X0*%
%TD*%
%TA.AperFunction,SMDPad,CuDef*%
%ADD24RoundRect,0.140000X0.170000X-0.140000X0.170000X0.140000X-0.170000X0.140000X-0.170000X-0.140000X0*%
%TD*%
%TA.AperFunction,SMDPad,CuDef*%
%ADD25RoundRect,0.375000X0.625000X0.375000X-0.625000X0.375000X-0.625000X-0.375000X0.625000X-0.375000X0*%
%TD*%
%TA.AperFunction,SMDPad,CuDef*%
%ADD26RoundRect,0.500000X0.500000X1.400000X-0.500000X1.400000X-0.500000X-1.400000X0.500000X-1.400000X0*%
%TD*%
%TA.AperFunction,SMDPad,CuDef*%
%ADD27RoundRect,0.050000X-0.387500X-0.050000X0.387500X-0.050000X0.387500X0.050000X-0.387500X0.050000X0*%
%TD*%
%TA.AperFunction,SMDPad,CuDef*%
%ADD28RoundRect,0.050000X-0.050000X-0.387500X0.050000X-0.387500X0.050000X0.387500X-0.050000X0.387500X0*%
%TD*%
%TA.AperFunction,HeatsinkPad*%
%ADD29R,3.200000X3.200000*%
%TD*%
%TA.AperFunction,SMDPad,CuDef*%
%ADD30RoundRect,0.162500X0.650000X0.162500X-0.650000X0.162500X-0.650000X-0.162500X0.650000X-0.162500X0*%
%TD*%
%TA.AperFunction,SMDPad,CuDef*%
%ADD31RoundRect,0.200000X-0.200000X-0.800000X0.200000X-0.800000X0.200000X0.800000X-0.200000X0.800000X0*%
%TD*%
%TA.AperFunction,ViaPad*%
%ADD32C,0.600000*%
%TD*%
%TA.AperFunction,Conductor*%
%ADD33C,0.200000*%
%TD*%
G04 APERTURE END LIST*
D10*
%TO.P,C14,2*%
%TO.N,GND*%
X170475000Y-64250000D03*
%TO.P,C14,1*%
%TO.N,VBUS*%
X169835000Y-64250000D03*
%TD*%
D11*
%TO.P,R4,1*%
%TO.N,Net-(U1-USB_DM)*%
X181000000Y-83760000D03*
%TO.P,R4,2*%
%TO.N,USB_D-*%
X181000000Y-82740000D03*
%TD*%
D12*
%TO.P,C16,1*%
%TO.N,Net-(C16-Pad1)*%
X176570000Y-105380000D03*
%TO.P,C16,2*%
%TO.N,GND*%
X175610000Y-105380000D03*
%TD*%
D13*
%TO.P,Y1,1,1*%
%TO.N,Net-(C16-Pad1)*%
X177530000Y-103520000D03*
%TO.P,Y1,2,2*%
%TO.N,GND*%
X179730000Y-103520000D03*
%TO.P,Y1,3,3*%
%TO.N,XIN*%
X179730000Y-101820000D03*
%TO.P,Y1,4,4*%
%TO.N,GND*%
X177530000Y-101820000D03*
%TD*%
D12*
%TO.P,C8,1*%
%TO.N,+3V3*%
X171160000Y-92010000D03*
%TO.P,C8,2*%
%TO.N,GND*%
X170200000Y-92010000D03*
%TD*%
D14*
%TO.P,R5,1*%
%TO.N,XOUT*%
X179050000Y-105370000D03*
%TO.P,R5,2*%
%TO.N,Net-(C16-Pad1)*%
X178030000Y-105370000D03*
%TD*%
D15*
%TO.P,J2,A1,GND*%
%TO.N,GND*%
X182960000Y-68265000D03*
%TO.P,J2,A4,VBUS*%
%TO.N,VBUS*%
X182160000Y-68265000D03*
D16*
%TO.P,J2,A5,CC1*%
%TO.N,Net-(J2-CC1)*%
X180960000Y-68265000D03*
%TO.P,J2,A6,D+*%
%TO.N,USB_D+*%
X179960000Y-68265000D03*
%TO.P,J2,A7,D-*%
%TO.N,USB_D-*%
X179460000Y-68265000D03*
%TO.P,J2,A8*%
%TO.N,N/C*%
X178460000Y-68265000D03*
D15*
%TO.P,J2,A9,VBUS*%
%TO.N,VBUS*%
X177260000Y-68265000D03*
%TO.P,J2,A12,GND*%
%TO.N,GND*%
X176460000Y-68265000D03*
%TO.P,J2,B1,GND*%
X176460000Y-68265000D03*
%TO.P,J2,B4,VBUS*%
%TO.N,VBUS*%
X177260000Y-68265000D03*
D16*
%TO.P,J2,B5,CC2*%
%TO.N,Net-(J2-CC2)*%
X177960000Y-68265000D03*
%TO.P,J2,B6,D+*%
%TO.N,USB_D+*%
X178960000Y-68265000D03*
%TO.P,J2,B7,D-*%
%TO.N,USB_D-*%
X180460000Y-68265000D03*
%TO.P,J2,B8*%
%TO.N,N/C*%
X181460000Y-68265000D03*
D15*
%TO.P,J2,B9,VBUS*%
%TO.N,VBUS*%
X182160000Y-68265000D03*
%TO.P,J2,B12,GND*%
%TO.N,GND*%
X182960000Y-68265000D03*
D17*
%TO.P,J2,S1,SHIELD*%
X184030000Y-67350000D03*
D18*
X184030000Y-63170000D03*
D17*
X175390000Y-67350000D03*
D18*
X175390000Y-63170000D03*
%TD*%
D10*
%TO.P,C13,1*%
%TO.N,+3V3*%
X170335000Y-70000000D03*
%TO.P,C13,2*%
%TO.N,GND*%
X170975000Y-70000000D03*
%TD*%
D19*
%TO.P,J1,1,Pin_1*%
%TO.N,GPIO_00*%
X149750000Y-63550000D03*
D20*
%TO.P,J1,2,Pin_2*%
%TO.N,GPIO_01*%
X149750000Y-66090000D03*
%TO.P,J1,3,Pin_3*%
%TO.N,GND*%
X149750000Y-68630000D03*
%TO.P,J1,4,Pin_4*%
%TO.N,GPIO_02*%
X149750000Y-71170000D03*
%TO.P,J1,5,Pin_5*%
%TO.N,GPIO_03*%
X149750000Y-73710000D03*
%TO.P,J1,6,Pin_6*%
%TO.N,GPIO_04*%
X149750000Y-76250000D03*
%TO.P,J1,7,Pin_7*%
%TO.N,GPIO_05*%
X149750000Y-78790000D03*
%TO.P,J1,8,Pin_8*%
%TO.N,GND*%
X149750000Y-81330000D03*
%TO.P,J1,9,Pin_9*%
%TO.N,GPIO_06*%
X149750000Y-83870000D03*
%TO.P,J1,10,Pin_10*%
%TO.N,GPIO_07*%
X149750000Y-86410000D03*
%TO.P,J1,11,Pin_11*%
%TO.N,GPIO_08*%
X149750000Y-88950000D03*
%TO.P,J1,12,Pin_12*%
%TO.N,GPIO_09*%
X149750000Y-91490000D03*
%TO.P,J1,13,Pin_13*%
%TO.N,GND*%
X149750000Y-94030000D03*
%TO.P,J1,14,Pin_14*%
%TO.N,GPIO_10*%
X149750000Y-96570000D03*
%TO.P,J1,15,Pin_15*%
%TO.N,GPIO_11*%
X149750000Y-99110000D03*
%TO.P,J1,16,Pin_16*%
%TO.N,GPIO_012*%
X149750000Y-101650000D03*
%TO.P,J1,17,Pin_17*%
%TO.N,GPIO_013*%
X149750000Y-104190000D03*
%TO.P,J1,18,Pin_18*%
%TO.N,GND*%
X149750000Y-106730000D03*
%TO.P,J1,19,Pin_19*%
%TO.N,GPIO_014*%
X149750000Y-109270000D03*
%TO.P,J1,20,Pin_20*%
%TO.N,GPIO_015*%
X149750000Y-111810000D03*
%TD*%
D21*
%TO.P,C9,1*%
%TO.N,+3V3*%
X181500000Y-98020000D03*
%TO.P,C9,2*%
%TO.N,GND*%
X181500000Y-98980000D03*
%TD*%
D22*
%TO.P,C5,1*%
%TO.N,+3V3*%
X185010000Y-87160000D03*
%TO.P,C5,2*%
%TO.N,GND*%
X185970000Y-87160000D03*
%TD*%
D23*
%TO.P,R7,1*%
%TO.N,QPSI_SS*%
X203000000Y-71000000D03*
%TO.P,R7,2*%
%TO.N,+3V3*%
X203000000Y-72020000D03*
%TD*%
D11*
%TO.P,R3,1*%
%TO.N,Net-(U1-USB_DP)*%
X180000000Y-83760000D03*
%TO.P,R3,2*%
%TO.N,USB_D+*%
X180000000Y-82740000D03*
%TD*%
D23*
%TO.P,R6,1*%
%TO.N,QPSI_SS*%
X204250000Y-70990000D03*
%TO.P,R6,2*%
%TO.N,Net-(R6-Pad2)*%
X204250000Y-72010000D03*
%TD*%
D24*
%TO.P,C3,1*%
%TO.N,+3V3*%
X179310000Y-81400000D03*
%TO.P,C3,2*%
%TO.N,GND*%
X179310000Y-80440000D03*
%TD*%
%TO.P,C17,1*%
%TO.N,GND*%
X196000000Y-75480000D03*
%TO.P,C17,2*%
%TO.N,+3V3*%
X196000000Y-74520000D03*
%TD*%
D25*
%TO.P,U2,1,GND*%
%TO.N,GND*%
X167650000Y-68550000D03*
%TO.P,U2,2,VO*%
%TO.N,+3V3*%
X167650000Y-66250000D03*
D26*
X161350000Y-66250000D03*
D25*
%TO.P,U2,3,VI*%
%TO.N,VBUS*%
X167650000Y-63950000D03*
%TD*%
D23*
%TO.P,R2,1*%
%TO.N,Net-(J2-CC2)*%
X177820000Y-69920000D03*
%TO.P,R2,2*%
%TO.N,GND*%
X177820000Y-70940000D03*
%TD*%
D22*
%TO.P,C7,1*%
%TO.N,+3V3*%
X185750000Y-91610000D03*
%TO.P,C7,2*%
%TO.N,GND*%
X186710000Y-91610000D03*
%TD*%
D24*
%TO.P,C15,1*%
%TO.N,XIN*%
X179830000Y-100000000D03*
%TO.P,C15,2*%
%TO.N,GND*%
X179830000Y-99040000D03*
%TD*%
D23*
%TO.P,R1,1*%
%TO.N,Net-(J2-CC1)*%
X181640000Y-70120000D03*
%TO.P,R1,2*%
%TO.N,GND*%
X181640000Y-71140000D03*
%TD*%
D24*
%TO.P,C4,1*%
%TO.N,+3V3*%
X178310000Y-81390000D03*
%TO.P,C4,2*%
%TO.N,GND*%
X178310000Y-80430000D03*
%TD*%
D27*
%TO.P,U1,1,IOVDD*%
%TO.N,+3V3*%
X176042500Y-87780000D03*
%TO.P,U1,2,GPIO0*%
%TO.N,GPIO_00*%
X176042500Y-88180000D03*
%TO.P,U1,3,GPIO1*%
%TO.N,GPIO_01*%
X176042500Y-88580000D03*
%TO.P,U1,4,GPIO2*%
%TO.N,GPIO_02*%
X176042500Y-88980000D03*
%TO.P,U1,5,GPIO3*%
%TO.N,GPIO_03*%
X176042500Y-89380000D03*
%TO.P,U1,6,GPIO4*%
%TO.N,GPIO_04*%
X176042500Y-89780000D03*
%TO.P,U1,7,GPIO5*%
%TO.N,GPIO_05*%
X176042500Y-90180000D03*
%TO.P,U1,8,GPIO6*%
%TO.N,GPIO_06*%
X176042500Y-90580000D03*
%TO.P,U1,9,GPIO7*%
%TO.N,GPIO_07*%
X176042500Y-90980000D03*
%TO.P,U1,10,IOVDD*%
%TO.N,+3V3*%
X176042500Y-91380000D03*
%TO.P,U1,11,GPIO8*%
%TO.N,GPIO_08*%
X176042500Y-91780000D03*
%TO.P,U1,12,GPIO9*%
%TO.N,GPIO_09*%
X176042500Y-92180000D03*
%TO.P,U1,13,GPIO10*%
%TO.N,GPIO_10*%
X176042500Y-92580000D03*
%TO.P,U1,14,GPIO11*%
%TO.N,GPIO_11*%
X176042500Y-92980000D03*
D28*
%TO.P,U1,15,GPIO12*%
%TO.N,GPIO_012*%
X176880000Y-93817500D03*
%TO.P,U1,16,GPIO13*%
%TO.N,GPIO_013*%
X177280000Y-93817500D03*
%TO.P,U1,17,GPIO14*%
%TO.N,GPIO_014*%
X177680000Y-93817500D03*
%TO.P,U1,18,GPIO15*%
%TO.N,GPIO_015*%
X178080000Y-93817500D03*
%TO.P,U1,19,TESTEN*%
%TO.N,GND*%
X178480000Y-93817500D03*
%TO.P,U1,20,XIN*%
%TO.N,XIN*%
X178880000Y-93817500D03*
%TO.P,U1,21,XOUT*%
%TO.N,XOUT*%
X179280000Y-93817500D03*
%TO.P,U1,22,IOVDD*%
%TO.N,+3V3*%
X179680000Y-93817500D03*
%TO.P,U1,23,DVDD*%
%TO.N,+1V1*%
X180080000Y-93817500D03*
%TO.P,U1,24,SWCLK*%
%TO.N,SWCLK*%
X180480000Y-93817500D03*
%TO.P,U1,25,SWD*%
%TO.N,SWD*%
X180880000Y-93817500D03*
%TO.P,U1,26,RUN*%
%TO.N,RUN*%
X181280000Y-93817500D03*
%TO.P,U1,27,GPIO16*%
%TO.N,GPIO_016*%
X181680000Y-93817500D03*
%TO.P,U1,28,GPIO17*%
%TO.N,GPIO_017*%
X182080000Y-93817500D03*
D27*
%TO.P,U1,29,GPIO18*%
%TO.N,GPIO_018*%
X182917500Y-92980000D03*
%TO.P,U1,30,GPIO19*%
%TO.N,GPIO_019*%
X182917500Y-92580000D03*
%TO.P,U1,31,GPIO20*%
%TO.N,GPIO_020*%
X182917500Y-92180000D03*
%TO.P,U1,32,GPIO21*%
%TO.N,GPIO_021*%
X182917500Y-91780000D03*
%TO.P,U1,33,IOVDD*%
%TO.N,+3V3*%
X182917500Y-91380000D03*
%TO.P,U1,34,GPIO22*%
%TO.N,GPIO_022*%
X182917500Y-90980000D03*
%TO.P,U1,35,GPIO23*%
%TO.N,GPIO_023*%
X182917500Y-90580000D03*
%TO.P,U1,36,GPIO24*%
%TO.N,GPIO_024*%
X182917500Y-90180000D03*
%TO.P,U1,37,GPIO25*%
%TO.N,unconnected-(U1-GPIO25-Pad37)*%
X182917500Y-89780000D03*
%TO.P,U1,38,GPIO26_ADC0*%
%TO.N,GPIO026_ADC0*%
X182917500Y-89380000D03*
%TO.P,U1,39,GPIO27_ADC1*%
%TO.N,GPIO027_ADC1*%
X182917500Y-88980000D03*
%TO.P,U1,40,GPIO28_ADC2*%
%TO.N,GPIO_028_ADC2*%
X182917500Y-88580000D03*
%TO.P,U1,41,GPIO29_ADC3*%
%TO.N,GPIO_029_ADC3*%
X182917500Y-88180000D03*
%TO.P,U1,42,IOVDD*%
%TO.N,+3V3*%
X182917500Y-87780000D03*
D28*
%TO.P,U1,43,ADC_AVDD*%
X182080000Y-86942500D03*
%TO.P,U1,44,VREG_IN*%
X181680000Y-86942500D03*
%TO.P,U1,45,VREG_VOUT*%
%TO.N,+1V1*%
X181280000Y-86942500D03*
%TO.P,U1,46,USB_DM*%
%TO.N,Net-(U1-USB_DM)*%
X180880000Y-86942500D03*
%TO.P,U1,47,USB_DP*%
%TO.N,Net-(U1-USB_DP)*%
X180480000Y-86942500D03*
%TO.P,U1,48,USB_VDD*%
%TO.N,+3V3*%
X180080000Y-86942500D03*
%TO.P,U1,49,IOVDD*%
X179680000Y-86942500D03*
%TO.P,U1,50,DVDD*%
%TO.N,+1V1*%
X179280000Y-86942500D03*
%TO.P,U1,51,QSPI_SD3*%
%TO.N,QPSI_SD3*%
X178880000Y-86942500D03*
%TO.P,U1,52,QSPI_SCLK*%
%TO.N,QPSI_SCLK*%
X178480000Y-86942500D03*
%TO.P,U1,53,QSPI_SD0*%
%TO.N,QPSI_SD0*%
X178080000Y-86942500D03*
%TO.P,U1,54,QSPI_SD2*%
%TO.N,QPSI_SD2*%
X177680000Y-86942500D03*
%TO.P,U1,55,QSPI_SD1*%
%TO.N,QPSI_SD1*%
X177280000Y-86942500D03*
%TO.P,U1,56,QSPI_SS*%
%TO.N,QPSI_SS*%
X176880000Y-86942500D03*
D29*
%TO.P,U1,57,GND*%
%TO.N,GND*%
X179480000Y-90380000D03*
%TD*%
D24*
%TO.P,C6,1*%
%TO.N,+3V3*%
X185500000Y-84730000D03*
%TO.P,C6,2*%
%TO.N,GND*%
X185500000Y-83770000D03*
%TD*%
D21*
%TO.P,C11,1*%
%TO.N,+1V1*%
X182750000Y-98020000D03*
%TO.P,C11,2*%
%TO.N,GND*%
X182750000Y-98980000D03*
%TD*%
D24*
%TO.P,C10,1*%
%TO.N,+1V1*%
X177320000Y-81380000D03*
%TO.P,C10,2*%
%TO.N,GND*%
X177320000Y-80420000D03*
%TD*%
%TO.P,C1,1*%
%TO.N,+3V3*%
X185500000Y-82480000D03*
%TO.P,C1,2*%
%TO.N,GND*%
X185500000Y-81520000D03*
%TD*%
D12*
%TO.P,C2,1*%
%TO.N,+3V3*%
X174230000Y-87000000D03*
%TO.P,C2,2*%
%TO.N,GND*%
X173270000Y-87000000D03*
%TD*%
D30*
%TO.P,U3,1,~{CS}*%
%TO.N,QPSI_SS*%
X203050000Y-68530000D03*
%TO.P,U3,2,DO/IO_{1}*%
%TO.N,QPSI_SD1*%
X203050000Y-67260000D03*
%TO.P,U3,3,~{WP}/IO_{2}*%
%TO.N,QPSI_SD2*%
X203050000Y-65990000D03*
%TO.P,U3,4,GND*%
%TO.N,GND*%
X203050000Y-64720000D03*
%TO.P,U3,5,DI/IO_{0}*%
%TO.N,QPSI_SD0*%
X195875000Y-64720000D03*
%TO.P,U3,6,CLK*%
%TO.N,QPSI_SCLK*%
X195875000Y-65990000D03*
%TO.P,U3,7,~{HOLD}/~{RESET}/IO_{3}*%
%TO.N,QPSI_SD3*%
X195875000Y-67260000D03*
%TO.P,U3,8,VCC*%
%TO.N,+3V3*%
X195875000Y-68530000D03*
%TD*%
D19*
%TO.P,J3,1,Pin_1*%
%TO.N,SWCLK*%
X207580000Y-100390000D03*
D20*
%TO.P,J3,2,Pin_2*%
%TO.N,GND*%
X207580000Y-102930000D03*
%TO.P,J3,3,Pin_3*%
%TO.N,SWD*%
X207580000Y-105470000D03*
%TD*%
D24*
%TO.P,C12,1*%
%TO.N,+1V1*%
X182000000Y-83500000D03*
%TO.P,C12,2*%
%TO.N,GND*%
X182000000Y-82540000D03*
%TD*%
D19*
%TO.P,J4,1,Pin_1*%
%TO.N,VBUS*%
X208150000Y-113250000D03*
D20*
%TO.P,J4,2,Pin_2*%
%TO.N,GPIO_029_ADC3*%
X205610000Y-113250000D03*
%TO.P,J4,3,Pin_3*%
%TO.N,GND*%
X203070000Y-113250000D03*
%TO.P,J4,4,Pin_4*%
%TO.N,GPIO_028_ADC2*%
X200530000Y-113250000D03*
%TO.P,J4,5,Pin_5*%
%TO.N,+3V3*%
X197990000Y-113250000D03*
%TO.P,J4,6,Pin_6*%
%TO.N,GPIO027_ADC1*%
X195450000Y-113250000D03*
%TO.P,J4,7,Pin_7*%
%TO.N,GPIO026_ADC0*%
X192910000Y-113250000D03*
%TO.P,J4,8,Pin_8*%
%TO.N,GND*%
X190370000Y-113250000D03*
%TO.P,J4,9,Pin_9*%
%TO.N,GPIO_023*%
X187830000Y-113250000D03*
%TO.P,J4,10,Pin_10*%
%TO.N,GPIO_024*%
X185290000Y-113250000D03*
%TO.P,J4,11,Pin_11*%
%TO.N,RUN*%
X182750000Y-113250000D03*
%TO.P,J4,12,Pin_12*%
%TO.N,GPIO_022*%
X180210000Y-113250000D03*
%TO.P,J4,13,Pin_13*%
%TO.N,GND*%
X177670000Y-113250000D03*
%TO.P,J4,14,Pin_14*%
%TO.N,GPIO_021*%
X175130000Y-113250000D03*
%TO.P,J4,15,Pin_15*%
%TO.N,GPIO_020*%
X172590000Y-113250000D03*
%TO.P,J4,16,Pin_16*%
%TO.N,GPIO_019*%
X170050000Y-113250000D03*
%TO.P,J4,17,Pin_17*%
%TO.N,GPIO_018*%
X167510000Y-113250000D03*
%TO.P,J4,18,Pin_18*%
%TO.N,GND*%
X164970000Y-113250000D03*
%TO.P,J4,19,Pin_19*%
%TO.N,GPIO_017*%
X162430000Y-113250000D03*
%TO.P,J4,20,Pin_20*%
%TO.N,GPIO_016*%
X159890000Y-113250000D03*
%TD*%
D31*
%TO.P,SW1,1,1*%
%TO.N,GND*%
X199400000Y-80250000D03*
%TO.P,SW1,2,2*%
%TO.N,Net-(R6-Pad2)*%
X203600000Y-80250000D03*
%TD*%
D32*
%TO.N,GND*%
X179030000Y-98520000D03*
X157730000Y-82950000D03*
X186650000Y-92500000D03*
X186540000Y-79460000D03*
X163140000Y-88130000D03*
X166470000Y-90200000D03*
X180670000Y-88330000D03*
X205141000Y-102020000D03*
X166100000Y-70820000D03*
X169510000Y-91590000D03*
X156300000Y-82030000D03*
X193750000Y-91210000D03*
X184910000Y-68770000D03*
X173630000Y-71080000D03*
X181550000Y-81460000D03*
X179710000Y-104450000D03*
X158830000Y-87010000D03*
X173430000Y-100060000D03*
%TO.N,+3V3*%
X195330000Y-110660000D03*
X187310954Y-84651354D03*
X180740000Y-98020000D03*
X184090000Y-87160000D03*
X163870000Y-73710000D03*
X183530000Y-77110000D03*
X178310000Y-82660000D03*
X175421250Y-87158750D03*
X184810000Y-91610000D03*
X171770000Y-91740000D03*
%TO.N,+1V1*%
X180850000Y-97170000D03*
X181060000Y-76359742D03*
X178090000Y-77590000D03*
X162020000Y-75470000D03*
%TO.N,SWD*%
X181560000Y-95970000D03*
X202860000Y-99230000D03*
%TO.N,SWCLK*%
X205140000Y-100390000D03*
X180680000Y-96020000D03*
%TO.N,RUN*%
X196230000Y-106990000D03*
X182690000Y-96810000D03*
X192520000Y-102600000D03*
%TO.N,QPSI_SS*%
X173160000Y-84681450D03*
X205460000Y-68560000D03*
%TO.N,QPSI_SD3*%
X193930000Y-67290000D03*
X172370000Y-81120000D03*
%TO.N,QPSI_SD2*%
X172600000Y-84040000D03*
X205440000Y-66040000D03*
%TO.N,QPSI_SD1*%
X205630000Y-67290000D03*
X173960000Y-84681450D03*
%TO.N,QPSI_SD0*%
X193890000Y-64840000D03*
X171470000Y-83340000D03*
%TO.N,QPSI_SCLK*%
X193970000Y-66050000D03*
X171830000Y-81950000D03*
%TD*%
D33*
%TO.N,GPIO_04*%
X171963900Y-89781000D02*
X157322900Y-75140000D01*
%TO.N,GND*%
X207580000Y-102930000D02*
X206670000Y-102020000D01*
X184030000Y-67890000D02*
X184910000Y-68770000D01*
X167650000Y-69270000D02*
X167650000Y-68550000D01*
X179480000Y-89520000D02*
X180670000Y-88330000D01*
X186020000Y-83770000D02*
X187040000Y-82750000D01*
X169800000Y-91610000D02*
X169530000Y-91610000D01*
X167860000Y-91590000D02*
X169510000Y-91590000D01*
X182000000Y-82540000D02*
X182000000Y-81910000D01*
X184030000Y-67350000D02*
X184030000Y-67890000D01*
X187040000Y-82750000D02*
X185809999Y-81520000D01*
X182000000Y-81910000D02*
X181550000Y-81460000D01*
X178480000Y-93817500D02*
X178480000Y-95210000D01*
X176460000Y-68265000D02*
X176305000Y-68265000D01*
X173640000Y-100050000D02*
X173430000Y-100050000D01*
X166100000Y-70820000D02*
X167650000Y-69270000D01*
X182960000Y-68265000D02*
X183115000Y-68265000D01*
X179730000Y-104430000D02*
X179710000Y-104450000D01*
X185500000Y-83770000D02*
X186020000Y-83770000D01*
X185500000Y-80500000D02*
X185500000Y-81520000D01*
X166470000Y-90200000D02*
X167860000Y-91590000D01*
X186710000Y-92440000D02*
X186650000Y-92500000D01*
X183115000Y-68265000D02*
X184030000Y-67350000D01*
X179730000Y-103520000D02*
X179730000Y-104430000D01*
X177820000Y-70940000D02*
X173770000Y-70940000D01*
X163140000Y-88130000D02*
X165210000Y-90200000D01*
X186540000Y-79460000D02*
X185500000Y-80500000D01*
X173640000Y-100050000D02*
X178480000Y-95210000D01*
X165210000Y-90200000D02*
X166470000Y-90200000D01*
X176305000Y-68265000D02*
X175390000Y-67350000D01*
X179480000Y-90380000D02*
X179480000Y-89520000D01*
X156300000Y-82030000D02*
X156810000Y-82030000D01*
X179550000Y-99040000D02*
X179030000Y-98520000D01*
X179830000Y-99040000D02*
X179550000Y-99040000D01*
X173770000Y-70940000D02*
X173630000Y-71080000D01*
X156810000Y-82030000D02*
X157730000Y-82950000D01*
X170200000Y-92010000D02*
X169800000Y-91610000D01*
X206670000Y-102020000D02*
X205141000Y-102020000D01*
X174310000Y-64250000D02*
X175390000Y-63170000D01*
X169530000Y-91610000D02*
X169510000Y-91590000D01*
X180670000Y-88330000D02*
X180680000Y-88320000D01*
X185809999Y-81520000D02*
X185500000Y-81520000D01*
X170475000Y-64250000D02*
X174310000Y-64250000D01*
X170975000Y-70000000D02*
X176880000Y-70000000D01*
X186710000Y-91610000D02*
X186710000Y-92440000D01*
X176880000Y-70000000D02*
X177820000Y-70940000D01*
%TO.N,+3V3*%
X175421250Y-87158750D02*
X176042500Y-87780000D01*
X178310000Y-83662900D02*
X178310000Y-82660000D01*
X179680000Y-86942500D02*
X179680000Y-85020000D01*
X178310000Y-82660000D02*
X178310000Y-81390000D01*
X180080000Y-84910000D02*
X179310000Y-84140000D01*
X185500000Y-82500000D02*
X185500000Y-82480000D01*
X179310000Y-82680000D02*
X179310000Y-81400000D01*
X179310000Y-82680000D02*
X178330000Y-82680000D01*
X184170000Y-91380000D02*
X184400000Y-91610000D01*
X161350000Y-71100000D02*
X163870000Y-73620000D01*
X182917500Y-91380000D02*
X184170000Y-91380000D01*
X175262500Y-87000000D02*
X175421250Y-87158750D01*
X184090000Y-87160000D02*
X185010000Y-87160000D01*
X171430000Y-91740000D02*
X171160000Y-92010000D01*
X184105000Y-83895000D02*
X184660000Y-83340000D01*
X185500000Y-84730000D02*
X187340000Y-84730000D01*
X179667100Y-85020000D02*
X178310000Y-83662900D01*
X182080000Y-86942500D02*
X183891250Y-85131250D01*
X180520000Y-98020000D02*
X180740000Y-98020000D01*
X178330000Y-82680000D02*
X178310000Y-82660000D01*
X196000000Y-73272500D02*
X196000000Y-73560000D01*
X181680000Y-86942500D02*
X181680000Y-86320000D01*
X161350000Y-66250000D02*
X161350000Y-71100000D01*
X181680000Y-86320000D02*
X184105000Y-83895000D01*
X197990000Y-113250000D02*
X195400000Y-110660000D01*
X171990000Y-91740000D02*
X171770000Y-91740000D01*
X180080000Y-86942500D02*
X180080000Y-84910000D01*
X184105000Y-83895000D02*
X183530000Y-83320000D01*
X183891250Y-85131250D02*
X184292500Y-84730000D01*
X169697500Y-70637500D02*
X169697500Y-68297500D01*
X175990000Y-91380000D02*
X172350000Y-91380000D01*
X195875000Y-73147500D02*
X196000000Y-73272500D01*
X179680000Y-85020000D02*
X179667100Y-85020000D01*
X166625000Y-73710000D02*
X163870000Y-73710000D01*
X195875000Y-68530000D02*
X184660000Y-79745000D01*
X182917500Y-87780000D02*
X183537500Y-87160000D01*
X196000000Y-73560000D02*
X196000000Y-74520000D01*
X171770000Y-91740000D02*
X171430000Y-91740000D01*
X179680000Y-97180000D02*
X180520000Y-98020000D01*
X170335000Y-70000000D02*
X166625000Y-73710000D01*
X195875000Y-68530000D02*
X195875000Y-73147500D01*
X179310000Y-84140000D02*
X179310000Y-82680000D01*
X203000000Y-72020000D02*
X197540000Y-72020000D01*
X174230000Y-87000000D02*
X175262500Y-87000000D01*
X184292500Y-84730000D02*
X185500000Y-84730000D01*
X184090000Y-87160000D02*
X184090000Y-85330000D01*
X169697500Y-68297500D02*
X167650000Y-66250000D01*
X184660000Y-79745000D02*
X184660000Y-83340000D01*
X180740000Y-98020000D02*
X181500000Y-98020000D01*
X179680000Y-93817500D02*
X179680000Y-97180000D01*
X183530000Y-83320000D02*
X183530000Y-77110000D01*
X184400000Y-91610000D02*
X184810000Y-91610000D01*
X172350000Y-91380000D02*
X171990000Y-91740000D01*
X183537500Y-87160000D02*
X184090000Y-87160000D01*
X184660000Y-83340000D02*
X185500000Y-82500000D01*
X195400000Y-110660000D02*
X195330000Y-110660000D01*
X184810000Y-91610000D02*
X185750000Y-91610000D01*
X184090000Y-85330000D02*
X183891250Y-85131250D01*
X197540000Y-72020000D02*
X196000000Y-73560000D01*
%TO.N,+1V1*%
X180850000Y-97170000D02*
X181920000Y-97170000D01*
X175530000Y-79590000D02*
X175530000Y-79250000D01*
X181280000Y-85970000D02*
X182000000Y-85250000D01*
X182620000Y-77919742D02*
X181060000Y-76359742D01*
X180470000Y-97170000D02*
X180850000Y-97170000D01*
X182750000Y-98000000D02*
X182750000Y-98020000D01*
X177320000Y-81380000D02*
X175530000Y-79590000D01*
X177320000Y-83240000D02*
X177320000Y-81380000D01*
X181920000Y-97170000D02*
X182750000Y-98000000D01*
X181280000Y-86942500D02*
X181280000Y-85970000D01*
X180180000Y-96680000D02*
X180180000Y-96880000D01*
X182620000Y-82880000D02*
X182620000Y-77919742D01*
X180080000Y-96580000D02*
X180180000Y-96680000D01*
X175530000Y-79250000D02*
X177190000Y-77590000D01*
X179280000Y-86942500D02*
X179280000Y-85200000D01*
X182000000Y-83500000D02*
X182620000Y-82880000D01*
X162020000Y-75470000D02*
X175970000Y-75470000D01*
X179280000Y-85200000D02*
X177320000Y-83240000D01*
X180080000Y-93817500D02*
X180080000Y-96580000D01*
X175970000Y-75470000D02*
X178090000Y-77590000D01*
X182000000Y-85250000D02*
X182000000Y-83500000D01*
X177190000Y-77590000D02*
X178090000Y-77590000D01*
X180180000Y-96880000D02*
X180470000Y-97170000D01*
%TO.N,VBUS*%
X205653943Y-67904000D02*
X186266785Y-67904000D01*
X186266785Y-67904000D02*
X184361785Y-65999000D01*
X177159000Y-69291000D02*
X172991000Y-69291000D01*
X177260000Y-67340000D02*
X177260000Y-68265000D01*
X169835000Y-64250000D02*
X167950000Y-64250000D01*
X184361785Y-65999000D02*
X182464992Y-65999000D01*
X177260000Y-68265000D02*
X177260000Y-69190000D01*
X208731000Y-70981057D02*
X205653943Y-67904000D01*
X167950000Y-64250000D02*
X167650000Y-63950000D01*
X208150000Y-113250000D02*
X208731000Y-112669000D01*
X208731000Y-112669000D02*
X208731000Y-70981057D01*
X181924000Y-66539992D02*
X178060008Y-66539992D01*
X178060008Y-66539992D02*
X177260000Y-67340000D01*
X181924000Y-66539992D02*
X181924000Y-68029000D01*
X182464992Y-65999000D02*
X181924000Y-66539992D01*
X172991000Y-69291000D02*
X167650000Y-63950000D01*
X177260000Y-69190000D02*
X177159000Y-69291000D01*
X181924000Y-68029000D02*
X182160000Y-68265000D01*
%TO.N,XIN*%
X179730000Y-101820000D02*
X178370000Y-100460000D01*
X179730000Y-101820000D02*
X179730000Y-100100000D01*
X179730000Y-100100000D02*
X179830000Y-100000000D01*
X178880000Y-95510000D02*
X178880000Y-93817500D01*
X178370000Y-100460000D02*
X178370000Y-96020000D01*
X178370000Y-96020000D02*
X178880000Y-95510000D01*
%TO.N,Net-(C16-Pad1)*%
X177530000Y-104420000D02*
X178030000Y-104920000D01*
X178030000Y-104920000D02*
X178030000Y-105370000D01*
X177530000Y-104420000D02*
X176570000Y-105380000D01*
X177530000Y-103520000D02*
X177530000Y-104420000D01*
%TO.N,GPIO_03*%
X176042500Y-89380000D02*
X172130000Y-89380000D01*
X156575800Y-73710000D02*
X149750000Y-73710000D01*
X171000000Y-88134200D02*
X156575800Y-73710000D01*
X172130000Y-89380000D02*
X171000000Y-88250000D01*
X171000000Y-88250000D02*
X171000000Y-88134200D01*
%TO.N,GPIO_05*%
X160250000Y-78750000D02*
X155250000Y-78750000D01*
X155210000Y-78790000D02*
X149750000Y-78790000D01*
X155250000Y-78750000D02*
X155210000Y-78790000D01*
X171647500Y-90167500D02*
X160250000Y-78770000D01*
X171647500Y-90180000D02*
X171647500Y-90167500D01*
X176030000Y-90180000D02*
X171647500Y-90180000D01*
X160250000Y-78770000D02*
X160250000Y-78750000D01*
%TO.N,GPIO_014*%
X177680000Y-94730000D02*
X174520000Y-97890000D01*
X174520000Y-97890000D02*
X161130000Y-97890000D01*
X161130000Y-97890000D02*
X149750000Y-109270000D01*
X177680000Y-93817500D02*
X177680000Y-94730000D01*
%TO.N,GPIO_08*%
X176042500Y-91780000D02*
X172640000Y-91780000D01*
X153411000Y-92611000D02*
X149750000Y-88950000D01*
X171780000Y-92640000D02*
X169250000Y-92640000D01*
X172640000Y-91780000D02*
X171780000Y-92640000D01*
X169221000Y-92611000D02*
X153411000Y-92611000D01*
X169250000Y-92640000D02*
X169221000Y-92611000D01*
%TO.N,GPIO_10*%
X152820000Y-93500000D02*
X149750000Y-96570000D01*
X172054200Y-93500000D02*
X152820000Y-93500000D01*
X176042500Y-92580000D02*
X172974200Y-92580000D01*
X172974200Y-92580000D02*
X172054200Y-93500000D01*
%TO.N,GPIO_11*%
X154610000Y-94250000D02*
X149750000Y-99110000D01*
X173190000Y-92980000D02*
X176042500Y-92980000D01*
X173190000Y-92980000D02*
X171920000Y-94250000D01*
X171920000Y-94250000D02*
X154610000Y-94250000D01*
%TO.N,GPIO_00*%
X155000000Y-70417550D02*
X172332450Y-87750000D01*
X175000000Y-87750000D02*
X175430000Y-88180000D01*
X155000000Y-67500000D02*
X155000000Y-70417550D01*
X172332450Y-87750000D02*
X175000000Y-87750000D01*
X151050000Y-63550000D02*
X155000000Y-67500000D01*
X175430000Y-88180000D02*
X176042500Y-88180000D01*
X149750000Y-63550000D02*
X151050000Y-63550000D01*
%TO.N,GPIO_015*%
X178080000Y-94940000D02*
X174240000Y-98780000D01*
X178080000Y-93817500D02*
X178080000Y-94940000D01*
X162780000Y-98780000D02*
X149750000Y-111810000D01*
X174240000Y-98780000D02*
X162780000Y-98780000D01*
%TO.N,GPIO_01*%
X174750000Y-88250000D02*
X174198000Y-88250000D01*
X152500000Y-66250000D02*
X151250000Y-66250000D01*
X172000000Y-88000000D02*
X154500000Y-70500000D01*
X172015350Y-88000000D02*
X172000000Y-88000000D01*
X154500000Y-70500000D02*
X154500000Y-68250000D01*
X175080000Y-88580000D02*
X174750000Y-88250000D01*
X172166350Y-88151000D02*
X172015350Y-88000000D01*
X151250000Y-66250000D02*
X151090000Y-66090000D01*
X151090000Y-66090000D02*
X149750000Y-66090000D01*
X154500000Y-68250000D02*
X152500000Y-66250000D01*
X176042500Y-88580000D02*
X175080000Y-88580000D01*
X174198000Y-88250000D02*
X174099000Y-88151000D01*
X174099000Y-88151000D02*
X172166350Y-88151000D01*
%TO.N,GPIO_012*%
X176880000Y-93817500D02*
X173907500Y-96790000D01*
X173907500Y-96790000D02*
X154610000Y-96790000D01*
X154610000Y-96790000D02*
X149750000Y-101650000D01*
%TO.N,GPIO_06*%
X164500000Y-83750000D02*
X149870000Y-83750000D01*
X176042500Y-90580000D02*
X171330000Y-90580000D01*
X149870000Y-83750000D02*
X149750000Y-83870000D01*
X171330000Y-90580000D02*
X164500000Y-83750000D01*
%TO.N,GPIO_09*%
X171937100Y-93050000D02*
X151310000Y-93050000D01*
X172807100Y-92180000D02*
X171937100Y-93050000D01*
X151310000Y-93050000D02*
X149750000Y-91490000D01*
X176042500Y-92180000D02*
X172807100Y-92180000D01*
%TO.N,GPIO_04*%
X157322900Y-75140000D02*
X150860000Y-75140000D01*
X176042500Y-89780000D02*
X175220000Y-89780000D01*
X150860000Y-75140000D02*
X149750000Y-76250000D01*
%TO.N,GPIO_07*%
X171162900Y-90980000D02*
X176042500Y-90980000D01*
X166592900Y-86410000D02*
X149750000Y-86410000D01*
X171162900Y-90980000D02*
X166592900Y-86410000D01*
%TO.N,GPIO_02*%
X172412900Y-88980000D02*
X154602900Y-71170000D01*
X176042500Y-88980000D02*
X172412900Y-88980000D01*
X154602900Y-71170000D02*
X149750000Y-71170000D01*
%TO.N,GPIO_013*%
X177280000Y-93817500D02*
X177280000Y-94410000D01*
X156630000Y-97310000D02*
X149750000Y-104190000D01*
X174380000Y-97310000D02*
X156630000Y-97310000D01*
X177280000Y-94410000D02*
X174380000Y-97310000D01*
%TO.N,Net-(J2-CC2)*%
X177960000Y-69780000D02*
X177820000Y-69920000D01*
X177960000Y-68265000D02*
X177960000Y-69780000D01*
%TO.N,USB_D-*%
X179460000Y-67288000D02*
X179509000Y-67239000D01*
X180460000Y-82200000D02*
X181000000Y-82740000D01*
X180460000Y-67288000D02*
X180460000Y-68265000D01*
X179509000Y-67239000D02*
X180411000Y-67239000D01*
X180460000Y-82200000D02*
X180460000Y-68265000D01*
X179460000Y-68265000D02*
X179460000Y-67288000D01*
X180411000Y-67239000D02*
X180460000Y-67288000D01*
%TO.N,USB_D+*%
X180000000Y-76295933D02*
X180000000Y-76468932D01*
X179992000Y-69242000D02*
X180000000Y-69250000D01*
X180000000Y-69250000D02*
X180000000Y-72815933D01*
X179110768Y-73295933D02*
X179110768Y-73415933D01*
X179760000Y-73055933D02*
X179350768Y-73055933D01*
X179760000Y-77908932D02*
X179605248Y-77908932D01*
X179365235Y-76948932D02*
X179365235Y-77068932D01*
X179350768Y-73655933D02*
X179760000Y-73655933D01*
X179911000Y-69291000D02*
X179091000Y-69291000D01*
X179110768Y-75695933D02*
X179110768Y-75815933D01*
X179760000Y-74255933D02*
X179350792Y-74255933D01*
X179960000Y-69242000D02*
X179992000Y-69242000D01*
X179760000Y-76708932D02*
X179605235Y-76708932D01*
X179960000Y-68265000D02*
X179960000Y-69242000D01*
X179350768Y-76055933D02*
X179760000Y-76055933D01*
X179605235Y-77308932D02*
X179760000Y-77308932D01*
X179365248Y-78148932D02*
X179365248Y-78268932D01*
X179091000Y-69291000D02*
X178960000Y-69160000D01*
X180000000Y-77548932D02*
X180000000Y-77668932D01*
X179960000Y-69242000D02*
X179911000Y-69291000D01*
X180000000Y-75095933D02*
X180000000Y-75215933D01*
X179110792Y-74495933D02*
X179110792Y-74615933D01*
X179605248Y-78508932D02*
X179760000Y-78508932D01*
X180000000Y-78748932D02*
X180000000Y-82740000D01*
X179760000Y-75455933D02*
X179350768Y-75455933D01*
X178960000Y-69160000D02*
X178960000Y-68265000D01*
X179350792Y-74855933D02*
X179760000Y-74855933D01*
X180000000Y-73895933D02*
X180000000Y-74015933D01*
X179760000Y-73655933D02*
G75*
G02*
X179999967Y-73895933I0J-239967D01*
G01*
X179110768Y-75815933D02*
G75*
G03*
X179350768Y-76055932I240032J33D01*
G01*
X179760000Y-77308932D02*
G75*
G02*
X179999968Y-77548932I0J-239968D01*
G01*
X179110768Y-73415933D02*
G75*
G03*
X179350768Y-73655932I240032J33D01*
G01*
X179760000Y-78508932D02*
G75*
G02*
X179999968Y-78748932I0J-239968D01*
G01*
X180000000Y-74015933D02*
G75*
G02*
X179760000Y-74255900I-240000J33D01*
G01*
X179350792Y-74255933D02*
G75*
G03*
X179110833Y-74495933I8J-239967D01*
G01*
X179605248Y-77908932D02*
G75*
G03*
X179365232Y-78148932I-48J-239968D01*
G01*
X179110792Y-74615933D02*
G75*
G03*
X179350792Y-74855908I240008J33D01*
G01*
X180000000Y-72815933D02*
G75*
G02*
X179760000Y-73055900I-240000J33D01*
G01*
X179365235Y-77068932D02*
G75*
G03*
X179605235Y-77308865I239965J32D01*
G01*
X179605235Y-76708932D02*
G75*
G03*
X179365232Y-76948932I-35J-239968D01*
G01*
X179760000Y-74855933D02*
G75*
G02*
X179999967Y-75095933I0J-239967D01*
G01*
X179350768Y-75455933D02*
G75*
G03*
X179110833Y-75695933I32J-239967D01*
G01*
X179760000Y-76055933D02*
G75*
G02*
X179999967Y-76295933I0J-239967D01*
G01*
X180000000Y-77668932D02*
G75*
G02*
X179760000Y-77908900I-240000J32D01*
G01*
X180000000Y-75215933D02*
G75*
G02*
X179760000Y-75455900I-240000J33D01*
G01*
X179350768Y-73055933D02*
G75*
G03*
X179110833Y-73295933I32J-239967D01*
G01*
X179365248Y-78268932D02*
G75*
G03*
X179605248Y-78508852I239952J32D01*
G01*
X180000000Y-76468932D02*
G75*
G02*
X179760000Y-76708900I-240000J32D01*
G01*
%TO.N,Net-(J2-CC1)*%
X180960000Y-69440000D02*
X181640000Y-70120000D01*
X180960000Y-68265000D02*
X180960000Y-69440000D01*
%TO.N,SWD*%
X203630000Y-101520000D02*
X203630000Y-99290000D01*
X203630000Y-99290000D02*
X202920000Y-99290000D01*
X180880000Y-95260000D02*
X181560000Y-95940000D01*
X202920000Y-99290000D02*
X202860000Y-99230000D01*
X180880000Y-93817500D02*
X180880000Y-95260000D01*
X207580000Y-105470000D02*
X203630000Y-101520000D01*
%TO.N,SWCLK*%
X180480000Y-95820000D02*
X180680000Y-96020000D01*
X207580000Y-100390000D02*
X205140000Y-100390000D01*
X180480000Y-93817500D02*
X180480000Y-95820000D01*
%TO.N,GPIO_018*%
X184163000Y-103548300D02*
X180231300Y-107480000D01*
X184163000Y-94225500D02*
X184163000Y-103548300D01*
X180231300Y-107480000D02*
X168850000Y-107480000D01*
X182917500Y-92980000D02*
X184163000Y-94225500D01*
X167510000Y-108820000D02*
X167510000Y-113250000D01*
X168850000Y-107480000D02*
X167510000Y-108820000D01*
%TO.N,GPIO026_ADC0*%
X189810000Y-110150000D02*
X192910000Y-113250000D01*
X189810000Y-91430000D02*
X189810000Y-110150000D01*
X187760000Y-89380000D02*
X189810000Y-91430000D01*
X182917500Y-89380000D02*
X187760000Y-89380000D01*
%TO.N,GPIO_029_ADC3*%
X191330000Y-98980000D02*
X191410000Y-99060000D01*
X191420000Y-99060000D02*
X205610000Y-113250000D01*
X191410000Y-99060000D02*
X191420000Y-99060000D01*
X188410000Y-88180000D02*
X191330000Y-91100000D01*
X182917500Y-88180000D02*
X188410000Y-88180000D01*
X191330000Y-91100000D02*
X191330000Y-98980000D01*
%TO.N,GPIO_020*%
X184965000Y-103880500D02*
X180563500Y-108282000D01*
X180563500Y-108282000D02*
X175118000Y-108282000D01*
X183697100Y-92180000D02*
X184965000Y-93447900D01*
X174420000Y-111420000D02*
X172590000Y-113250000D01*
X184965000Y-93447900D02*
X184965000Y-103880500D01*
X175118000Y-108282000D02*
X174420000Y-108980000D01*
X182917500Y-92180000D02*
X183697100Y-92180000D01*
X174420000Y-108980000D02*
X174420000Y-111420000D01*
%TO.N,GPIO_016*%
X180077100Y-106500000D02*
X161750000Y-106500000D01*
X159890000Y-108360000D02*
X159890000Y-113250000D01*
X161750000Y-106500000D02*
X159890000Y-108360000D01*
X181680000Y-93817500D02*
X181680000Y-94430000D01*
X181680000Y-94430000D02*
X183361000Y-96111000D01*
X183361000Y-96111000D02*
X183361000Y-103216100D01*
X183361000Y-103216100D02*
X180077100Y-106500000D01*
%TO.N,GPIO_022*%
X179830000Y-111160000D02*
X180210000Y-111540000D01*
X187411000Y-91033450D02*
X187411000Y-102568700D01*
X185540000Y-90700000D02*
X187077550Y-90700000D01*
X182917500Y-90980000D02*
X185260000Y-90980000D01*
X180400000Y-109150000D02*
X179830000Y-109720000D01*
X179830000Y-109720000D02*
X179830000Y-111160000D01*
X185260000Y-90980000D02*
X185540000Y-90700000D01*
X187077550Y-90700000D02*
X187411000Y-91033450D01*
X180829700Y-109150000D02*
X180400000Y-109150000D01*
X187411000Y-102568700D02*
X180829700Y-109150000D01*
X180210000Y-111540000D02*
X180210000Y-113250000D01*
%TO.N,GPIO_023*%
X185311000Y-90299000D02*
X187499000Y-90299000D01*
X182917500Y-90580000D02*
X185030000Y-90580000D01*
X185030000Y-90580000D02*
X185311000Y-90299000D01*
X187499000Y-90299000D02*
X187830000Y-90630000D01*
X187830000Y-90630000D02*
X187830000Y-113250000D01*
%TO.N,GPIO_019*%
X180397400Y-107881000D02*
X172829000Y-107881000D01*
X170970000Y-109740000D02*
X170970000Y-112330000D01*
X182917500Y-92580000D02*
X183530000Y-92580000D01*
X170970000Y-112330000D02*
X170050000Y-113250000D01*
X184564000Y-93614000D02*
X184564000Y-103714400D01*
X172829000Y-107881000D02*
X170970000Y-109740000D01*
X184564000Y-103714400D02*
X180397400Y-107881000D01*
X183530000Y-92580000D02*
X184564000Y-93614000D01*
%TO.N,GPIO027_ADC1*%
X193130000Y-107050000D02*
X193130000Y-110930000D01*
X193130000Y-110930000D02*
X195450000Y-113250000D01*
X182917500Y-88980000D02*
X187980000Y-88980000D01*
X187980000Y-88980000D02*
X190211000Y-91211000D01*
X190211000Y-104131000D02*
X193130000Y-107050000D01*
X190211000Y-91211000D02*
X190211000Y-104131000D01*
%TO.N,RUN*%
X195620000Y-105700000D02*
X195620000Y-106380000D01*
X182690000Y-96250000D02*
X182690000Y-96810000D01*
X195620000Y-106380000D02*
X196230000Y-106990000D01*
X181280000Y-94840000D02*
X182690000Y-96250000D01*
X181280000Y-93817500D02*
X181280000Y-94840000D01*
X192520000Y-102600000D02*
X195620000Y-105700000D01*
%TO.N,GPIO_028_ADC2*%
X195250000Y-107970000D02*
X200530000Y-113250000D01*
X190930000Y-91300000D02*
X190930000Y-103370000D01*
X195250000Y-107690000D02*
X195250000Y-107970000D01*
X188210000Y-88580000D02*
X190930000Y-91300000D01*
X182917500Y-88580000D02*
X188210000Y-88580000D01*
X190930000Y-103370000D02*
X195250000Y-107690000D01*
%TO.N,GPIO_024*%
X188231000Y-91890000D02*
X188981000Y-92640000D01*
X188981000Y-113726760D02*
X188306760Y-114401000D01*
X187665100Y-89898000D02*
X188231000Y-90463900D01*
X185142000Y-89898000D02*
X187665100Y-89898000D01*
X188981000Y-92640000D02*
X188981000Y-113726760D01*
X188231000Y-90463900D02*
X188231000Y-91890000D01*
X188306760Y-114401000D02*
X186441000Y-114401000D01*
X186441000Y-114401000D02*
X185290000Y-113250000D01*
X184860000Y-90180000D02*
X185142000Y-89898000D01*
X182917500Y-90180000D02*
X184860000Y-90180000D01*
%TO.N,GPIO_017*%
X162430000Y-107971000D02*
X163500000Y-106901000D01*
X162430000Y-113250000D02*
X162430000Y-107971000D01*
X183762000Y-103382200D02*
X183762000Y-95499500D01*
X163500000Y-106901000D02*
X180243200Y-106901000D01*
X180243200Y-106901000D02*
X183762000Y-103382200D01*
X183762000Y-95499500D02*
X182080000Y-93817500D01*
%TO.N,GPIO_021*%
X182917500Y-91780000D02*
X183890000Y-91780000D01*
X180729600Y-108683000D02*
X177387000Y-108683000D01*
X175130000Y-110940000D02*
X175130000Y-113250000D01*
X185366000Y-93256000D02*
X185366000Y-104046600D01*
X177387000Y-108683000D02*
X175130000Y-110940000D01*
X185366000Y-104046600D02*
X180729600Y-108683000D01*
X183890000Y-91780000D02*
X185366000Y-93256000D01*
%TO.N,Net-(U1-USB_DP)*%
X180480000Y-84770000D02*
X180480000Y-86942500D01*
X180000000Y-83760000D02*
X180000000Y-84250000D01*
X180000000Y-84250000D02*
X180500000Y-84750000D01*
X180500000Y-84750000D02*
X180480000Y-84770000D01*
%TO.N,Net-(U1-USB_DM)*%
X180880000Y-85751000D02*
X180880000Y-86942500D01*
X181000000Y-85631000D02*
X180880000Y-85751000D01*
X181000000Y-83760000D02*
X181000000Y-85631000D01*
%TO.N,XOUT*%
X180850000Y-105160000D02*
X180640000Y-105370000D01*
X180850000Y-99890000D02*
X180850000Y-105160000D01*
X179440000Y-97712450D02*
X180730000Y-99002450D01*
X180730000Y-99770000D02*
X180850000Y-99890000D01*
X179280000Y-97360000D02*
X179440000Y-97520000D01*
X180730000Y-99002450D02*
X180730000Y-99770000D01*
X179440000Y-97520000D02*
X179440000Y-97712450D01*
X179280000Y-93817500D02*
X179280000Y-97360000D01*
X180640000Y-105370000D02*
X179050000Y-105370000D01*
%TO.N,Net-(R6-Pad2)*%
X203600000Y-80250000D02*
X203600000Y-72660000D01*
X203600000Y-72660000D02*
X204250000Y-72010000D01*
%TO.N,QPSI_SS*%
X176880000Y-86750000D02*
X175880000Y-85750000D01*
X203050000Y-68530000D02*
X203050000Y-69500000D01*
X175880000Y-85750000D02*
X173870000Y-85750000D01*
X203050000Y-69500000D02*
X203050000Y-70950000D01*
X204250000Y-70700000D02*
X204250000Y-70990000D01*
X173870000Y-85750000D02*
X173160000Y-85040000D01*
X176880000Y-86942500D02*
X176880000Y-86750000D01*
X203050000Y-69500000D02*
X204250000Y-70700000D01*
X173160000Y-85040000D02*
X173160000Y-84681450D01*
X203050000Y-70950000D02*
X203000000Y-71000000D01*
X203050000Y-68530000D02*
X205460000Y-68530000D01*
%TO.N,QPSI_SD3*%
X193960000Y-67260000D02*
X193930000Y-67290000D01*
X173499000Y-82249000D02*
X175709000Y-82249000D01*
X173499000Y-82249000D02*
X172370000Y-81120000D01*
X178880000Y-86942500D02*
X178880000Y-85420000D01*
X195875000Y-67260000D02*
X193960000Y-67260000D01*
X175709000Y-82249000D02*
X178880000Y-85420000D01*
%TO.N,QPSI_SD2*%
X203050000Y-65990000D02*
X205390000Y-65990000D01*
X175011450Y-84081450D02*
X175390000Y-84460000D01*
X176050000Y-84460000D02*
X177680000Y-86090000D01*
X172641450Y-84081450D02*
X175011450Y-84081450D01*
X175390000Y-84460000D02*
X176050000Y-84460000D01*
X172600000Y-84040000D02*
X172641450Y-84081450D01*
X177680000Y-86090000D02*
X177680000Y-86942500D01*
X205390000Y-65990000D02*
X205440000Y-66040000D01*
%TO.N,QPSI_SD1*%
X176508550Y-85798550D02*
X176508550Y-85811450D01*
X175570000Y-84860000D02*
X176508550Y-85798550D01*
X174138550Y-84860000D02*
X175570000Y-84860000D01*
X176508550Y-85811450D02*
X176701450Y-85811450D01*
X173960000Y-84681450D02*
X174138550Y-84860000D01*
X203050000Y-67260000D02*
X205600000Y-67260000D01*
X176701450Y-85811450D02*
X177280000Y-86390000D01*
X177280000Y-86390000D02*
X177280000Y-86942500D01*
X205600000Y-67260000D02*
X205630000Y-67290000D01*
%TO.N,QPSI_SD0*%
X175240000Y-83050000D02*
X171730000Y-83050000D01*
X178080000Y-86942500D02*
X178080000Y-85760000D01*
X194010000Y-64720000D02*
X193890000Y-64840000D01*
X176360000Y-84170000D02*
X175240000Y-83050000D01*
X176490000Y-84170000D02*
X176360000Y-84170000D01*
X178080000Y-85760000D02*
X176490000Y-84170000D01*
X171730000Y-83050000D02*
X171470000Y-83310000D01*
X195875000Y-64720000D02*
X194010000Y-64720000D01*
%TO.N,QPSI_SCLK*%
X194030000Y-65990000D02*
X193970000Y-66050000D01*
X172530000Y-82650000D02*
X175537100Y-82650000D01*
X172530000Y-82650000D02*
X171830000Y-81950000D01*
X195875000Y-65990000D02*
X194030000Y-65990000D01*
X178480000Y-86942500D02*
X178480000Y-85592900D01*
X178480000Y-85592900D02*
X175537100Y-82650000D01*
%TO.N,GPIO_04*%
X175219000Y-89780000D02*
X171963900Y-89780000D01*
%TD*%
%TA.AperFunction,Conductor*%
%TO.N,GND*%
G36*
X148490496Y-62190185D02*
G01*
X148536251Y-62242989D01*
X148546195Y-62312147D01*
X148522723Y-62368810D01*
X148492843Y-62408724D01*
X148456204Y-62457668D01*
X148456202Y-62457671D01*
X148405908Y-62592517D01*
X148401885Y-62629940D01*
X148399501Y-62652123D01*
X148399500Y-62652135D01*
X148399500Y-64447870D01*
X148399501Y-64447876D01*
X148405908Y-64507483D01*
X148456202Y-64642328D01*
X148456206Y-64642335D01*
X148542452Y-64757544D01*
X148542455Y-64757547D01*
X148657664Y-64843793D01*
X148657671Y-64843797D01*
X148789082Y-64892810D01*
X148845016Y-64934681D01*
X148869433Y-65000145D01*
X148854582Y-65068418D01*
X148833431Y-65096673D01*
X148719889Y-65210215D01*
X148594951Y-65382179D01*
X148498444Y-65571585D01*
X148432753Y-65773760D01*
X148399500Y-65983713D01*
X148399500Y-66196286D01*
X148425348Y-66359487D01*
X148432754Y-66406243D01*
X148495547Y-66599500D01*
X148498444Y-66608414D01*
X148594951Y-66797820D01*
X148719890Y-66969786D01*
X148870213Y-67120109D01*
X149042179Y-67245048D01*
X149042181Y-67245049D01*
X149042184Y-67245051D01*
X149231588Y-67341557D01*
X149330715Y-67373765D01*
X149388388Y-67413201D01*
X149415587Y-67477560D01*
X149403673Y-67546406D01*
X149356429Y-67597882D01*
X149330722Y-67609623D01*
X149327744Y-67610590D01*
X149327743Y-67610590D01*
X149173480Y-67689193D01*
X149173463Y-67689203D01*
X149167261Y-67693708D01*
X149167261Y-67693709D01*
X149620590Y-68147037D01*
X149557007Y-68164075D01*
X149442993Y-68229901D01*
X149349901Y-68322993D01*
X149284075Y-68437007D01*
X149267037Y-68500590D01*
X148813709Y-68047261D01*
X148813708Y-68047261D01*
X148809203Y-68053463D01*
X148809193Y-68053480D01*
X148730592Y-68207740D01*
X148677085Y-68372415D01*
X148650000Y-68543428D01*
X148650000Y-68716571D01*
X148677085Y-68887584D01*
X148730592Y-69052259D01*
X148809196Y-69206525D01*
X148813709Y-69212736D01*
X148813709Y-69212737D01*
X149267037Y-68759409D01*
X149284075Y-68822993D01*
X149349901Y-68937007D01*
X149442993Y-69030099D01*
X149557007Y-69095925D01*
X149620589Y-69112962D01*
X149167261Y-69566289D01*
X149167262Y-69566290D01*
X149173471Y-69570801D01*
X149327741Y-69649407D01*
X149330708Y-69650371D01*
X149331693Y-69651044D01*
X149332240Y-69651271D01*
X149332192Y-69651385D01*
X149388385Y-69689806D01*
X149415586Y-69754163D01*
X149403675Y-69823010D01*
X149356433Y-69874488D01*
X149330714Y-69886235D01*
X149231583Y-69918444D01*
X149042179Y-70014951D01*
X148870213Y-70139890D01*
X148719890Y-70290213D01*
X148594951Y-70462179D01*
X148498444Y-70651585D01*
X148432753Y-70853760D01*
X148410223Y-70996011D01*
X148399500Y-71063713D01*
X148399500Y-71276287D01*
X148408130Y-71330773D01*
X148430263Y-71470520D01*
X148432754Y-71486243D01*
X148486379Y-71651284D01*
X148498444Y-71688414D01*
X148594951Y-71877820D01*
X148719890Y-72049786D01*
X148870213Y-72200109D01*
X149042182Y-72325050D01*
X149050946Y-72329516D01*
X149101742Y-72377491D01*
X149118536Y-72445312D01*
X149095998Y-72511447D01*
X149050946Y-72550484D01*
X149042182Y-72554949D01*
X148870213Y-72679890D01*
X148719890Y-72830213D01*
X148594951Y-73002179D01*
X148498444Y-73191585D01*
X148432753Y-73393760D01*
X148399500Y-73603713D01*
X148399500Y-73816286D01*
X148432525Y-74024802D01*
X148432754Y-74026243D01*
X148495803Y-74220288D01*
X148498444Y-74228414D01*
X148594951Y-74417820D01*
X148719890Y-74589786D01*
X148870213Y-74740109D01*
X149042182Y-74865050D01*
X149050946Y-74869516D01*
X149101742Y-74917491D01*
X149118536Y-74985312D01*
X149095998Y-75051447D01*
X149050946Y-75090484D01*
X149042182Y-75094949D01*
X148870213Y-75219890D01*
X148719890Y-75370213D01*
X148594951Y-75542179D01*
X148498444Y-75731585D01*
X148498443Y-75731587D01*
X148498443Y-75731588D01*
X148471011Y-75816016D01*
X148432753Y-75933760D01*
X148402267Y-76126240D01*
X148399500Y-76143713D01*
X148399500Y-76356287D01*
X148432754Y-76566243D01*
X148477454Y-76703816D01*
X148498444Y-76768414D01*
X148594951Y-76957820D01*
X148719890Y-77129786D01*
X148870213Y-77280109D01*
X149042182Y-77405050D01*
X149050946Y-77409516D01*
X149101742Y-77457491D01*
X149118536Y-77525312D01*
X149095998Y-77591447D01*
X149050946Y-77630484D01*
X149042182Y-77634949D01*
X148870213Y-77759890D01*
X148719890Y-77910213D01*
X148594951Y-78082179D01*
X148498444Y-78271585D01*
X148432753Y-78473760D01*
X148399500Y-78683713D01*
X148399500Y-78896286D01*
X148418811Y-79018215D01*
X148432754Y-79106243D01*
X148453776Y-79170943D01*
X148498444Y-79308414D01*
X148594951Y-79497820D01*
X148719890Y-79669786D01*
X148870213Y-79820109D01*
X149042179Y-79945048D01*
X149042181Y-79945049D01*
X149042184Y-79945051D01*
X149231588Y-80041557D01*
X149330715Y-80073765D01*
X149388388Y-80113201D01*
X149415587Y-80177560D01*
X149403673Y-80246406D01*
X149356429Y-80297882D01*
X149330722Y-80309623D01*
X149327744Y-80310590D01*
X149327743Y-80310590D01*
X149173480Y-80389193D01*
X149173463Y-80389203D01*
X149167261Y-80393708D01*
X149167261Y-80393709D01*
X149620590Y-80847037D01*
X149557007Y-80864075D01*
X149442993Y-80929901D01*
X149349901Y-81022993D01*
X149284075Y-81137007D01*
X149267037Y-81200590D01*
X148813709Y-80747261D01*
X148813708Y-80747261D01*
X148809203Y-80753463D01*
X148809193Y-80753480D01*
X148730592Y-80907740D01*
X148677085Y-81072415D01*
X148650000Y-81243428D01*
X148650000Y-81416571D01*
X148677085Y-81587584D01*
X148730592Y-81752259D01*
X148809196Y-81906525D01*
X148813709Y-81912736D01*
X148813709Y-81912737D01*
X149267037Y-81459409D01*
X149284075Y-81522993D01*
X149349901Y-81637007D01*
X149442993Y-81730099D01*
X149557007Y-81795925D01*
X149620589Y-81812962D01*
X149167261Y-82266289D01*
X149167262Y-82266290D01*
X149173471Y-82270801D01*
X149327741Y-82349407D01*
X149330708Y-82350371D01*
X149331693Y-82351044D01*
X149332240Y-82351271D01*
X149332192Y-82351385D01*
X149388385Y-82389806D01*
X149415586Y-82454163D01*
X149403675Y-82523010D01*
X149356433Y-82574488D01*
X149330714Y-82586235D01*
X149231583Y-82618444D01*
X149042179Y-82714951D01*
X148870213Y-82839890D01*
X148719890Y-82990213D01*
X148594951Y-83162179D01*
X148498444Y-83351585D01*
X148498443Y-83351587D01*
X148498443Y-83351588D01*
X148476591Y-83418842D01*
X148432753Y-83553760D01*
X148399500Y-83763713D01*
X148399500Y-83976286D01*
X148422078Y-84118842D01*
X148432754Y-84186243D01*
X148497925Y-84386819D01*
X148498444Y-84388414D01*
X148594951Y-84577820D01*
X148719890Y-84749786D01*
X148870213Y-84900109D01*
X149042182Y-85025050D01*
X149050946Y-85029516D01*
X149101742Y-85077491D01*
X149118536Y-85145312D01*
X149095998Y-85211447D01*
X149050946Y-85250484D01*
X149042182Y-85254949D01*
X148870213Y-85379890D01*
X148719890Y-85530213D01*
X148594951Y-85702179D01*
X148498444Y-85891585D01*
X148432753Y-86093760D01*
X148399500Y-86303713D01*
X148399500Y-86516286D01*
X148432519Y-86724763D01*
X148432754Y-86726243D01*
X148497437Y-86925317D01*
X148498444Y-86928414D01*
X148594951Y-87117820D01*
X148719890Y-87289786D01*
X148870213Y-87440109D01*
X149042182Y-87565050D01*
X149050946Y-87569516D01*
X149101742Y-87617491D01*
X149118536Y-87685312D01*
X149095998Y-87751447D01*
X149050946Y-87790484D01*
X149042182Y-87794949D01*
X148870213Y-87919890D01*
X148719890Y-88070213D01*
X148594951Y-88242179D01*
X148498444Y-88431585D01*
X148432753Y-88633760D01*
X148399500Y-88843713D01*
X148399500Y-89056286D01*
X148432753Y-89266239D01*
X148432753Y-89266241D01*
X148432754Y-89266243D01*
X148487431Y-89434522D01*
X148498444Y-89468414D01*
X148594951Y-89657820D01*
X148719890Y-89829786D01*
X148870213Y-89980109D01*
X149042182Y-90105050D01*
X149050946Y-90109516D01*
X149101742Y-90157491D01*
X149118536Y-90225312D01*
X149095998Y-90291447D01*
X149050946Y-90330484D01*
X149042182Y-90334949D01*
X148870213Y-90459890D01*
X148719890Y-90610213D01*
X148594951Y-90782179D01*
X148498444Y-90971585D01*
X148432753Y-91173760D01*
X148402836Y-91362652D01*
X148399500Y-91383713D01*
X148399500Y-91596287D01*
X148403447Y-91621206D01*
X148432753Y-91806239D01*
X148432753Y-91806241D01*
X148432754Y-91806243D01*
X148496312Y-92001855D01*
X148498444Y-92008414D01*
X148594951Y-92197820D01*
X148719890Y-92369786D01*
X148870213Y-92520109D01*
X149042179Y-92645048D01*
X149042181Y-92645049D01*
X149042184Y-92645051D01*
X149231588Y-92741557D01*
X149330715Y-92773765D01*
X149388388Y-92813201D01*
X149415587Y-92877560D01*
X149403673Y-92946406D01*
X149356429Y-92997882D01*
X149330722Y-93009623D01*
X149327744Y-93010590D01*
X149327743Y-93010590D01*
X149173480Y-93089193D01*
X149173463Y-93089203D01*
X149167261Y-93093708D01*
X149167261Y-93093709D01*
X149620590Y-93547037D01*
X149557007Y-93564075D01*
X149442993Y-93629901D01*
X149349901Y-93722993D01*
X149284075Y-93837007D01*
X149267037Y-93900590D01*
X148813709Y-93447261D01*
X148813708Y-93447261D01*
X148809203Y-93453463D01*
X148809193Y-93453480D01*
X148730592Y-93607740D01*
X148677085Y-93772415D01*
X148650000Y-93943428D01*
X148650000Y-94116571D01*
X148677085Y-94287584D01*
X148730592Y-94452259D01*
X148809196Y-94606525D01*
X148813709Y-94612736D01*
X148813709Y-94612737D01*
X149267037Y-94159409D01*
X149284075Y-94222993D01*
X149349901Y-94337007D01*
X149442993Y-94430099D01*
X149557007Y-94495925D01*
X149620589Y-94512962D01*
X149167261Y-94966289D01*
X149167262Y-94966290D01*
X149173471Y-94970801D01*
X149327741Y-95049407D01*
X149330708Y-95050371D01*
X149331693Y-95051044D01*
X149332240Y-95051271D01*
X149332192Y-95051385D01*
X149388385Y-95089806D01*
X149415586Y-95154163D01*
X149403675Y-95223010D01*
X149356433Y-95274488D01*
X149330714Y-95286235D01*
X149231583Y-95318444D01*
X149042179Y-95414951D01*
X148870213Y-95539890D01*
X148719890Y-95690213D01*
X148594951Y-95862179D01*
X148498444Y-96051585D01*
X148432753Y-96253760D01*
X148421504Y-96324786D01*
X148399500Y-96463713D01*
X148399500Y-96676287D01*
X148432754Y-96886243D01*
X148460321Y-96971086D01*
X148498444Y-97088414D01*
X148594951Y-97277820D01*
X148719890Y-97449786D01*
X148870213Y-97600109D01*
X149042182Y-97725050D01*
X149050946Y-97729516D01*
X149101742Y-97777491D01*
X149118536Y-97845312D01*
X149095998Y-97911447D01*
X149050946Y-97950484D01*
X149042182Y-97954949D01*
X148870213Y-98079890D01*
X148719890Y-98230213D01*
X148594951Y-98402179D01*
X148498444Y-98591585D01*
X148432753Y-98793760D01*
X148412046Y-98924500D01*
X148399500Y-99003713D01*
X148399500Y-99216287D01*
X148400914Y-99225212D01*
X148421010Y-99352098D01*
X148432754Y-99426243D01*
X148495795Y-99620263D01*
X148498444Y-99628414D01*
X148594951Y-99817820D01*
X148719890Y-99989786D01*
X148870213Y-100140109D01*
X149042182Y-100265050D01*
X149050946Y-100269516D01*
X149101742Y-100317491D01*
X149118536Y-100385312D01*
X149095998Y-100451447D01*
X149050946Y-100490484D01*
X149042182Y-100494949D01*
X148870213Y-100619890D01*
X148719890Y-100770213D01*
X148594951Y-100942179D01*
X148498444Y-101131585D01*
X148432753Y-101333760D01*
X148428181Y-101362627D01*
X148399500Y-101543713D01*
X148399500Y-101756287D01*
X148400914Y-101765212D01*
X148429547Y-101946000D01*
X148432754Y-101966243D01*
X148472871Y-102089711D01*
X148498444Y-102168414D01*
X148594951Y-102357820D01*
X148719890Y-102529786D01*
X148870213Y-102680109D01*
X149042182Y-102805050D01*
X149050946Y-102809516D01*
X149101742Y-102857491D01*
X149118536Y-102925312D01*
X149095998Y-102991447D01*
X149050946Y-103030484D01*
X149042182Y-103034949D01*
X148870213Y-103159890D01*
X148719890Y-103310213D01*
X148594951Y-103482179D01*
X148498444Y-103671585D01*
X148432753Y-103873760D01*
X148399500Y-104083713D01*
X148399500Y-104296286D01*
X148431734Y-104499808D01*
X148432754Y-104506243D01*
X148468905Y-104617505D01*
X148498444Y-104708414D01*
X148594951Y-104897820D01*
X148719890Y-105069786D01*
X148870213Y-105220109D01*
X149042179Y-105345048D01*
X149042181Y-105345049D01*
X149042184Y-105345051D01*
X149231588Y-105441557D01*
X149330715Y-105473765D01*
X149388388Y-105513201D01*
X149415587Y-105577560D01*
X149403673Y-105646406D01*
X149356429Y-105697882D01*
X149330722Y-105709623D01*
X149327744Y-105710590D01*
X149327743Y-105710590D01*
X149173480Y-105789193D01*
X149173463Y-105789203D01*
X149167261Y-105793708D01*
X149167261Y-105793709D01*
X149620590Y-106247037D01*
X149557007Y-106264075D01*
X149442993Y-106329901D01*
X149349901Y-106422993D01*
X149284075Y-106537007D01*
X149267037Y-106600590D01*
X148813709Y-106147261D01*
X148813708Y-106147261D01*
X148809203Y-106153463D01*
X148809193Y-106153480D01*
X148730592Y-106307740D01*
X148677085Y-106472415D01*
X148650000Y-106643428D01*
X148650000Y-106816571D01*
X148677085Y-106987584D01*
X148730592Y-107152259D01*
X148809196Y-107306525D01*
X148813709Y-107312736D01*
X148813709Y-107312737D01*
X149267037Y-106859409D01*
X149284075Y-106922993D01*
X149349901Y-107037007D01*
X149442993Y-107130099D01*
X149557007Y-107195925D01*
X149620590Y-107212962D01*
X149167261Y-107666289D01*
X149167262Y-107666290D01*
X149173471Y-107670801D01*
X149327741Y-107749407D01*
X149330708Y-107750371D01*
X149331693Y-107751044D01*
X149332240Y-107751271D01*
X149332192Y-107751385D01*
X149388385Y-107789806D01*
X149415586Y-107854163D01*
X149403675Y-107923010D01*
X149356433Y-107974488D01*
X149330714Y-107986235D01*
X149231583Y-108018444D01*
X149042179Y-108114951D01*
X148870213Y-108239890D01*
X148719890Y-108390213D01*
X148594951Y-108562179D01*
X148498444Y-108751585D01*
X148432753Y-108953760D01*
X148414543Y-109068735D01*
X148399500Y-109163713D01*
X148399500Y-109376287D01*
X148432754Y-109586243D01*
X148487045Y-109753334D01*
X148498444Y-109788414D01*
X148594951Y-109977820D01*
X148719890Y-110149786D01*
X148870213Y-110300109D01*
X149042182Y-110425050D01*
X149050946Y-110429516D01*
X149101742Y-110477491D01*
X149118536Y-110545312D01*
X149095998Y-110611447D01*
X149050946Y-110650484D01*
X149042182Y-110654949D01*
X148870213Y-110779890D01*
X148719890Y-110930213D01*
X148594951Y-111102179D01*
X148498444Y-111291585D01*
X148432753Y-111493760D01*
X148399500Y-111703713D01*
X148399500Y-111916286D01*
X148427797Y-112094950D01*
X148432754Y-112126243D01*
X148493665Y-112313708D01*
X148498444Y-112328414D01*
X148594951Y-112517820D01*
X148719890Y-112689786D01*
X148870213Y-112840109D01*
X149042179Y-112965048D01*
X149042181Y-112965049D01*
X149042184Y-112965051D01*
X149231588Y-113061557D01*
X149433757Y-113127246D01*
X149643713Y-113160500D01*
X149643714Y-113160500D01*
X149856286Y-113160500D01*
X149856287Y-113160500D01*
X150066243Y-113127246D01*
X150268412Y-113061557D01*
X150457816Y-112965051D01*
X150500889Y-112933757D01*
X150629786Y-112840109D01*
X150629788Y-112840106D01*
X150629792Y-112840104D01*
X150780104Y-112689792D01*
X150780106Y-112689788D01*
X150780109Y-112689786D01*
X150905048Y-112517820D01*
X150905047Y-112517820D01*
X150905051Y-112517816D01*
X151001557Y-112328412D01*
X151067246Y-112126243D01*
X151100500Y-111916287D01*
X151100500Y-111703713D01*
X151067246Y-111493757D01*
X151053506Y-111451473D01*
X151051512Y-111381635D01*
X151083755Y-111325478D01*
X157279235Y-105130000D01*
X175087809Y-105130000D01*
X175360000Y-105130000D01*
X175360000Y-104832561D01*
X175359999Y-104832561D01*
X175347980Y-104834465D01*
X175347977Y-104834466D01*
X175237908Y-104890550D01*
X175237901Y-104890555D01*
X175150555Y-104977901D01*
X175150551Y-104977906D01*
X175094463Y-105087984D01*
X175087809Y-105130000D01*
X157279235Y-105130000D01*
X159187449Y-103221786D01*
X160987081Y-101422155D01*
X176580000Y-101422155D01*
X176580000Y-101570000D01*
X177280000Y-101570000D01*
X177280000Y-100970000D01*
X177032155Y-100970000D01*
X176972627Y-100976401D01*
X176972620Y-100976403D01*
X176837913Y-101026645D01*
X176837906Y-101026649D01*
X176722812Y-101112809D01*
X176722809Y-101112812D01*
X176636649Y-101227906D01*
X176636645Y-101227913D01*
X176586403Y-101362620D01*
X176586401Y-101362627D01*
X176580000Y-101422155D01*
X160987081Y-101422155D01*
X161078066Y-101331170D01*
X162992417Y-99416819D01*
X163053740Y-99383334D01*
X163080098Y-99380500D01*
X174153331Y-99380500D01*
X174153347Y-99380501D01*
X174160943Y-99380501D01*
X174319054Y-99380501D01*
X174319057Y-99380501D01*
X174471785Y-99339577D01*
X174544371Y-99297669D01*
X174608716Y-99260520D01*
X174720520Y-99148716D01*
X174720520Y-99148714D01*
X174730724Y-99138511D01*
X174730727Y-99138506D01*
X177557821Y-96311413D01*
X177619142Y-96277930D01*
X177688834Y-96282914D01*
X177744767Y-96324786D01*
X177769184Y-96390250D01*
X177769500Y-96399096D01*
X177769500Y-100373330D01*
X177769499Y-100373348D01*
X177769499Y-100539054D01*
X177769498Y-100539054D01*
X177769499Y-100539057D01*
X177810423Y-100691785D01*
X177826425Y-100719501D01*
X177863664Y-100784001D01*
X177880136Y-100851901D01*
X177857283Y-100917928D01*
X177802361Y-100961118D01*
X177785663Y-100964336D01*
X177780000Y-100970000D01*
X177780000Y-101696000D01*
X177760315Y-101763039D01*
X177707511Y-101808794D01*
X177656000Y-101820000D01*
X177530000Y-101820000D01*
X177530000Y-101946000D01*
X177510315Y-102013039D01*
X177457511Y-102058794D01*
X177406000Y-102070000D01*
X176580000Y-102070000D01*
X176580000Y-102217844D01*
X176586401Y-102277372D01*
X176586403Y-102277379D01*
X176636645Y-102412086D01*
X176640897Y-102419872D01*
X176638067Y-102421417D01*
X176656967Y-102472056D01*
X176642130Y-102540333D01*
X176615811Y-102571541D01*
X176616451Y-102572181D01*
X176487289Y-102701342D01*
X176395187Y-102850663D01*
X176395185Y-102850668D01*
X176393811Y-102854814D01*
X176340001Y-103017203D01*
X176340001Y-103017204D01*
X176340000Y-103017204D01*
X176329500Y-103119983D01*
X176329500Y-103920001D01*
X176329501Y-103920019D01*
X176340000Y-104022796D01*
X176340001Y-104022799D01*
X176395185Y-104189331D01*
X176395187Y-104189336D01*
X176487289Y-104338657D01*
X176506451Y-104357819D01*
X176539936Y-104419142D01*
X176534952Y-104488834D01*
X176493080Y-104544767D01*
X176427616Y-104569184D01*
X176418770Y-104569500D01*
X176365302Y-104569500D01*
X176329008Y-104572356D01*
X176329002Y-104572357D01*
X176173609Y-104617504D01*
X176173606Y-104617505D01*
X176034315Y-104699881D01*
X176034307Y-104699887D01*
X175949341Y-104784853D01*
X175949337Y-104784858D01*
X175919883Y-104814313D01*
X175841078Y-104947563D01*
X175841060Y-104947592D01*
X175837507Y-104953600D01*
X175837504Y-104953608D01*
X175792357Y-105109002D01*
X175792356Y-105109008D01*
X175789500Y-105145302D01*
X175789500Y-105256000D01*
X175769815Y-105323039D01*
X175717011Y-105368794D01*
X175665500Y-105380000D01*
X175610000Y-105380000D01*
X175610000Y-105506000D01*
X175590315Y-105573039D01*
X175537511Y-105618794D01*
X175486000Y-105630000D01*
X175087809Y-105630000D01*
X175094463Y-105672015D01*
X175094463Y-105672016D01*
X175118508Y-105719205D01*
X175131404Y-105787874D01*
X175105128Y-105852615D01*
X175048022Y-105892872D01*
X175008023Y-105899500D01*
X161670942Y-105899500D01*
X161518213Y-105940423D01*
X161509097Y-105945687D01*
X161509095Y-105945688D01*
X161381287Y-106019477D01*
X161381282Y-106019481D01*
X159409481Y-107991282D01*
X159409479Y-107991285D01*
X159359361Y-108078094D01*
X159359359Y-108078096D01*
X159330425Y-108128209D01*
X159330424Y-108128210D01*
X159330423Y-108128215D01*
X159289499Y-108280943D01*
X159289499Y-108280945D01*
X159289499Y-108449046D01*
X159289500Y-108449059D01*
X159289500Y-111964281D01*
X159269815Y-112031320D01*
X159221795Y-112074765D01*
X159182185Y-112094947D01*
X159182184Y-112094948D01*
X159010213Y-112219890D01*
X158859890Y-112370213D01*
X158734951Y-112542179D01*
X158638444Y-112731585D01*
X158572753Y-112933760D01*
X158542108Y-113127246D01*
X158539500Y-113143713D01*
X158539500Y-113356287D01*
X158572754Y-113566243D01*
X158606235Y-113669287D01*
X158638444Y-113768414D01*
X158734951Y-113957820D01*
X158859890Y-114129786D01*
X159010213Y-114280109D01*
X159182182Y-114405050D01*
X159201739Y-114415015D01*
X159252536Y-114462989D01*
X159269331Y-114530810D01*
X159246794Y-114596945D01*
X159192079Y-114640397D01*
X159145445Y-114649500D01*
X147794500Y-114649500D01*
X147727461Y-114629815D01*
X147681706Y-114577011D01*
X147670500Y-114525500D01*
X147670500Y-62294500D01*
X147690185Y-62227461D01*
X147742989Y-62181706D01*
X147794500Y-62170500D01*
X148423457Y-62170500D01*
X148490496Y-62190185D01*
G37*
%TD.AperFunction*%
%TA.AperFunction,Conductor*%
G36*
X164504075Y-113442993D02*
G01*
X164569901Y-113557007D01*
X164662993Y-113650099D01*
X164777007Y-113715925D01*
X164840589Y-113732962D01*
X164387261Y-114186289D01*
X164387262Y-114186290D01*
X164393471Y-114190801D01*
X164547742Y-114269408D01*
X164712415Y-114322914D01*
X164883429Y-114350000D01*
X165056571Y-114350000D01*
X165227584Y-114322914D01*
X165392257Y-114269408D01*
X165546525Y-114190803D01*
X165552736Y-114186289D01*
X165552737Y-114186289D01*
X165099410Y-113732962D01*
X165162993Y-113715925D01*
X165277007Y-113650099D01*
X165370099Y-113557007D01*
X165435925Y-113442993D01*
X165452962Y-113379410D01*
X165906289Y-113832737D01*
X165906289Y-113832736D01*
X165910803Y-113826525D01*
X165989408Y-113672256D01*
X165990370Y-113669296D01*
X165991041Y-113668313D01*
X165991271Y-113667760D01*
X165991387Y-113667808D01*
X166029802Y-113611617D01*
X166094159Y-113584413D01*
X166163006Y-113596322D01*
X166214486Y-113643562D01*
X166226235Y-113669286D01*
X166258444Y-113768414D01*
X166354951Y-113957820D01*
X166479890Y-114129786D01*
X166630213Y-114280109D01*
X166802182Y-114405050D01*
X166821739Y-114415015D01*
X166872536Y-114462989D01*
X166889331Y-114530810D01*
X166866794Y-114596945D01*
X166812079Y-114640397D01*
X166765445Y-114649500D01*
X163174555Y-114649500D01*
X163107516Y-114629815D01*
X163061761Y-114577011D01*
X163051817Y-114507853D01*
X163080842Y-114444297D01*
X163118261Y-114415015D01*
X163124796Y-114411684D01*
X163137816Y-114405051D01*
X163224138Y-114342335D01*
X163309786Y-114280109D01*
X163309788Y-114280106D01*
X163309792Y-114280104D01*
X163460104Y-114129792D01*
X163585051Y-113957816D01*
X163681557Y-113768412D01*
X163713765Y-113669284D01*
X163753201Y-113611611D01*
X163817559Y-113584412D01*
X163886406Y-113596326D01*
X163937882Y-113643570D01*
X163949625Y-113669282D01*
X163950592Y-113672258D01*
X164029196Y-113826525D01*
X164033709Y-113832736D01*
X164033709Y-113832737D01*
X164487037Y-113379409D01*
X164504075Y-113442993D01*
G37*
%TD.AperFunction*%
%TA.AperFunction,Conductor*%
G36*
X178606289Y-113832736D02*
G01*
X178610803Y-113826525D01*
X178689408Y-113672256D01*
X178690370Y-113669296D01*
X178691041Y-113668313D01*
X178691271Y-113667760D01*
X178691387Y-113667808D01*
X178729802Y-113611617D01*
X178794159Y-113584413D01*
X178863006Y-113596322D01*
X178914486Y-113643562D01*
X178926235Y-113669286D01*
X178958444Y-113768414D01*
X179054951Y-113957820D01*
X179179890Y-114129786D01*
X179330213Y-114280109D01*
X179502182Y-114405050D01*
X179521739Y-114415015D01*
X179572536Y-114462989D01*
X179589331Y-114530810D01*
X179566794Y-114596945D01*
X179512079Y-114640397D01*
X179465445Y-114649500D01*
X175874555Y-114649500D01*
X175807516Y-114629815D01*
X175761761Y-114577011D01*
X175751817Y-114507853D01*
X175780842Y-114444297D01*
X175818261Y-114415015D01*
X175824796Y-114411684D01*
X175837816Y-114405051D01*
X175924138Y-114342335D01*
X176009786Y-114280109D01*
X176009788Y-114280106D01*
X176009792Y-114280104D01*
X176160104Y-114129792D01*
X176285051Y-113957816D01*
X176381557Y-113768412D01*
X176413765Y-113669284D01*
X176453201Y-113611611D01*
X176517559Y-113584412D01*
X176586406Y-113596326D01*
X176637882Y-113643570D01*
X176649625Y-113669282D01*
X176650592Y-113672258D01*
X176729196Y-113826525D01*
X176733709Y-113832736D01*
X176733709Y-113832737D01*
X177187037Y-113379409D01*
X177204075Y-113442993D01*
X177269901Y-113557007D01*
X177362993Y-113650099D01*
X177477007Y-113715925D01*
X177540589Y-113732962D01*
X177087261Y-114186289D01*
X177087262Y-114186290D01*
X177093471Y-114190801D01*
X177247742Y-114269408D01*
X177412415Y-114322914D01*
X177583429Y-114350000D01*
X177756571Y-114350000D01*
X177927584Y-114322914D01*
X178092257Y-114269408D01*
X178246525Y-114190803D01*
X178252736Y-114186289D01*
X178252737Y-114186289D01*
X177799410Y-113732962D01*
X177862993Y-113715925D01*
X177977007Y-113650099D01*
X178070099Y-113557007D01*
X178135925Y-113442993D01*
X178152962Y-113379409D01*
X178606289Y-113832736D01*
G37*
%TD.AperFunction*%
%TA.AperFunction,Conductor*%
G36*
X189904075Y-113442993D02*
G01*
X189969901Y-113557007D01*
X190062993Y-113650099D01*
X190177007Y-113715925D01*
X190240589Y-113732962D01*
X189787261Y-114186289D01*
X189787262Y-114186290D01*
X189793471Y-114190801D01*
X189947742Y-114269408D01*
X190112415Y-114322914D01*
X190283429Y-114350000D01*
X190456571Y-114350000D01*
X190627584Y-114322914D01*
X190792257Y-114269408D01*
X190946525Y-114190803D01*
X190952736Y-114186289D01*
X190952737Y-114186289D01*
X190499410Y-113732962D01*
X190562993Y-113715925D01*
X190677007Y-113650099D01*
X190770099Y-113557007D01*
X190835925Y-113442993D01*
X190852962Y-113379409D01*
X191306289Y-113832736D01*
X191310803Y-113826525D01*
X191389408Y-113672256D01*
X191390370Y-113669296D01*
X191391041Y-113668313D01*
X191391271Y-113667760D01*
X191391387Y-113667808D01*
X191429802Y-113611617D01*
X191494159Y-113584413D01*
X191563006Y-113596322D01*
X191614486Y-113643562D01*
X191626235Y-113669286D01*
X191658444Y-113768414D01*
X191754951Y-113957820D01*
X191879890Y-114129786D01*
X192030213Y-114280109D01*
X192202182Y-114405050D01*
X192221739Y-114415015D01*
X192272536Y-114462989D01*
X192289331Y-114530810D01*
X192266794Y-114596945D01*
X192212079Y-114640397D01*
X192165445Y-114649500D01*
X189206857Y-114649500D01*
X189139818Y-114629815D01*
X189094063Y-114577011D01*
X189084119Y-114507853D01*
X189113144Y-114444297D01*
X189119167Y-114437826D01*
X189349713Y-114207281D01*
X189349716Y-114207280D01*
X189461520Y-114095476D01*
X189540577Y-113958544D01*
X189581500Y-113805817D01*
X189581500Y-113736308D01*
X189601185Y-113669269D01*
X189617819Y-113648627D01*
X189887037Y-113379408D01*
X189904075Y-113442993D01*
G37*
%TD.AperFunction*%
%TA.AperFunction,Conductor*%
G36*
X204006289Y-113832736D02*
G01*
X204010803Y-113826525D01*
X204089408Y-113672256D01*
X204090370Y-113669296D01*
X204091041Y-113668313D01*
X204091271Y-113667760D01*
X204091387Y-113667808D01*
X204129802Y-113611617D01*
X204194159Y-113584413D01*
X204263006Y-113596322D01*
X204314486Y-113643562D01*
X204326235Y-113669286D01*
X204358444Y-113768414D01*
X204454951Y-113957820D01*
X204579890Y-114129786D01*
X204730213Y-114280109D01*
X204902182Y-114405050D01*
X204921739Y-114415015D01*
X204972536Y-114462989D01*
X204989331Y-114530810D01*
X204966794Y-114596945D01*
X204912079Y-114640397D01*
X204865445Y-114649500D01*
X201274555Y-114649500D01*
X201207516Y-114629815D01*
X201161761Y-114577011D01*
X201151817Y-114507853D01*
X201180842Y-114444297D01*
X201218261Y-114415015D01*
X201224796Y-114411684D01*
X201237816Y-114405051D01*
X201324138Y-114342335D01*
X201409786Y-114280109D01*
X201409788Y-114280106D01*
X201409792Y-114280104D01*
X201560104Y-114129792D01*
X201685051Y-113957816D01*
X201781557Y-113768412D01*
X201813765Y-113669284D01*
X201853201Y-113611611D01*
X201917559Y-113584412D01*
X201986406Y-113596326D01*
X202037882Y-113643570D01*
X202049625Y-113669282D01*
X202050592Y-113672258D01*
X202129196Y-113826525D01*
X202133709Y-113832736D01*
X202133709Y-113832737D01*
X202587037Y-113379409D01*
X202604075Y-113442993D01*
X202669901Y-113557007D01*
X202762993Y-113650099D01*
X202877007Y-113715925D01*
X202940589Y-113732962D01*
X202487261Y-114186289D01*
X202487262Y-114186290D01*
X202493471Y-114190801D01*
X202647742Y-114269408D01*
X202812415Y-114322914D01*
X202983429Y-114350000D01*
X203156571Y-114350000D01*
X203327584Y-114322914D01*
X203492257Y-114269408D01*
X203646525Y-114190803D01*
X203652736Y-114186289D01*
X203652737Y-114186289D01*
X203199410Y-113732962D01*
X203262993Y-113715925D01*
X203377007Y-113650099D01*
X203470099Y-113557007D01*
X203535925Y-113442993D01*
X203552962Y-113379409D01*
X204006289Y-113832736D01*
G37*
%TD.AperFunction*%
%TA.AperFunction,Conductor*%
G36*
X167746942Y-107521185D02*
G01*
X167792697Y-107573989D01*
X167802641Y-107643147D01*
X167773616Y-107706703D01*
X167767587Y-107713177D01*
X167431710Y-108049054D01*
X167141286Y-108339478D01*
X167029481Y-108451282D01*
X167029480Y-108451284D01*
X166991067Y-108517819D01*
X166984279Y-108529576D01*
X166984277Y-108529578D01*
X166950425Y-108588209D01*
X166950424Y-108588210D01*
X166941063Y-108623147D01*
X166909499Y-108740943D01*
X166909499Y-108740945D01*
X166909499Y-108909046D01*
X166909500Y-108909059D01*
X166909500Y-111964281D01*
X166889815Y-112031320D01*
X166841795Y-112074765D01*
X166802185Y-112094947D01*
X166802184Y-112094948D01*
X166630213Y-112219890D01*
X166479890Y-112370213D01*
X166354951Y-112542179D01*
X166258444Y-112731583D01*
X166226235Y-112830714D01*
X166186797Y-112888389D01*
X166122438Y-112915587D01*
X166053592Y-112903672D01*
X166002116Y-112856428D01*
X165990371Y-112830708D01*
X165989407Y-112827741D01*
X165910801Y-112673471D01*
X165906290Y-112667262D01*
X165906289Y-112667261D01*
X165452962Y-113120589D01*
X165435925Y-113057007D01*
X165370099Y-112942993D01*
X165277007Y-112849901D01*
X165162993Y-112784075D01*
X165099409Y-112767037D01*
X165552737Y-112313709D01*
X165546525Y-112309196D01*
X165392259Y-112230592D01*
X165227584Y-112177085D01*
X165056571Y-112150000D01*
X164883429Y-112150000D01*
X164712415Y-112177085D01*
X164547740Y-112230592D01*
X164393480Y-112309193D01*
X164393463Y-112309203D01*
X164387261Y-112313708D01*
X164387261Y-112313709D01*
X164840590Y-112767037D01*
X164777007Y-112784075D01*
X164662993Y-112849901D01*
X164569901Y-112942993D01*
X164504075Y-113057007D01*
X164487037Y-113120590D01*
X164033709Y-112667261D01*
X164033708Y-112667261D01*
X164029203Y-112673463D01*
X164029193Y-112673480D01*
X163950590Y-112827743D01*
X163950590Y-112827744D01*
X163949623Y-112830722D01*
X163948950Y-112831705D01*
X163948729Y-112832240D01*
X163948616Y-112832193D01*
X163910182Y-112888394D01*
X163845821Y-112915588D01*
X163776976Y-112903668D01*
X163725503Y-112856421D01*
X163713766Y-112830719D01*
X163681557Y-112731588D01*
X163585051Y-112542184D01*
X163585049Y-112542181D01*
X163585048Y-112542179D01*
X163506344Y-112433851D01*
X163460109Y-112370214D01*
X163460105Y-112370209D01*
X163309786Y-112219890D01*
X163137815Y-112094948D01*
X163137814Y-112094947D01*
X163098205Y-112074765D01*
X163047409Y-112026791D01*
X163030500Y-111964281D01*
X163030500Y-108271097D01*
X163050185Y-108204058D01*
X163066819Y-108183416D01*
X163712417Y-107537819D01*
X163773740Y-107504334D01*
X163800098Y-107501500D01*
X167679903Y-107501500D01*
X167746942Y-107521185D01*
G37*
%TD.AperFunction*%
%TA.AperFunction,Conductor*%
G36*
X179179667Y-109285211D02*
G01*
X179185630Y-109284062D01*
X179212799Y-109294939D01*
X179240880Y-109303185D01*
X179244856Y-109307773D01*
X179250494Y-109310031D01*
X179267473Y-109333875D01*
X179286635Y-109355989D01*
X179287498Y-109361997D01*
X179291022Y-109366945D01*
X179292414Y-109396180D01*
X179296579Y-109425147D01*
X179294130Y-109432222D01*
X179294345Y-109436736D01*
X179281227Y-109469502D01*
X179270424Y-109488212D01*
X179270423Y-109488214D01*
X179270423Y-109488215D01*
X179229499Y-109640943D01*
X179229499Y-109640945D01*
X179229499Y-109809046D01*
X179229500Y-109809059D01*
X179229500Y-111073330D01*
X179229499Y-111073348D01*
X179229499Y-111239054D01*
X179229498Y-111239054D01*
X179270423Y-111391786D01*
X179281238Y-111410516D01*
X179281239Y-111410521D01*
X179281240Y-111410521D01*
X179349475Y-111528709D01*
X179349481Y-111528717D01*
X179468349Y-111647585D01*
X179468355Y-111647590D01*
X179573181Y-111752416D01*
X179606666Y-111813739D01*
X179609500Y-111840097D01*
X179609500Y-111964281D01*
X179589815Y-112031320D01*
X179541795Y-112074765D01*
X179502185Y-112094947D01*
X179502184Y-112094948D01*
X179330213Y-112219890D01*
X179179890Y-112370213D01*
X179054951Y-112542179D01*
X178958444Y-112731583D01*
X178926235Y-112830714D01*
X178886797Y-112888389D01*
X178822438Y-112915587D01*
X178753592Y-112903672D01*
X178702116Y-112856428D01*
X178690371Y-112830708D01*
X178689407Y-112827741D01*
X178610801Y-112673471D01*
X178606290Y-112667262D01*
X178606289Y-112667261D01*
X178152962Y-113120589D01*
X178135925Y-113057007D01*
X178070099Y-112942993D01*
X177977007Y-112849901D01*
X177862993Y-112784075D01*
X177799409Y-112767037D01*
X178252737Y-112313709D01*
X178246525Y-112309196D01*
X178092259Y-112230592D01*
X177927584Y-112177085D01*
X177756571Y-112150000D01*
X177583429Y-112150000D01*
X177412415Y-112177085D01*
X177247740Y-112230592D01*
X177093480Y-112309193D01*
X177093463Y-112309203D01*
X177087261Y-112313708D01*
X177087261Y-112313709D01*
X177540590Y-112767037D01*
X177477007Y-112784075D01*
X177362993Y-112849901D01*
X177269901Y-112942993D01*
X177204075Y-113057007D01*
X177187037Y-113120590D01*
X176733709Y-112667261D01*
X176733708Y-112667261D01*
X176729203Y-112673463D01*
X176729193Y-112673480D01*
X176650590Y-112827743D01*
X176650590Y-112827744D01*
X176649623Y-112830722D01*
X176648950Y-112831705D01*
X176648729Y-112832240D01*
X176648616Y-112832193D01*
X176610182Y-112888394D01*
X176545821Y-112915588D01*
X176476976Y-112903668D01*
X176425503Y-112856421D01*
X176413766Y-112830719D01*
X176381557Y-112731588D01*
X176285051Y-112542184D01*
X176285049Y-112542181D01*
X176285048Y-112542179D01*
X176206344Y-112433851D01*
X176160109Y-112370214D01*
X176160105Y-112370209D01*
X176009786Y-112219890D01*
X175837815Y-112094948D01*
X175837814Y-112094947D01*
X175798205Y-112074765D01*
X175747409Y-112026791D01*
X175730500Y-111964281D01*
X175730500Y-111240097D01*
X175750185Y-111173058D01*
X175766819Y-111152416D01*
X177599416Y-109319819D01*
X177660739Y-109286334D01*
X177687097Y-109283500D01*
X179173841Y-109283500D01*
X179179667Y-109285211D01*
G37*
%TD.AperFunction*%
%TA.AperFunction,Conductor*%
G36*
X191735703Y-100225384D02*
G01*
X191742181Y-100231416D01*
X203496030Y-111985265D01*
X203529515Y-112046588D01*
X203524531Y-112116280D01*
X203482659Y-112172213D01*
X203417195Y-112196630D01*
X203370031Y-112190877D01*
X203327587Y-112177086D01*
X203156571Y-112150000D01*
X202983429Y-112150000D01*
X202812415Y-112177085D01*
X202647740Y-112230592D01*
X202493480Y-112309193D01*
X202493463Y-112309203D01*
X202487261Y-112313708D01*
X202487261Y-112313709D01*
X202940590Y-112767037D01*
X202877007Y-112784075D01*
X202762993Y-112849901D01*
X202669901Y-112942993D01*
X202604075Y-113057007D01*
X202587037Y-113120590D01*
X202133709Y-112667261D01*
X202133708Y-112667261D01*
X202129203Y-112673463D01*
X202129193Y-112673480D01*
X202050590Y-112827743D01*
X202050590Y-112827744D01*
X202049623Y-112830722D01*
X202048950Y-112831705D01*
X202048729Y-112832240D01*
X202048616Y-112832193D01*
X202010182Y-112888394D01*
X201945821Y-112915588D01*
X201876976Y-112903668D01*
X201825503Y-112856421D01*
X201813766Y-112830719D01*
X201781557Y-112731588D01*
X201685051Y-112542184D01*
X201685049Y-112542181D01*
X201685048Y-112542179D01*
X201560109Y-112370213D01*
X201409786Y-112219890D01*
X201237820Y-112094951D01*
X201048414Y-111998444D01*
X201048413Y-111998443D01*
X201048412Y-111998443D01*
X200846243Y-111932754D01*
X200846241Y-111932753D01*
X200846240Y-111932753D01*
X200684957Y-111907208D01*
X200636287Y-111899500D01*
X200423713Y-111899500D01*
X200415013Y-111900878D01*
X200213757Y-111932753D01*
X200171473Y-111946492D01*
X200101632Y-111948486D01*
X200045476Y-111916241D01*
X196131417Y-108002181D01*
X196097932Y-107940858D01*
X196102916Y-107871166D01*
X196144788Y-107815233D01*
X196210252Y-107790816D01*
X196219098Y-107790500D01*
X196308844Y-107790500D01*
X196308845Y-107790499D01*
X196463497Y-107759737D01*
X196609179Y-107699394D01*
X196740289Y-107611789D01*
X196851789Y-107500289D01*
X196939394Y-107369179D01*
X196999737Y-107223497D01*
X197030500Y-107068842D01*
X197030500Y-106911158D01*
X197030500Y-106911155D01*
X197030499Y-106911153D01*
X197011685Y-106816571D01*
X196999737Y-106756503D01*
X196978490Y-106705207D01*
X196939397Y-106610827D01*
X196939390Y-106610814D01*
X196851789Y-106479711D01*
X196851786Y-106479707D01*
X196740292Y-106368213D01*
X196740288Y-106368210D01*
X196609185Y-106280609D01*
X196609172Y-106280602D01*
X196463501Y-106220264D01*
X196463491Y-106220261D01*
X196320308Y-106191780D01*
X196258397Y-106159395D01*
X196223823Y-106098679D01*
X196220500Y-106070163D01*
X196220500Y-105789059D01*
X196220501Y-105789046D01*
X196220501Y-105620945D01*
X196220501Y-105620943D01*
X196179577Y-105468215D01*
X196134964Y-105390943D01*
X196100520Y-105331284D01*
X195988716Y-105219480D01*
X195988715Y-105219479D01*
X195984385Y-105215149D01*
X195984374Y-105215139D01*
X193354574Y-102585339D01*
X193321089Y-102524016D01*
X193320638Y-102521849D01*
X193289738Y-102366510D01*
X193289737Y-102366503D01*
X193289735Y-102366498D01*
X193229397Y-102220827D01*
X193229390Y-102220814D01*
X193141789Y-102089711D01*
X193141786Y-102089707D01*
X193030292Y-101978213D01*
X193030288Y-101978210D01*
X192899185Y-101890609D01*
X192899172Y-101890602D01*
X192753501Y-101830264D01*
X192753489Y-101830261D01*
X192598845Y-101799500D01*
X192598842Y-101799500D01*
X192441158Y-101799500D01*
X192441155Y-101799500D01*
X192286510Y-101830261D01*
X192286498Y-101830264D01*
X192140827Y-101890602D01*
X192140814Y-101890609D01*
X192009711Y-101978210D01*
X192009707Y-101978213D01*
X191898213Y-102089707D01*
X191898210Y-102089711D01*
X191810609Y-102220814D01*
X191810602Y-102220827D01*
X191769061Y-102321119D01*
X191725220Y-102375523D01*
X191658926Y-102397588D01*
X191591227Y-102380309D01*
X191543616Y-102329172D01*
X191530500Y-102273667D01*
X191530500Y-100319097D01*
X191550185Y-100252058D01*
X191602989Y-100206303D01*
X191672147Y-100196359D01*
X191735703Y-100225384D01*
G37*
%TD.AperFunction*%
%TA.AperFunction,Conductor*%
G36*
X204876499Y-69139144D02*
G01*
X204906486Y-69145668D01*
X204911501Y-69149422D01*
X204914098Y-69150185D01*
X204934740Y-69166819D01*
X204949707Y-69181786D01*
X204949711Y-69181789D01*
X205080814Y-69269390D01*
X205080827Y-69269397D01*
X205190818Y-69314956D01*
X205226503Y-69329737D01*
X205357771Y-69355848D01*
X205381153Y-69360499D01*
X205381156Y-69360500D01*
X205381158Y-69360500D01*
X205538844Y-69360500D01*
X205538845Y-69360499D01*
X205693497Y-69329737D01*
X205839179Y-69269394D01*
X205952940Y-69193380D01*
X206019615Y-69172504D01*
X206086995Y-69190988D01*
X206109510Y-69208803D01*
X208094181Y-71193473D01*
X208127666Y-71254796D01*
X208130500Y-71281154D01*
X208130500Y-98915500D01*
X208110815Y-98982539D01*
X208058011Y-99028294D01*
X208006500Y-99039500D01*
X206682129Y-99039500D01*
X206682123Y-99039501D01*
X206622516Y-99045908D01*
X206487671Y-99096202D01*
X206487664Y-99096206D01*
X206372455Y-99182452D01*
X206372452Y-99182455D01*
X206286206Y-99297664D01*
X206286204Y-99297669D01*
X206235908Y-99432517D01*
X206229501Y-99492116D01*
X206229500Y-99492135D01*
X206229500Y-99665500D01*
X206209815Y-99732539D01*
X206157011Y-99778294D01*
X206105500Y-99789500D01*
X205719766Y-99789500D01*
X205652727Y-99769815D01*
X205650875Y-99768602D01*
X205519185Y-99680609D01*
X205519172Y-99680602D01*
X205373501Y-99620264D01*
X205373489Y-99620261D01*
X205218845Y-99589500D01*
X205218842Y-99589500D01*
X205061158Y-99589500D01*
X205061155Y-99589500D01*
X204906510Y-99620261D01*
X204906498Y-99620264D01*
X204760827Y-99680602D01*
X204760814Y-99680609D01*
X204629711Y-99768210D01*
X204629707Y-99768213D01*
X204518213Y-99879707D01*
X204518210Y-99879711D01*
X204457602Y-99970417D01*
X204403989Y-100015222D01*
X204334664Y-100023929D01*
X204271637Y-99993774D01*
X204234918Y-99934331D01*
X204230500Y-99901526D01*
X204230500Y-99210945D01*
X204230500Y-99210943D01*
X204189577Y-99058216D01*
X204178772Y-99039501D01*
X204110524Y-98921290D01*
X204110518Y-98921282D01*
X203998717Y-98809481D01*
X203998709Y-98809475D01*
X203861790Y-98730426D01*
X203861786Y-98730424D01*
X203861784Y-98730423D01*
X203709057Y-98689500D01*
X203709056Y-98689500D01*
X203502940Y-98689500D01*
X203435901Y-98669815D01*
X203415258Y-98653180D01*
X203370292Y-98608213D01*
X203370288Y-98608210D01*
X203239185Y-98520609D01*
X203239172Y-98520602D01*
X203093501Y-98460264D01*
X203093489Y-98460261D01*
X202938845Y-98429500D01*
X202938842Y-98429500D01*
X202781158Y-98429500D01*
X202781155Y-98429500D01*
X202626510Y-98460261D01*
X202626498Y-98460264D01*
X202480827Y-98520602D01*
X202480814Y-98520609D01*
X202349711Y-98608210D01*
X202349707Y-98608213D01*
X202238213Y-98719707D01*
X202238210Y-98719711D01*
X202150609Y-98850814D01*
X202150602Y-98850827D01*
X202090264Y-98996498D01*
X202090261Y-98996510D01*
X202059500Y-99151153D01*
X202059500Y-99308846D01*
X202090261Y-99463489D01*
X202090264Y-99463501D01*
X202150602Y-99609172D01*
X202150609Y-99609185D01*
X202238210Y-99740288D01*
X202238213Y-99740292D01*
X202349707Y-99851786D01*
X202349711Y-99851789D01*
X202480814Y-99939390D01*
X202480827Y-99939397D01*
X202602479Y-99989786D01*
X202626503Y-99999737D01*
X202748124Y-100023929D01*
X202781153Y-100030499D01*
X202781156Y-100030500D01*
X202905500Y-100030500D01*
X202972539Y-100050185D01*
X203018294Y-100102989D01*
X203029500Y-100154500D01*
X203029500Y-101433330D01*
X203029499Y-101433348D01*
X203029499Y-101599054D01*
X203029498Y-101599054D01*
X203070423Y-101751785D01*
X203097970Y-101799496D01*
X203097971Y-101799500D01*
X203097972Y-101799500D01*
X203109807Y-101820000D01*
X203149479Y-101888714D01*
X203149481Y-101888717D01*
X203268349Y-102007585D01*
X203268355Y-102007590D01*
X206246241Y-104985476D01*
X206279726Y-105046799D01*
X206276492Y-105111473D01*
X206262753Y-105153757D01*
X206246560Y-105256000D01*
X206229500Y-105363713D01*
X206229500Y-105576287D01*
X206236573Y-105620943D01*
X206261615Y-105779057D01*
X206262754Y-105786243D01*
X206323675Y-105973739D01*
X206328444Y-105988414D01*
X206424951Y-106177820D01*
X206549890Y-106349786D01*
X206700213Y-106500109D01*
X206872179Y-106625048D01*
X206872181Y-106625049D01*
X206872184Y-106625051D01*
X207061588Y-106721557D01*
X207263757Y-106787246D01*
X207473713Y-106820500D01*
X207473714Y-106820500D01*
X207686286Y-106820500D01*
X207686287Y-106820500D01*
X207896243Y-106787246D01*
X207968183Y-106763870D01*
X208038023Y-106761876D01*
X208097856Y-106797956D01*
X208128684Y-106860657D01*
X208130500Y-106881802D01*
X208130500Y-111775500D01*
X208110815Y-111842539D01*
X208058011Y-111888294D01*
X208006500Y-111899500D01*
X207252129Y-111899500D01*
X207252123Y-111899501D01*
X207192516Y-111905908D01*
X207057671Y-111956202D01*
X207057664Y-111956206D01*
X206942455Y-112042452D01*
X206942452Y-112042455D01*
X206856206Y-112157664D01*
X206856203Y-112157669D01*
X206807189Y-112289083D01*
X206765317Y-112345016D01*
X206699853Y-112369433D01*
X206631580Y-112354581D01*
X206603326Y-112333430D01*
X206489786Y-112219890D01*
X206317820Y-112094951D01*
X206128414Y-111998444D01*
X206128413Y-111998443D01*
X206128412Y-111998443D01*
X205926243Y-111932754D01*
X205926241Y-111932753D01*
X205926240Y-111932753D01*
X205764957Y-111907208D01*
X205716287Y-111899500D01*
X205503713Y-111899500D01*
X205495013Y-111900878D01*
X205293757Y-111932753D01*
X205251473Y-111946492D01*
X205181632Y-111948486D01*
X205125476Y-111916241D01*
X191966819Y-98757584D01*
X191933334Y-98696261D01*
X191930500Y-98669903D01*
X191930500Y-91189060D01*
X191930501Y-91189047D01*
X191930501Y-91020944D01*
X191894584Y-90886903D01*
X191889577Y-90868216D01*
X191828002Y-90761564D01*
X191810524Y-90731290D01*
X191810518Y-90731282D01*
X188897590Y-87818355D01*
X188897588Y-87818352D01*
X188778717Y-87699481D01*
X188778716Y-87699480D01*
X188685460Y-87645639D01*
X188685459Y-87645638D01*
X188641790Y-87620425D01*
X188641789Y-87620424D01*
X188597497Y-87608556D01*
X188489057Y-87579499D01*
X188330943Y-87579499D01*
X188323347Y-87579499D01*
X188323331Y-87579500D01*
X186610530Y-87579500D01*
X186543491Y-87559815D01*
X186497736Y-87507011D01*
X186487792Y-87437853D01*
X186488056Y-87436103D01*
X186492190Y-87410000D01*
X186094000Y-87410000D01*
X186026961Y-87390315D01*
X185981206Y-87337511D01*
X185970000Y-87286000D01*
X185970000Y-87160000D01*
X185914500Y-87160000D01*
X185847461Y-87140315D01*
X185801706Y-87087511D01*
X185790500Y-87036000D01*
X185790500Y-86925317D01*
X185790499Y-86925302D01*
X185790495Y-86925253D01*
X185789295Y-86910000D01*
X186220000Y-86910000D01*
X186492190Y-86910000D01*
X186485536Y-86867984D01*
X186429448Y-86757906D01*
X186429444Y-86757901D01*
X186342098Y-86670555D01*
X186342091Y-86670550D01*
X186232022Y-86614466D01*
X186232019Y-86614465D01*
X186220000Y-86612561D01*
X186220000Y-86910000D01*
X185789295Y-86910000D01*
X185787643Y-86889007D01*
X185781535Y-86867984D01*
X185742495Y-86733608D01*
X185742492Y-86733600D01*
X185737266Y-86724763D01*
X185732916Y-86708862D01*
X185725023Y-86696580D01*
X185720000Y-86661645D01*
X185720000Y-86612561D01*
X185709496Y-86603591D01*
X185677166Y-86599413D01*
X185639381Y-86573576D01*
X185545692Y-86479887D01*
X185545684Y-86479881D01*
X185410005Y-86399641D01*
X185406395Y-86397506D01*
X185406394Y-86397505D01*
X185406393Y-86397505D01*
X185406390Y-86397504D01*
X185250997Y-86352357D01*
X185250991Y-86352356D01*
X185214697Y-86349500D01*
X185214690Y-86349500D01*
X184814500Y-86349500D01*
X184747461Y-86329815D01*
X184701706Y-86277011D01*
X184690500Y-86225500D01*
X184690500Y-85454500D01*
X184693050Y-85445814D01*
X184691762Y-85436853D01*
X184702740Y-85412812D01*
X184710185Y-85387461D01*
X184717025Y-85381533D01*
X184720787Y-85373297D01*
X184743021Y-85359007D01*
X184762989Y-85341706D01*
X184773503Y-85339418D01*
X184779565Y-85335523D01*
X184814500Y-85330500D01*
X184833333Y-85330500D01*
X184900372Y-85350185D01*
X184921014Y-85366819D01*
X184934307Y-85380112D01*
X184934311Y-85380115D01*
X184934313Y-85380117D01*
X185073605Y-85462494D01*
X185114587Y-85474400D01*
X185229002Y-85507642D01*
X185229005Y-85507642D01*
X185229007Y-85507643D01*
X185265310Y-85510500D01*
X185265318Y-85510500D01*
X185734682Y-85510500D01*
X185734690Y-85510500D01*
X185770993Y-85507643D01*
X185770995Y-85507642D01*
X185770997Y-85507642D01*
X185811975Y-85495736D01*
X185926395Y-85462494D01*
X186065687Y-85380117D01*
X186065914Y-85379890D01*
X186078986Y-85366819D01*
X186140309Y-85333334D01*
X186166667Y-85330500D01*
X186848890Y-85330500D01*
X186915929Y-85350185D01*
X186917781Y-85351398D01*
X186929169Y-85359007D01*
X186931775Y-85360748D01*
X186931777Y-85360749D01*
X186931781Y-85360751D01*
X187077452Y-85421089D01*
X187077457Y-85421091D01*
X187201747Y-85445814D01*
X187232107Y-85451853D01*
X187232110Y-85451854D01*
X187232112Y-85451854D01*
X187389798Y-85451854D01*
X187389799Y-85451853D01*
X187544451Y-85421091D01*
X187690133Y-85360748D01*
X187821243Y-85273143D01*
X187932743Y-85161643D01*
X188020348Y-85030533D01*
X188080691Y-84884851D01*
X188111454Y-84730196D01*
X188111454Y-84572512D01*
X188111454Y-84572509D01*
X188111453Y-84572507D01*
X188107034Y-84550292D01*
X188080691Y-84417857D01*
X188080689Y-84417852D01*
X188020351Y-84272181D01*
X188020344Y-84272168D01*
X187932743Y-84141065D01*
X187932740Y-84141061D01*
X187821246Y-84029567D01*
X187821242Y-84029564D01*
X187690139Y-83941963D01*
X187690126Y-83941956D01*
X187544455Y-83881618D01*
X187544443Y-83881615D01*
X187389799Y-83850854D01*
X187389796Y-83850854D01*
X187232112Y-83850854D01*
X187232109Y-83850854D01*
X187077464Y-83881615D01*
X187077452Y-83881618D01*
X186931781Y-83941956D01*
X186931768Y-83941963D01*
X186800666Y-84029563D01*
X186780840Y-84049390D01*
X186737047Y-84093182D01*
X186675727Y-84126666D01*
X186649368Y-84129500D01*
X186175282Y-84129500D01*
X186110026Y-84110940D01*
X186075175Y-84089371D01*
X186065687Y-84079883D01*
X185926395Y-83997506D01*
X185926393Y-83997505D01*
X185926389Y-83997503D01*
X185770997Y-83952357D01*
X185770991Y-83952356D01*
X185734697Y-83949500D01*
X185734690Y-83949500D01*
X185624000Y-83949500D01*
X185615314Y-83946949D01*
X185606353Y-83948238D01*
X185582312Y-83937259D01*
X185556961Y-83929815D01*
X185551033Y-83922974D01*
X185542797Y-83919213D01*
X185528507Y-83896978D01*
X185511206Y-83877011D01*
X185508918Y-83866496D01*
X185505023Y-83860435D01*
X185500000Y-83825500D01*
X185500000Y-83644000D01*
X185519685Y-83576961D01*
X185572489Y-83531206D01*
X185624000Y-83520000D01*
X186047438Y-83520000D01*
X186045535Y-83507983D01*
X185989447Y-83397906D01*
X185989444Y-83397901D01*
X185962545Y-83371002D01*
X185929060Y-83309679D01*
X185934044Y-83239987D01*
X185975916Y-83184054D01*
X185987084Y-83176602D01*
X186065687Y-83130117D01*
X186180117Y-83015687D01*
X186262494Y-82876395D01*
X186307643Y-82720993D01*
X186310500Y-82684690D01*
X186310500Y-82275310D01*
X186307643Y-82239007D01*
X186299913Y-82212402D01*
X186262495Y-82083609D01*
X186262494Y-82083606D01*
X186262494Y-82083605D01*
X186180117Y-81944313D01*
X186180115Y-81944311D01*
X186180112Y-81944307D01*
X186095147Y-81859342D01*
X186095144Y-81859340D01*
X186065687Y-81829883D01*
X185926395Y-81747506D01*
X185926393Y-81747505D01*
X185926389Y-81747503D01*
X185770997Y-81702357D01*
X185770991Y-81702356D01*
X185734697Y-81699500D01*
X185734690Y-81699500D01*
X185624000Y-81699500D01*
X185556961Y-81679815D01*
X185511206Y-81627011D01*
X185500000Y-81575500D01*
X185500000Y-81520000D01*
X185384500Y-81520000D01*
X185317461Y-81500315D01*
X185271706Y-81447511D01*
X185260500Y-81396000D01*
X185260500Y-81270000D01*
X185750000Y-81270000D01*
X186047438Y-81270000D01*
X186045535Y-81257983D01*
X185989447Y-81147906D01*
X185989444Y-81147901D01*
X185945739Y-81104196D01*
X198750001Y-81104196D01*
X198752851Y-81134606D01*
X198797653Y-81262645D01*
X198878207Y-81371792D01*
X198987354Y-81452346D01*
X199115397Y-81497149D01*
X199145793Y-81499999D01*
X199149999Y-81499999D01*
X199650000Y-81499999D01*
X199654196Y-81499999D01*
X199684606Y-81497148D01*
X199812645Y-81452346D01*
X199921792Y-81371792D01*
X200002346Y-81262645D01*
X200047149Y-81134604D01*
X200047149Y-81134600D01*
X200050000Y-81104206D01*
X200050000Y-80500000D01*
X199650000Y-80500000D01*
X199650000Y-81499999D01*
X199149999Y-81499999D01*
X199150000Y-81499998D01*
X199150000Y-80500000D01*
X198750001Y-80500000D01*
X198750001Y-81104196D01*
X185945739Y-81104196D01*
X185902098Y-81060555D01*
X185902093Y-81060551D01*
X185792018Y-81004465D01*
X185750000Y-80997809D01*
X185750000Y-81270000D01*
X185260500Y-81270000D01*
X185260500Y-80045097D01*
X185280185Y-79978058D01*
X185296819Y-79957416D01*
X185858442Y-79395793D01*
X198750000Y-79395793D01*
X198750000Y-80000000D01*
X199150000Y-80000000D01*
X199650000Y-80000000D01*
X200049999Y-80000000D01*
X200049999Y-79395803D01*
X200047148Y-79365393D01*
X200002346Y-79237354D01*
X199921792Y-79128207D01*
X199812645Y-79047653D01*
X199684602Y-79002850D01*
X199654207Y-79000000D01*
X199650000Y-79000000D01*
X199650000Y-80000000D01*
X199150000Y-80000000D01*
X199150000Y-79000000D01*
X199145796Y-79000001D01*
X199145774Y-79000002D01*
X199115399Y-79002850D01*
X199115394Y-79002851D01*
X198987354Y-79047653D01*
X198878207Y-79128207D01*
X198797653Y-79237354D01*
X198752850Y-79365395D01*
X198752850Y-79365399D01*
X198750000Y-79395793D01*
X185858442Y-79395793D01*
X189524235Y-75730000D01*
X195452562Y-75730000D01*
X195454464Y-75742016D01*
X195510552Y-75852093D01*
X195510555Y-75852098D01*
X195597901Y-75939444D01*
X195597906Y-75939448D01*
X195707984Y-75995536D01*
X195750000Y-76002190D01*
X195750000Y-76002188D01*
X196250000Y-76002188D01*
X196292022Y-75995533D01*
X196402091Y-75939449D01*
X196402098Y-75939444D01*
X196489444Y-75852098D01*
X196489449Y-75852091D01*
X196545533Y-75742022D01*
X196545534Y-75742019D01*
X196547438Y-75730000D01*
X196250000Y-75730000D01*
X196250000Y-76002188D01*
X195750000Y-76002188D01*
X195750000Y-75730000D01*
X195452562Y-75730000D01*
X189524235Y-75730000D01*
X195062819Y-70191416D01*
X195124142Y-70157931D01*
X195193834Y-70162915D01*
X195249767Y-70204787D01*
X195274184Y-70270251D01*
X195274500Y-70279097D01*
X195274500Y-73060830D01*
X195274499Y-73060848D01*
X195274499Y-73226554D01*
X195274498Y-73226554D01*
X195315424Y-73379289D01*
X195315425Y-73379290D01*
X195333745Y-73411020D01*
X195333747Y-73411023D01*
X195382886Y-73496135D01*
X195399499Y-73558135D01*
X195399499Y-73649046D01*
X195399500Y-73649059D01*
X195399500Y-73853333D01*
X195379815Y-73920372D01*
X195363181Y-73941014D01*
X195319887Y-73984307D01*
X195319881Y-73984315D01*
X195237505Y-74123606D01*
X195237504Y-74123609D01*
X195192357Y-74279002D01*
X195192356Y-74279008D01*
X195189500Y-74315302D01*
X195189500Y-74724697D01*
X195192356Y-74760991D01*
X195192357Y-74760997D01*
X195237504Y-74916390D01*
X195237505Y-74916393D01*
X195319881Y-75055684D01*
X195319887Y-75055692D01*
X195404851Y-75140656D01*
X195404853Y-75140657D01*
X195434313Y-75170117D01*
X195573605Y-75252494D01*
X195573608Y-75252494D01*
X195573610Y-75252496D01*
X195729002Y-75297642D01*
X195729005Y-75297642D01*
X195729007Y-75297643D01*
X195765310Y-75300500D01*
X195765318Y-75300500D01*
X196234682Y-75300500D01*
X196234690Y-75300500D01*
X196270993Y-75297643D01*
X196270995Y-75297642D01*
X196270997Y-75297642D01*
X196426389Y-75252496D01*
X196426389Y-75252495D01*
X196426395Y-75252494D01*
X196565687Y-75170117D01*
X196680117Y-75055687D01*
X196762494Y-74916395D01*
X196807643Y-74760993D01*
X196810500Y-74724690D01*
X196810500Y-74315310D01*
X196807643Y-74279007D01*
X196804903Y-74269577D01*
X196762495Y-74123609D01*
X196762494Y-74123606D01*
X196762494Y-74123605D01*
X196680117Y-73984313D01*
X196680115Y-73984311D01*
X196680112Y-73984307D01*
X196640201Y-73944397D01*
X196606715Y-73883074D01*
X196611699Y-73813383D01*
X196640198Y-73769036D01*
X197752416Y-72656819D01*
X197813739Y-72623334D01*
X197840097Y-72620500D01*
X202330404Y-72620500D01*
X202397443Y-72640185D01*
X202418085Y-72656819D01*
X202422396Y-72661130D01*
X202422400Y-72661133D01*
X202422402Y-72661135D01*
X202560607Y-72742869D01*
X202601268Y-72754682D01*
X202714791Y-72787664D01*
X202714794Y-72787664D01*
X202714796Y-72787665D01*
X202750819Y-72790500D01*
X202875500Y-72790499D01*
X202942539Y-72810183D01*
X202988294Y-72862987D01*
X202999500Y-72914499D01*
X202999500Y-78808480D01*
X202979815Y-78875519D01*
X202963181Y-78896161D01*
X202844531Y-79014810D01*
X202844530Y-79014811D01*
X202756522Y-79160393D01*
X202705913Y-79322807D01*
X202699500Y-79393386D01*
X202699500Y-81106613D01*
X202705913Y-81177192D01*
X202705913Y-81177194D01*
X202705914Y-81177196D01*
X202756522Y-81339606D01*
X202817035Y-81439707D01*
X202844530Y-81485188D01*
X202964811Y-81605469D01*
X202964813Y-81605470D01*
X202964815Y-81605472D01*
X203110394Y-81693478D01*
X203272804Y-81744086D01*
X203343384Y-81750500D01*
X203343387Y-81750500D01*
X203856613Y-81750500D01*
X203856616Y-81750500D01*
X203927196Y-81744086D01*
X204089606Y-81693478D01*
X204235185Y-81605472D01*
X204355472Y-81485185D01*
X204443478Y-81339606D01*
X204494086Y-81177196D01*
X204500500Y-81106616D01*
X204500500Y-79393384D01*
X204494086Y-79322804D01*
X204443478Y-79160394D01*
X204355472Y-79014815D01*
X204355470Y-79014813D01*
X204355469Y-79014811D01*
X204236819Y-78896161D01*
X204203334Y-78834838D01*
X204200500Y-78808480D01*
X204200500Y-72960097D01*
X204209144Y-72930656D01*
X204215668Y-72900670D01*
X204219422Y-72895654D01*
X204220185Y-72893058D01*
X204236819Y-72872416D01*
X204292417Y-72816818D01*
X204353740Y-72783333D01*
X204380098Y-72780499D01*
X204499168Y-72780499D01*
X204499180Y-72780499D01*
X204535204Y-72777665D01*
X204689393Y-72732869D01*
X204827598Y-72651135D01*
X204941135Y-72537598D01*
X205022869Y-72399393D01*
X205067665Y-72245204D01*
X205070500Y-72209181D01*
X205070499Y-71810820D01*
X205067665Y-71774796D01*
X205022869Y-71620607D01*
X204988869Y-71563117D01*
X204971688Y-71495398D01*
X204988869Y-71436882D01*
X205022869Y-71379393D01*
X205023023Y-71378865D01*
X205067664Y-71225208D01*
X205067665Y-71225202D01*
X205069714Y-71199169D01*
X205070500Y-71189181D01*
X205070499Y-70790820D01*
X205067665Y-70754796D01*
X205022869Y-70600607D01*
X204941135Y-70462402D01*
X204941133Y-70462400D01*
X204941130Y-70462396D01*
X204827603Y-70348869D01*
X204827594Y-70348862D01*
X204689398Y-70267133D01*
X204689389Y-70267129D01*
X204687507Y-70266583D01*
X204685820Y-70265585D01*
X204682237Y-70264035D01*
X204682432Y-70263582D01*
X204674558Y-70258925D01*
X204662682Y-70256342D01*
X204634433Y-70235194D01*
X204634427Y-70235191D01*
X204618716Y-70219480D01*
X204618713Y-70219478D01*
X203910747Y-69511512D01*
X203877262Y-69450189D01*
X203882246Y-69380497D01*
X203924118Y-69324564D01*
X203961541Y-69305445D01*
X203974102Y-69301531D01*
X204111888Y-69218236D01*
X204163304Y-69166820D01*
X204224627Y-69133334D01*
X204250986Y-69130500D01*
X204847059Y-69130500D01*
X204876499Y-69139144D01*
G37*
%TD.AperFunction*%
%TA.AperFunction,Conductor*%
G36*
X160027942Y-97930185D02*
G01*
X160073697Y-97982989D01*
X160083641Y-98052147D01*
X160054616Y-98115703D01*
X160048584Y-98122181D01*
X151014734Y-107156029D01*
X150953411Y-107189514D01*
X150883719Y-107184530D01*
X150827786Y-107142658D01*
X150803369Y-107077194D01*
X150809123Y-107030027D01*
X150822913Y-106987587D01*
X150822913Y-106987585D01*
X150850000Y-106816571D01*
X150850000Y-106643428D01*
X150822914Y-106472415D01*
X150769408Y-106307742D01*
X150690801Y-106153471D01*
X150686290Y-106147262D01*
X150686289Y-106147261D01*
X150232962Y-106600590D01*
X150215925Y-106537007D01*
X150150099Y-106422993D01*
X150057007Y-106329901D01*
X149942993Y-106264075D01*
X149879409Y-106247037D01*
X150332737Y-105793709D01*
X150326525Y-105789196D01*
X150172258Y-105710592D01*
X150169282Y-105709625D01*
X150168296Y-105708951D01*
X150167760Y-105708729D01*
X150167806Y-105708616D01*
X150111608Y-105670185D01*
X150084412Y-105605826D01*
X150096328Y-105536980D01*
X150143574Y-105485506D01*
X150169280Y-105473766D01*
X150268412Y-105441557D01*
X150457816Y-105345051D01*
X150488113Y-105323039D01*
X150629786Y-105220109D01*
X150629788Y-105220106D01*
X150629792Y-105220104D01*
X150780104Y-105069792D01*
X150780106Y-105069788D01*
X150780109Y-105069786D01*
X150905048Y-104897820D01*
X150905047Y-104897820D01*
X150905051Y-104897816D01*
X151001557Y-104708412D01*
X151067246Y-104506243D01*
X151100500Y-104296287D01*
X151100500Y-104083713D01*
X151067246Y-103873757D01*
X151053506Y-103831473D01*
X151051512Y-103761635D01*
X151083755Y-103705478D01*
X156842416Y-97946819D01*
X156903739Y-97913334D01*
X156930097Y-97910500D01*
X159960903Y-97910500D01*
X160027942Y-97930185D01*
G37*
%TD.AperFunction*%
%TA.AperFunction,Conductor*%
G36*
X179923039Y-103539685D02*
G01*
X179968794Y-103592489D01*
X179980000Y-103644000D01*
X179980000Y-104370000D01*
X180125500Y-104370000D01*
X180134185Y-104372550D01*
X180143147Y-104371262D01*
X180167187Y-104382240D01*
X180192539Y-104389685D01*
X180198466Y-104396525D01*
X180206703Y-104400287D01*
X180220992Y-104422521D01*
X180238294Y-104442489D01*
X180240581Y-104453003D01*
X180244477Y-104459065D01*
X180249500Y-104494000D01*
X180249500Y-104645500D01*
X180229815Y-104712539D01*
X180177011Y-104758294D01*
X180125500Y-104769500D01*
X179719595Y-104769500D01*
X179652556Y-104749815D01*
X179631918Y-104733185D01*
X179577598Y-104678865D01*
X179577597Y-104678864D01*
X179577594Y-104678862D01*
X179445482Y-104600732D01*
X179397799Y-104549663D01*
X179385295Y-104480921D01*
X179411940Y-104416332D01*
X179469276Y-104376402D01*
X179474438Y-104375561D01*
X179480000Y-104370000D01*
X179480000Y-103644000D01*
X179499685Y-103576961D01*
X179552489Y-103531206D01*
X179604000Y-103520000D01*
X179856000Y-103520000D01*
X179923039Y-103539685D01*
G37*
%TD.AperFunction*%
%TA.AperFunction,Conductor*%
G36*
X182147975Y-98708265D02*
G01*
X182274625Y-98732147D01*
X182314765Y-98747266D01*
X182323605Y-98752494D01*
X182323608Y-98752494D01*
X182323610Y-98752496D01*
X182479002Y-98797642D01*
X182479005Y-98797642D01*
X182479007Y-98797643D01*
X182515310Y-98800500D01*
X182626000Y-98800500D01*
X182629296Y-98801467D01*
X182632640Y-98800678D01*
X182662582Y-98811242D01*
X182693039Y-98820185D01*
X182695288Y-98822780D01*
X182698529Y-98823924D01*
X182718012Y-98849005D01*
X182738794Y-98872989D01*
X182739906Y-98877191D01*
X182741391Y-98879102D01*
X182743860Y-98892123D01*
X182749507Y-98913450D01*
X182760007Y-99030812D01*
X182759555Y-99033080D01*
X182760500Y-99041862D01*
X182760500Y-102916003D01*
X182740815Y-102983042D01*
X182724181Y-103003684D01*
X181662181Y-104065684D01*
X181600858Y-104099169D01*
X181531166Y-104094185D01*
X181475233Y-104052313D01*
X181450816Y-103986849D01*
X181450500Y-103978003D01*
X181450500Y-99979060D01*
X181450501Y-99979047D01*
X181450501Y-99810944D01*
X181444755Y-99789500D01*
X181409577Y-99658216D01*
X181347112Y-99550022D01*
X181334295Y-99502188D01*
X181750000Y-99502188D01*
X181792022Y-99495533D01*
X181902091Y-99439449D01*
X181902098Y-99439444D01*
X181989444Y-99352098D01*
X181989447Y-99352093D01*
X182001000Y-99329421D01*
X182249000Y-99329421D01*
X182260552Y-99352093D01*
X182260555Y-99352098D01*
X182347901Y-99439444D01*
X182347906Y-99439448D01*
X182457984Y-99495536D01*
X182500000Y-99502190D01*
X182500000Y-99230000D01*
X182249001Y-99230000D01*
X182249000Y-99329421D01*
X182001000Y-99329421D01*
X182001001Y-99230000D01*
X181750000Y-99230000D01*
X181750000Y-99502188D01*
X181334295Y-99502188D01*
X181330500Y-99488023D01*
X181330500Y-99104000D01*
X181350185Y-99036961D01*
X181402989Y-98991206D01*
X181454500Y-98980000D01*
X181500000Y-98980000D01*
X181500000Y-98924500D01*
X181519685Y-98857461D01*
X181572489Y-98811706D01*
X181624000Y-98800500D01*
X181734682Y-98800500D01*
X181734690Y-98800500D01*
X181770993Y-98797643D01*
X181770995Y-98797642D01*
X181770997Y-98797642D01*
X181926389Y-98752496D01*
X181926389Y-98752495D01*
X181926395Y-98752494D01*
X181935233Y-98747267D01*
X181998352Y-98730000D01*
X182055254Y-98730000D01*
X182069630Y-98724177D01*
X182089214Y-98711393D01*
X182101411Y-98711305D01*
X182112715Y-98706728D01*
X182147975Y-98708265D01*
G37*
%TD.AperFunction*%
%TA.AperFunction,Conductor*%
G36*
X204435703Y-100784760D02*
G01*
X204457602Y-100809582D01*
X204518210Y-100900288D01*
X204518213Y-100900292D01*
X204629707Y-101011786D01*
X204629711Y-101011789D01*
X204760814Y-101099390D01*
X204760827Y-101099397D01*
X204906498Y-101159735D01*
X204906503Y-101159737D01*
X205061153Y-101190499D01*
X205061156Y-101190500D01*
X205061158Y-101190500D01*
X205218844Y-101190500D01*
X205218845Y-101190499D01*
X205373497Y-101159737D01*
X205519179Y-101099394D01*
X205573663Y-101062989D01*
X205650875Y-101011398D01*
X205717553Y-100990520D01*
X205719766Y-100990500D01*
X206105501Y-100990500D01*
X206172540Y-101010185D01*
X206218295Y-101062989D01*
X206229501Y-101114500D01*
X206229501Y-101287876D01*
X206235908Y-101347483D01*
X206286202Y-101482328D01*
X206286206Y-101482335D01*
X206372452Y-101597544D01*
X206372455Y-101597547D01*
X206487664Y-101683793D01*
X206487671Y-101683797D01*
X206622517Y-101734091D01*
X206622516Y-101734091D01*
X206629444Y-101734835D01*
X206682127Y-101740500D01*
X206975073Y-101740499D01*
X207042110Y-101760183D01*
X207087865Y-101812987D01*
X207097809Y-101882146D01*
X207068784Y-101945701D01*
X207031370Y-101974982D01*
X207003477Y-101989195D01*
X207003463Y-101989203D01*
X206997261Y-101993708D01*
X206997261Y-101993709D01*
X207450590Y-102447037D01*
X207387007Y-102464075D01*
X207272993Y-102529901D01*
X207179901Y-102622993D01*
X207114075Y-102737007D01*
X207097037Y-102800590D01*
X206643709Y-102347261D01*
X206643708Y-102347261D01*
X206639203Y-102353463D01*
X206639193Y-102353480D01*
X206560592Y-102507740D01*
X206507085Y-102672415D01*
X206480000Y-102843428D01*
X206480000Y-103016571D01*
X206507086Y-103187585D01*
X206507086Y-103187588D01*
X206520877Y-103230031D01*
X206522872Y-103299873D01*
X206486791Y-103359705D01*
X206424090Y-103390533D01*
X206354676Y-103382568D01*
X206315265Y-103356030D01*
X205686100Y-102726865D01*
X204266819Y-101307583D01*
X204233334Y-101246260D01*
X204230500Y-101219902D01*
X204230500Y-100878473D01*
X204250185Y-100811434D01*
X204302989Y-100765679D01*
X204372147Y-100755735D01*
X204435703Y-100784760D01*
G37*
%TD.AperFunction*%
%TA.AperFunction,Conductor*%
G36*
X186753539Y-91629685D02*
G01*
X186799294Y-91682489D01*
X186810500Y-91734000D01*
X186810500Y-102268602D01*
X186790815Y-102335641D01*
X186774181Y-102356283D01*
X186178181Y-102952283D01*
X186116858Y-102985768D01*
X186047166Y-102980784D01*
X185991233Y-102938912D01*
X185966816Y-102873448D01*
X185966500Y-102864602D01*
X185966500Y-93176944D01*
X185964792Y-93170566D01*
X185964792Y-93170565D01*
X185925576Y-93024213D01*
X185882610Y-92949795D01*
X185880211Y-92945639D01*
X185846520Y-92887284D01*
X185734716Y-92775480D01*
X185734715Y-92775479D01*
X185730385Y-92771149D01*
X185730374Y-92771139D01*
X185591416Y-92632181D01*
X185557931Y-92570858D01*
X185562915Y-92501166D01*
X185604787Y-92445233D01*
X185670251Y-92420816D01*
X185679097Y-92420500D01*
X185954682Y-92420500D01*
X185954690Y-92420500D01*
X185990993Y-92417643D01*
X185990995Y-92417642D01*
X185990997Y-92417642D01*
X186057103Y-92398436D01*
X186146395Y-92372494D01*
X186285687Y-92290117D01*
X186400117Y-92175687D01*
X186482494Y-92036395D01*
X186482820Y-92035275D01*
X186527642Y-91880997D01*
X186527643Y-91880991D01*
X186528264Y-91873096D01*
X186530500Y-91844690D01*
X186530500Y-91734000D01*
X186533050Y-91725314D01*
X186531762Y-91716353D01*
X186542740Y-91692312D01*
X186550185Y-91666961D01*
X186557025Y-91661033D01*
X186560787Y-91652797D01*
X186583021Y-91638507D01*
X186602989Y-91621206D01*
X186613503Y-91618918D01*
X186619565Y-91615023D01*
X186654500Y-91610000D01*
X186686500Y-91610000D01*
X186753539Y-91629685D01*
G37*
%TD.AperFunction*%
%TA.AperFunction,Conductor*%
G36*
X179175703Y-98297834D02*
G01*
X179182181Y-98303866D01*
X179355705Y-98477390D01*
X179389190Y-98538713D01*
X179384206Y-98608405D01*
X179355705Y-98652752D01*
X179340555Y-98667901D01*
X179340550Y-98667908D01*
X179284466Y-98777977D01*
X179284465Y-98777980D01*
X179282561Y-98789999D01*
X179282561Y-98790000D01*
X179616953Y-98790000D01*
X179646393Y-98798644D01*
X179676380Y-98805168D01*
X179681395Y-98808922D01*
X179683992Y-98809685D01*
X179704634Y-98826319D01*
X179793681Y-98915366D01*
X179827166Y-98976689D01*
X179830000Y-99003047D01*
X179830000Y-99095500D01*
X179810315Y-99162539D01*
X179757511Y-99208294D01*
X179706000Y-99219500D01*
X179595302Y-99219500D01*
X179559008Y-99222356D01*
X179559002Y-99222357D01*
X179403610Y-99267503D01*
X179403605Y-99267506D01*
X179264313Y-99349883D01*
X179234859Y-99379336D01*
X179234854Y-99379340D01*
X179182181Y-99432014D01*
X179120858Y-99465499D01*
X179051166Y-99460515D01*
X178995233Y-99418643D01*
X178970816Y-99353179D01*
X178970500Y-99344333D01*
X178970500Y-98391547D01*
X178990185Y-98324508D01*
X179042989Y-98278753D01*
X179112147Y-98268809D01*
X179175703Y-98297834D01*
G37*
%TD.AperFunction*%
%TA.AperFunction,Conductor*%
G36*
X177498434Y-87869876D02*
G01*
X177498436Y-87869877D01*
X177570821Y-87878569D01*
X177586897Y-87880500D01*
X177586898Y-87880500D01*
X177773103Y-87880500D01*
X177789178Y-87878569D01*
X177861564Y-87869877D01*
X177861565Y-87869876D01*
X177865215Y-87869438D01*
X177894785Y-87869438D01*
X177898434Y-87869876D01*
X177898436Y-87869877D01*
X177970821Y-87878569D01*
X177986897Y-87880500D01*
X177986898Y-87880500D01*
X178173103Y-87880500D01*
X178189178Y-87878569D01*
X178261564Y-87869877D01*
X178261565Y-87869876D01*
X178265215Y-87869438D01*
X178294785Y-87869438D01*
X178298434Y-87869876D01*
X178298436Y-87869877D01*
X178370821Y-87878569D01*
X178386897Y-87880500D01*
X178386898Y-87880500D01*
X178573103Y-87880500D01*
X178589178Y-87878569D01*
X178661564Y-87869877D01*
X178661565Y-87869876D01*
X178665215Y-87869438D01*
X178694785Y-87869438D01*
X178698434Y-87869876D01*
X178698436Y-87869877D01*
X178770821Y-87878569D01*
X178786897Y-87880500D01*
X178786898Y-87880500D01*
X178973103Y-87880500D01*
X178989178Y-87878569D01*
X179061564Y-87869877D01*
X179061565Y-87869876D01*
X179065215Y-87869438D01*
X179094785Y-87869438D01*
X179098434Y-87869876D01*
X179098436Y-87869877D01*
X179170821Y-87878569D01*
X179186897Y-87880500D01*
X179186898Y-87880500D01*
X179373103Y-87880500D01*
X179389178Y-87878569D01*
X179461564Y-87869877D01*
X179461565Y-87869876D01*
X179465215Y-87869438D01*
X179494785Y-87869438D01*
X179498434Y-87869876D01*
X179498436Y-87869877D01*
X179570821Y-87878569D01*
X179586897Y-87880500D01*
X179586898Y-87880500D01*
X179773103Y-87880500D01*
X179789178Y-87878569D01*
X179861564Y-87869877D01*
X179861565Y-87869876D01*
X179865215Y-87869438D01*
X179894785Y-87869438D01*
X179898434Y-87869876D01*
X179898436Y-87869877D01*
X179970821Y-87878569D01*
X179986897Y-87880500D01*
X179986898Y-87880500D01*
X180173103Y-87880500D01*
X180189178Y-87878569D01*
X180261564Y-87869877D01*
X180261565Y-87869876D01*
X180265215Y-87869438D01*
X180294785Y-87869438D01*
X180298434Y-87869876D01*
X180298436Y-87869877D01*
X180370821Y-87878569D01*
X180386897Y-87880500D01*
X180386898Y-87880500D01*
X180573103Y-87880500D01*
X180589178Y-87878569D01*
X180661564Y-87869877D01*
X180661565Y-87869876D01*
X180665215Y-87869438D01*
X180694785Y-87869438D01*
X180698434Y-87869876D01*
X180698436Y-87869877D01*
X180770821Y-87878569D01*
X180786897Y-87880500D01*
X180786898Y-87880500D01*
X180973103Y-87880500D01*
X180989178Y-87878569D01*
X181061564Y-87869877D01*
X181061565Y-87869876D01*
X181065215Y-87869438D01*
X181094785Y-87869438D01*
X181098434Y-87869876D01*
X181098436Y-87869877D01*
X181170821Y-87878569D01*
X181186897Y-87880500D01*
X181186898Y-87880500D01*
X181373103Y-87880500D01*
X181389178Y-87878569D01*
X181461564Y-87869877D01*
X181461565Y-87869876D01*
X181465215Y-87869438D01*
X181494785Y-87869438D01*
X181498434Y-87869876D01*
X181498436Y-87869877D01*
X181570821Y-87878569D01*
X181586897Y-87880500D01*
X181586898Y-87880500D01*
X181773101Y-87880500D01*
X181773102Y-87880500D01*
X181850949Y-87871151D01*
X181919854Y-87882701D01*
X181971579Y-87929672D01*
X181989698Y-87997152D01*
X181988848Y-88009049D01*
X181988848Y-88009052D01*
X181979500Y-88086898D01*
X181979500Y-88273102D01*
X181985222Y-88320754D01*
X181990561Y-88365217D01*
X181990561Y-88394783D01*
X181986142Y-88431585D01*
X181979500Y-88486898D01*
X181979500Y-88673102D01*
X181985222Y-88720754D01*
X181990561Y-88765217D01*
X181990561Y-88794783D01*
X181984718Y-88843440D01*
X181979500Y-88886898D01*
X181979500Y-89073102D01*
X181985222Y-89120754D01*
X181990561Y-89165217D01*
X181990561Y-89194783D01*
X181984718Y-89243440D01*
X181979500Y-89286898D01*
X181979500Y-89473102D01*
X181985222Y-89520754D01*
X181990561Y-89565217D01*
X181990561Y-89594783D01*
X181984718Y-89643440D01*
X181979500Y-89686898D01*
X181979500Y-89873102D01*
X181985222Y-89920754D01*
X181990561Y-89965217D01*
X181990561Y-89994783D01*
X181984718Y-90043440D01*
X181979500Y-90086898D01*
X181979500Y-90273102D01*
X181981703Y-90291447D01*
X181990561Y-90365217D01*
X181990561Y-90394783D01*
X181984718Y-90443440D01*
X181979500Y-90486898D01*
X181979500Y-90673102D01*
X181985222Y-90720754D01*
X181990561Y-90765217D01*
X181990561Y-90794783D01*
X181984718Y-90843440D01*
X181979500Y-90886898D01*
X181979500Y-91073102D01*
X181981399Y-91088913D01*
X181990561Y-91165217D01*
X181990561Y-91194783D01*
X181984718Y-91243440D01*
X181979500Y-91286898D01*
X181979500Y-91473102D01*
X181985198Y-91520550D01*
X181990561Y-91565217D01*
X181990561Y-91594783D01*
X181986370Y-91629685D01*
X181979500Y-91686898D01*
X181979500Y-91873102D01*
X181981049Y-91886000D01*
X181990561Y-91965217D01*
X181990561Y-91994783D01*
X181985192Y-92039500D01*
X181979500Y-92086898D01*
X181979500Y-92273102D01*
X181982627Y-92299142D01*
X181990561Y-92365217D01*
X181990561Y-92394783D01*
X181987473Y-92420500D01*
X181979500Y-92486898D01*
X181979500Y-92673102D01*
X181986146Y-92728451D01*
X181988848Y-92750949D01*
X181977296Y-92819857D01*
X181930323Y-92871581D01*
X181862843Y-92889698D01*
X181850949Y-92888848D01*
X181825426Y-92885783D01*
X181773102Y-92879500D01*
X181586898Y-92879500D01*
X181543440Y-92884718D01*
X181494783Y-92890561D01*
X181465217Y-92890561D01*
X181416559Y-92884718D01*
X181373102Y-92879500D01*
X181186898Y-92879500D01*
X181143440Y-92884718D01*
X181094783Y-92890561D01*
X181065217Y-92890561D01*
X181016559Y-92884718D01*
X180973102Y-92879500D01*
X180786898Y-92879500D01*
X180743440Y-92884718D01*
X180694783Y-92890561D01*
X180665217Y-92890561D01*
X180616559Y-92884718D01*
X180573102Y-92879500D01*
X180386898Y-92879500D01*
X180343440Y-92884718D01*
X180294783Y-92890561D01*
X180265217Y-92890561D01*
X180216559Y-92884718D01*
X180173102Y-92879500D01*
X179986898Y-92879500D01*
X179943440Y-92884718D01*
X179894783Y-92890561D01*
X179865217Y-92890561D01*
X179816559Y-92884718D01*
X179773102Y-92879500D01*
X179586898Y-92879500D01*
X179543440Y-92884718D01*
X179494783Y-92890561D01*
X179465217Y-92890561D01*
X179416559Y-92884718D01*
X179373102Y-92879500D01*
X179186898Y-92879500D01*
X179143440Y-92884718D01*
X179094783Y-92890561D01*
X179065217Y-92890561D01*
X179016559Y-92884718D01*
X178973102Y-92879500D01*
X178786898Y-92879500D01*
X178747853Y-92884188D01*
X178698438Y-92890122D01*
X178557656Y-92945639D01*
X178554924Y-92947712D01*
X178551981Y-92948830D01*
X178550266Y-92949795D01*
X178550121Y-92949537D01*
X178489612Y-92972534D01*
X178421248Y-92958105D01*
X178405076Y-92947712D01*
X178402343Y-92945639D01*
X178279999Y-92897393D01*
X178261564Y-92890123D01*
X178261563Y-92890122D01*
X178261561Y-92890122D01*
X178215926Y-92884642D01*
X178173102Y-92879500D01*
X177986898Y-92879500D01*
X177943440Y-92884718D01*
X177894783Y-92890561D01*
X177865217Y-92890561D01*
X177816559Y-92884718D01*
X177773102Y-92879500D01*
X177586898Y-92879500D01*
X177543440Y-92884718D01*
X177494783Y-92890561D01*
X177465217Y-92890561D01*
X177416559Y-92884718D01*
X177373102Y-92879500D01*
X177186898Y-92879500D01*
X177145660Y-92884452D01*
X177109049Y-92888848D01*
X177040141Y-92877296D01*
X176988417Y-92830323D01*
X176970300Y-92762843D01*
X176971149Y-92750967D01*
X176980500Y-92673102D01*
X176980500Y-92486898D01*
X176969877Y-92398436D01*
X176969876Y-92398434D01*
X176969438Y-92394785D01*
X176969438Y-92365215D01*
X176969876Y-92361565D01*
X176969877Y-92361564D01*
X176980500Y-92273102D01*
X176980500Y-92086898D01*
X176969877Y-91998436D01*
X176969876Y-91998434D01*
X176969438Y-91994785D01*
X176969438Y-91965215D01*
X176969876Y-91961565D01*
X176969877Y-91961564D01*
X176980500Y-91873102D01*
X176980500Y-91686898D01*
X176969877Y-91598436D01*
X176969876Y-91598434D01*
X176969438Y-91594785D01*
X176969438Y-91565215D01*
X176969876Y-91561565D01*
X176969877Y-91561564D01*
X176980500Y-91473102D01*
X176980500Y-91286898D01*
X176969877Y-91198436D01*
X176969876Y-91198434D01*
X176969438Y-91194785D01*
X176969438Y-91165215D01*
X176969876Y-91161565D01*
X176969877Y-91161564D01*
X176980500Y-91073102D01*
X176980500Y-90886898D01*
X176969877Y-90798436D01*
X176969876Y-90798434D01*
X176969438Y-90794785D01*
X176969438Y-90765215D01*
X176969876Y-90761565D01*
X176969877Y-90761564D01*
X176980500Y-90673102D01*
X176980500Y-90486898D01*
X176969877Y-90398436D01*
X176969876Y-90398434D01*
X176969438Y-90394785D01*
X176969438Y-90365215D01*
X176969876Y-90361565D01*
X176969877Y-90361564D01*
X176980500Y-90273102D01*
X176980500Y-90086898D01*
X176969877Y-89998436D01*
X176969876Y-89998434D01*
X176969438Y-89994785D01*
X176969438Y-89965215D01*
X176969876Y-89961565D01*
X176969877Y-89961564D01*
X176980500Y-89873102D01*
X176980500Y-89686898D01*
X176969877Y-89598436D01*
X176969876Y-89598434D01*
X176969438Y-89594785D01*
X176969438Y-89565215D01*
X176969876Y-89561565D01*
X176969877Y-89561564D01*
X176980500Y-89473102D01*
X176980500Y-89286898D01*
X176969877Y-89198436D01*
X176969876Y-89198434D01*
X176969438Y-89194785D01*
X176969438Y-89165215D01*
X176969876Y-89161565D01*
X176969877Y-89161564D01*
X176980500Y-89073102D01*
X176980500Y-88886898D01*
X176969877Y-88798436D01*
X176969876Y-88798434D01*
X176969438Y-88794785D01*
X176969438Y-88765215D01*
X176969876Y-88761565D01*
X176969877Y-88761564D01*
X176980500Y-88673102D01*
X176980500Y-88486898D01*
X176969877Y-88398436D01*
X176969876Y-88398434D01*
X176969438Y-88394785D01*
X176969438Y-88365215D01*
X176969876Y-88361565D01*
X176969877Y-88361564D01*
X176980500Y-88273102D01*
X176980500Y-88086898D01*
X176971151Y-88009049D01*
X176982701Y-87940143D01*
X177029673Y-87888418D01*
X177097152Y-87870300D01*
X177109034Y-87871149D01*
X177186898Y-87880500D01*
X177186899Y-87880500D01*
X177373103Y-87880500D01*
X177389178Y-87878569D01*
X177461564Y-87869877D01*
X177461565Y-87869876D01*
X177465215Y-87869438D01*
X177494785Y-87869438D01*
X177498434Y-87869876D01*
G37*
%TD.AperFunction*%
%TA.AperFunction,Conductor*%
G36*
X166359842Y-87030185D02*
G01*
X166380484Y-87046819D01*
X170556249Y-91222584D01*
X170560587Y-91230529D01*
X170567835Y-91235955D01*
X170577069Y-91260714D01*
X170589734Y-91283907D01*
X170589088Y-91292936D01*
X170592252Y-91301419D01*
X170586635Y-91327239D01*
X170584750Y-91353599D01*
X170578931Y-91362652D01*
X170577400Y-91369692D01*
X170556249Y-91397946D01*
X170530618Y-91423577D01*
X170469295Y-91457062D01*
X170455994Y-91457441D01*
X170450000Y-91462561D01*
X170450000Y-91511645D01*
X170432734Y-91574763D01*
X170427507Y-91583600D01*
X170427504Y-91583608D01*
X170382357Y-91739002D01*
X170382356Y-91739008D01*
X170379500Y-91775302D01*
X170379500Y-91886000D01*
X170359815Y-91953039D01*
X170307011Y-91998794D01*
X170281719Y-92007196D01*
X170145357Y-92036696D01*
X170145273Y-92036689D01*
X170119138Y-92039500D01*
X169424614Y-92039500D01*
X169392520Y-92035275D01*
X169300057Y-92010499D01*
X169141943Y-92010499D01*
X169134347Y-92010499D01*
X169134331Y-92010500D01*
X153711097Y-92010500D01*
X153681656Y-92001855D01*
X153651670Y-91995332D01*
X153646654Y-91991577D01*
X153644058Y-91990815D01*
X153623416Y-91974181D01*
X153409235Y-91760000D01*
X169677809Y-91760000D01*
X169950000Y-91760000D01*
X169950000Y-91462561D01*
X169949999Y-91462561D01*
X169937980Y-91464465D01*
X169937977Y-91464466D01*
X169827908Y-91520550D01*
X169827901Y-91520555D01*
X169740555Y-91607901D01*
X169740551Y-91607906D01*
X169684463Y-91717984D01*
X169677809Y-91760000D01*
X153409235Y-91760000D01*
X151083757Y-89434522D01*
X151050272Y-89373199D01*
X151053507Y-89308523D01*
X151067246Y-89266243D01*
X151100500Y-89056287D01*
X151100500Y-88843713D01*
X151067246Y-88633757D01*
X151001557Y-88431588D01*
X150905051Y-88242184D01*
X150905049Y-88242181D01*
X150905048Y-88242179D01*
X150780109Y-88070213D01*
X150629786Y-87919890D01*
X150457820Y-87794951D01*
X150457115Y-87794591D01*
X150449054Y-87790485D01*
X150398259Y-87742512D01*
X150381463Y-87674692D01*
X150403999Y-87608556D01*
X150449054Y-87569515D01*
X150457816Y-87565051D01*
X150537702Y-87507011D01*
X150629786Y-87440109D01*
X150629788Y-87440106D01*
X150629792Y-87440104D01*
X150780104Y-87289792D01*
X150780106Y-87289788D01*
X150780109Y-87289786D01*
X150868761Y-87167765D01*
X150905051Y-87117816D01*
X150909026Y-87110015D01*
X150925235Y-87078205D01*
X150973209Y-87027409D01*
X151035719Y-87010500D01*
X166292803Y-87010500D01*
X166359842Y-87030185D01*
G37*
%TD.AperFunction*%
%TA.AperFunction,Conductor*%
G36*
X175736942Y-76090185D02*
G01*
X175757584Y-76106819D01*
X176703083Y-77052318D01*
X176736568Y-77113641D01*
X176731584Y-77183333D01*
X176703083Y-77227680D01*
X175161286Y-78769478D01*
X175049481Y-78881282D01*
X175049475Y-78881290D01*
X175002093Y-78963360D01*
X175002093Y-78963361D01*
X174970423Y-79018215D01*
X174929499Y-79170943D01*
X174929499Y-79170945D01*
X174929499Y-79339046D01*
X174929500Y-79339059D01*
X174929500Y-79503330D01*
X174929499Y-79503348D01*
X174929499Y-79669054D01*
X174929498Y-79669054D01*
X174970423Y-79821785D01*
X174999358Y-79871900D01*
X174999359Y-79871904D01*
X174999360Y-79871904D01*
X175048729Y-79957416D01*
X175049479Y-79958714D01*
X175049481Y-79958717D01*
X175168349Y-80077585D01*
X175168355Y-80077590D01*
X176473181Y-81382416D01*
X176506666Y-81443739D01*
X176509500Y-81470097D01*
X176509500Y-81584697D01*
X176512356Y-81620991D01*
X176512357Y-81620997D01*
X176557504Y-81776390D01*
X176557505Y-81776393D01*
X176639881Y-81915684D01*
X176639887Y-81915692D01*
X176683180Y-81958984D01*
X176697884Y-81985912D01*
X176714477Y-82011731D01*
X176715368Y-82017930D01*
X176716666Y-82020307D01*
X176719500Y-82046666D01*
X176719500Y-82110903D01*
X176699815Y-82177942D01*
X176647011Y-82223697D01*
X176577853Y-82233641D01*
X176514297Y-82204616D01*
X176507819Y-82198584D01*
X176196590Y-81887355D01*
X176196588Y-81887352D01*
X176077717Y-81768481D01*
X176077712Y-81768477D01*
X175963187Y-81702357D01*
X175940785Y-81689423D01*
X175918878Y-81683553D01*
X175788057Y-81648499D01*
X175629943Y-81648499D01*
X175622347Y-81648499D01*
X175622331Y-81648500D01*
X173799097Y-81648500D01*
X173732058Y-81628815D01*
X173711416Y-81612181D01*
X173204574Y-81105339D01*
X173171089Y-81044016D01*
X173170638Y-81041849D01*
X173148369Y-80929901D01*
X173139737Y-80886503D01*
X173116333Y-80830000D01*
X173079397Y-80740827D01*
X173079390Y-80740814D01*
X172991789Y-80609711D01*
X172991786Y-80609707D01*
X172880292Y-80498213D01*
X172880288Y-80498210D01*
X172749185Y-80410609D01*
X172749172Y-80410602D01*
X172603501Y-80350264D01*
X172603489Y-80350261D01*
X172448845Y-80319500D01*
X172448842Y-80319500D01*
X172291158Y-80319500D01*
X172291155Y-80319500D01*
X172136510Y-80350261D01*
X172136498Y-80350264D01*
X171990827Y-80410602D01*
X171990814Y-80410609D01*
X171859711Y-80498210D01*
X171859707Y-80498213D01*
X171748213Y-80609707D01*
X171748210Y-80609711D01*
X171660609Y-80740814D01*
X171660602Y-80740827D01*
X171600264Y-80886498D01*
X171600261Y-80886510D01*
X171569500Y-81041153D01*
X171569500Y-81108593D01*
X171549815Y-81175632D01*
X171497011Y-81221387D01*
X171492953Y-81223154D01*
X171450824Y-81240604D01*
X171450814Y-81240609D01*
X171319711Y-81328210D01*
X171319707Y-81328213D01*
X171208213Y-81439707D01*
X171208210Y-81439711D01*
X171120609Y-81570814D01*
X171120602Y-81570827D01*
X171060264Y-81716498D01*
X171060261Y-81716510D01*
X171029500Y-81871153D01*
X171029500Y-82028846D01*
X171060261Y-82183489D01*
X171060264Y-82183501D01*
X171120602Y-82329172D01*
X171120612Y-82329190D01*
X171187952Y-82429972D01*
X171208830Y-82496649D01*
X171190345Y-82564029D01*
X171138366Y-82610719D01*
X171132304Y-82613423D01*
X171090820Y-82630606D01*
X171090814Y-82630609D01*
X170959711Y-82718210D01*
X170959707Y-82718213D01*
X170848213Y-82829707D01*
X170848210Y-82829711D01*
X170760609Y-82960814D01*
X170760602Y-82960827D01*
X170700264Y-83106498D01*
X170700261Y-83106510D01*
X170669500Y-83261153D01*
X170669500Y-83418846D01*
X170700261Y-83573489D01*
X170700264Y-83573501D01*
X170760602Y-83719172D01*
X170760609Y-83719185D01*
X170848210Y-83850288D01*
X170848213Y-83850292D01*
X170959707Y-83961786D01*
X170959711Y-83961789D01*
X171090814Y-84049390D01*
X171090827Y-84049397D01*
X171196533Y-84093181D01*
X171236503Y-84109737D01*
X171335858Y-84129500D01*
X171391153Y-84140499D01*
X171391156Y-84140500D01*
X171391158Y-84140500D01*
X171548843Y-84140500D01*
X171575842Y-84135129D01*
X171672487Y-84115905D01*
X171742076Y-84122132D01*
X171797254Y-84164994D01*
X171818294Y-84213329D01*
X171830262Y-84273492D01*
X171830264Y-84273501D01*
X171890602Y-84419172D01*
X171890609Y-84419185D01*
X171978210Y-84550288D01*
X171978213Y-84550292D01*
X172089707Y-84661786D01*
X172089711Y-84661789D01*
X172220814Y-84749390D01*
X172220826Y-84749397D01*
X172308354Y-84785651D01*
X172362758Y-84829491D01*
X172382519Y-84876020D01*
X172390261Y-84914941D01*
X172390263Y-84914949D01*
X172450602Y-85060622D01*
X172450609Y-85060635D01*
X172538210Y-85191738D01*
X172538213Y-85191742D01*
X172570400Y-85223929D01*
X172591780Y-85252605D01*
X172598721Y-85265435D01*
X172600423Y-85271785D01*
X172627123Y-85318030D01*
X172662841Y-85379896D01*
X172679479Y-85408714D01*
X172679481Y-85408717D01*
X172798349Y-85527585D01*
X172798355Y-85527590D01*
X173501282Y-86230518D01*
X173501284Y-86230520D01*
X173515619Y-86238796D01*
X173563835Y-86289363D01*
X173577059Y-86357970D01*
X173569891Y-86389279D01*
X173512271Y-86544740D01*
X173505857Y-86553343D01*
X173502734Y-86564763D01*
X173497507Y-86573600D01*
X173497504Y-86573608D01*
X173452357Y-86729002D01*
X173452356Y-86729008D01*
X173449500Y-86765302D01*
X173449500Y-86876000D01*
X173429815Y-86943039D01*
X173404857Y-86971281D01*
X173225357Y-87120781D01*
X173210086Y-87127397D01*
X173197511Y-87138294D01*
X173172258Y-87143787D01*
X173161246Y-87148559D01*
X173155015Y-87147538D01*
X173146000Y-87149500D01*
X172632547Y-87149500D01*
X172565508Y-87129815D01*
X172544866Y-87113181D01*
X172181685Y-86750000D01*
X172747809Y-86750000D01*
X173020000Y-86750000D01*
X173020000Y-86452561D01*
X173019999Y-86452561D01*
X173007980Y-86454465D01*
X173007977Y-86454466D01*
X172897908Y-86510550D01*
X172897901Y-86510555D01*
X172810555Y-86597901D01*
X172810551Y-86597906D01*
X172754463Y-86707984D01*
X172747809Y-86750000D01*
X172181685Y-86750000D01*
X161913866Y-76482181D01*
X161880381Y-76420858D01*
X161885365Y-76351166D01*
X161927237Y-76295233D01*
X161992701Y-76270816D01*
X162001547Y-76270500D01*
X162098844Y-76270500D01*
X162098845Y-76270499D01*
X162253497Y-76239737D01*
X162399179Y-76179394D01*
X162399185Y-76179390D01*
X162530875Y-76091398D01*
X162597553Y-76070520D01*
X162599766Y-76070500D01*
X175669903Y-76070500D01*
X175736942Y-76090185D01*
G37*
%TD.AperFunction*%
%TA.AperFunction,Conductor*%
G36*
X159996942Y-79370185D02*
G01*
X160017584Y-79386819D01*
X163568584Y-82937819D01*
X163602069Y-82999142D01*
X163597085Y-83068834D01*
X163555213Y-83124767D01*
X163489749Y-83149184D01*
X163480903Y-83149500D01*
X150959017Y-83149500D01*
X150891978Y-83129815D01*
X150858700Y-83098387D01*
X150780104Y-82990208D01*
X150629792Y-82839896D01*
X150629786Y-82839890D01*
X150457820Y-82714951D01*
X150268414Y-82618444D01*
X150268413Y-82618443D01*
X150268412Y-82618443D01*
X150169285Y-82586234D01*
X150111610Y-82546797D01*
X150084412Y-82482439D01*
X150096327Y-82413592D01*
X150143571Y-82362117D01*
X150169296Y-82350370D01*
X150172256Y-82349408D01*
X150326525Y-82270803D01*
X150332736Y-82266289D01*
X150332737Y-82266289D01*
X149879410Y-81812962D01*
X149942993Y-81795925D01*
X150057007Y-81730099D01*
X150150099Y-81637007D01*
X150215925Y-81522993D01*
X150232962Y-81459410D01*
X150686289Y-81912737D01*
X150686289Y-81912736D01*
X150690803Y-81906525D01*
X150769408Y-81752257D01*
X150822914Y-81587584D01*
X150850000Y-81416571D01*
X150850000Y-81243428D01*
X150822914Y-81072415D01*
X150769408Y-80907742D01*
X150690801Y-80753471D01*
X150686290Y-80747262D01*
X150686289Y-80747261D01*
X150232962Y-81200589D01*
X150215925Y-81137007D01*
X150150099Y-81022993D01*
X150057007Y-80929901D01*
X149942993Y-80864075D01*
X149879409Y-80847037D01*
X150332737Y-80393709D01*
X150326525Y-80389196D01*
X150172258Y-80310592D01*
X150169282Y-80309625D01*
X150168296Y-80308951D01*
X150167760Y-80308729D01*
X150167806Y-80308616D01*
X150111608Y-80270185D01*
X150084412Y-80205826D01*
X150096328Y-80136980D01*
X150143574Y-80085506D01*
X150169280Y-80073766D01*
X150268412Y-80041557D01*
X150457816Y-79945051D01*
X150513681Y-79904463D01*
X150629786Y-79820109D01*
X150629788Y-79820106D01*
X150629792Y-79820104D01*
X150780104Y-79669792D01*
X150780106Y-79669788D01*
X150780109Y-79669786D01*
X150838661Y-79589193D01*
X150905051Y-79497816D01*
X150905349Y-79497230D01*
X150925235Y-79458205D01*
X150973209Y-79407409D01*
X151035719Y-79390500D01*
X155123331Y-79390500D01*
X155123347Y-79390501D01*
X155130943Y-79390501D01*
X155289055Y-79390501D01*
X155289057Y-79390501D01*
X155422572Y-79354724D01*
X155454666Y-79350500D01*
X159929903Y-79350500D01*
X159996942Y-79370185D01*
G37*
%TD.AperFunction*%
%TA.AperFunction,Conductor*%
G36*
X181265703Y-77415126D02*
G01*
X181272181Y-77421158D01*
X181983181Y-78132158D01*
X182016666Y-78193481D01*
X182019500Y-78219839D01*
X182019500Y-82328247D01*
X182016529Y-82338364D01*
X182017779Y-82348833D01*
X182006855Y-82371309D01*
X181999815Y-82395286D01*
X181991847Y-82402190D01*
X181987238Y-82411674D01*
X181965894Y-82424677D01*
X181947011Y-82441041D01*
X181936576Y-82442541D01*
X181927571Y-82448028D01*
X181902587Y-82447428D01*
X181877853Y-82450985D01*
X181868261Y-82446604D01*
X181857722Y-82446352D01*
X181837030Y-82432342D01*
X181814297Y-82421960D01*
X181807063Y-82412051D01*
X181799867Y-82407179D01*
X181790305Y-82389096D01*
X181781503Y-82377038D01*
X181778529Y-82370090D01*
X181772869Y-82350607D01*
X181763173Y-82334213D01*
X181760003Y-82326805D01*
X181757413Y-82305113D01*
X181750000Y-82278014D01*
X181750000Y-82017809D01*
X181707984Y-82024463D01*
X181707980Y-82024464D01*
X181631100Y-82063637D01*
X181562431Y-82076533D01*
X181511685Y-82059884D01*
X181439394Y-82017131D01*
X181439388Y-82017129D01*
X181285208Y-81972335D01*
X181285202Y-81972334D01*
X181249188Y-81969500D01*
X181249181Y-81969500D01*
X181184500Y-81969500D01*
X181117461Y-81949815D01*
X181071706Y-81897011D01*
X181060500Y-81845500D01*
X181060500Y-77508839D01*
X181080185Y-77441800D01*
X181132989Y-77396045D01*
X181202147Y-77386101D01*
X181265703Y-77415126D01*
G37*
%TD.AperFunction*%
%TA.AperFunction,Conductor*%
G36*
X177577273Y-78210185D02*
G01*
X177579125Y-78211398D01*
X177710814Y-78299390D01*
X177710827Y-78299397D01*
X177856498Y-78359735D01*
X177856503Y-78359737D01*
X178011153Y-78390499D01*
X178011156Y-78390500D01*
X178011158Y-78390500D01*
X178168844Y-78390500D01*
X178168845Y-78390499D01*
X178323497Y-78359737D01*
X178469179Y-78299394D01*
X178571788Y-78230832D01*
X178638461Y-78209956D01*
X178705842Y-78228440D01*
X178752532Y-78280418D01*
X178764676Y-78333915D01*
X178764678Y-78351800D01*
X178797003Y-78514188D01*
X178860390Y-78667153D01*
X178952405Y-78804817D01*
X179069503Y-78921874D01*
X179069506Y-78921877D01*
X179207188Y-79013839D01*
X179207190Y-79013840D01*
X179207192Y-79013841D01*
X179322933Y-79061758D01*
X179377343Y-79105589D01*
X179399420Y-79171879D01*
X179399500Y-79176327D01*
X179399500Y-80316000D01*
X179386471Y-80371331D01*
X179296971Y-80550831D01*
X179292263Y-80555903D01*
X179290315Y-80562539D01*
X179268808Y-80581174D01*
X179249440Y-80602043D01*
X179242738Y-80603764D01*
X179237511Y-80608294D01*
X179186000Y-80619500D01*
X179075302Y-80619500D01*
X179039008Y-80622356D01*
X179039002Y-80622357D01*
X178883608Y-80667504D01*
X178883593Y-80667510D01*
X178881562Y-80668712D01*
X178879763Y-80669167D01*
X178876443Y-80670605D01*
X178876211Y-80670068D01*
X178813836Y-80685887D01*
X178755334Y-80668706D01*
X178736395Y-80657506D01*
X178736390Y-80657504D01*
X178580997Y-80612357D01*
X178580991Y-80612356D01*
X178544697Y-80609500D01*
X178544690Y-80609500D01*
X178075310Y-80609500D01*
X178075302Y-80609500D01*
X178039008Y-80612356D01*
X178039002Y-80612357D01*
X177883610Y-80657504D01*
X177876444Y-80660605D01*
X177875553Y-80658547D01*
X177818842Y-80672931D01*
X177760333Y-80655749D01*
X177746393Y-80647505D01*
X177746390Y-80647504D01*
X177590997Y-80602357D01*
X177590991Y-80602356D01*
X177554697Y-80599500D01*
X177554690Y-80599500D01*
X177444000Y-80599500D01*
X177376961Y-80579815D01*
X177331206Y-80527011D01*
X177320000Y-80475500D01*
X177320000Y-80420000D01*
X177260597Y-80420000D01*
X177231156Y-80411355D01*
X177201170Y-80404832D01*
X177196154Y-80401077D01*
X177193558Y-80400315D01*
X177172916Y-80383681D01*
X177106319Y-80317084D01*
X177072834Y-80255761D01*
X177070000Y-80229403D01*
X177070000Y-80170000D01*
X177570000Y-80170000D01*
X177948638Y-80170000D01*
X177982694Y-80180000D01*
X178060000Y-80180000D01*
X178560000Y-80180000D01*
X178938638Y-80180000D01*
X178972694Y-80190000D01*
X179060000Y-80190000D01*
X179060000Y-79917809D01*
X179017984Y-79924463D01*
X178907906Y-79980551D01*
X178902677Y-79985780D01*
X178841352Y-80019262D01*
X178771661Y-80014275D01*
X178727316Y-79985774D01*
X178712097Y-79970554D01*
X178712093Y-79970551D01*
X178602018Y-79914465D01*
X178560000Y-79907809D01*
X178560000Y-80180000D01*
X178060000Y-80180000D01*
X178060000Y-79907809D01*
X178059999Y-79907809D01*
X178017984Y-79914463D01*
X177907906Y-79970551D01*
X177907898Y-79970557D01*
X177907674Y-79970782D01*
X177907334Y-79970967D01*
X177900008Y-79976290D01*
X177899319Y-79975342D01*
X177846349Y-80004263D01*
X177776657Y-79999274D01*
X177732315Y-79970774D01*
X177722093Y-79960551D01*
X177612018Y-79904465D01*
X177570000Y-79897809D01*
X177570000Y-80170000D01*
X177070000Y-80170000D01*
X177070000Y-79897809D01*
X177069999Y-79897809D01*
X177027984Y-79904463D01*
X176917904Y-79960553D01*
X176910012Y-79966287D01*
X176908417Y-79964092D01*
X176860186Y-79990419D01*
X176790495Y-79985424D01*
X176746165Y-79956930D01*
X176296916Y-79507681D01*
X176263431Y-79446358D01*
X176268415Y-79376666D01*
X176296916Y-79332319D01*
X176824419Y-78804817D01*
X177402417Y-78226819D01*
X177429344Y-78212115D01*
X177455163Y-78195523D01*
X177461363Y-78194631D01*
X177463740Y-78193334D01*
X177490098Y-78190500D01*
X177510234Y-78190500D01*
X177577273Y-78210185D01*
G37*
%TD.AperFunction*%
%TA.AperFunction,Conductor*%
G36*
X184985203Y-67472099D02*
G01*
X184991681Y-67478131D01*
X185781924Y-68268374D01*
X185781934Y-68268385D01*
X185786264Y-68272715D01*
X185786265Y-68272716D01*
X185898069Y-68384520D01*
X185966452Y-68424000D01*
X185984880Y-68434639D01*
X185984882Y-68434641D01*
X186022936Y-68456611D01*
X186035000Y-68463577D01*
X186187728Y-68504501D01*
X186187731Y-68504501D01*
X186353438Y-68504501D01*
X186353454Y-68504500D01*
X194438001Y-68504500D01*
X194505040Y-68524185D01*
X194550795Y-68576989D01*
X194562001Y-68628500D01*
X194562001Y-68746098D01*
X194568069Y-68812884D01*
X194587299Y-68874599D01*
X194588449Y-68944460D01*
X194556594Y-68999169D01*
X184342181Y-79213583D01*
X184280858Y-79247068D01*
X184211166Y-79242084D01*
X184155233Y-79200212D01*
X184130816Y-79134748D01*
X184130500Y-79125902D01*
X184130500Y-77689765D01*
X184150185Y-77622726D01*
X184151398Y-77620874D01*
X184224013Y-77512199D01*
X184239394Y-77489179D01*
X184252520Y-77457491D01*
X184267569Y-77421158D01*
X184299737Y-77343497D01*
X184330500Y-77188842D01*
X184330500Y-77031158D01*
X184330500Y-77031155D01*
X184330499Y-77031153D01*
X184314381Y-76950125D01*
X184299737Y-76876503D01*
X184276441Y-76820261D01*
X184239397Y-76730827D01*
X184239390Y-76730814D01*
X184151789Y-76599711D01*
X184151786Y-76599707D01*
X184040292Y-76488213D01*
X184040288Y-76488210D01*
X183909185Y-76400609D01*
X183909172Y-76400602D01*
X183763501Y-76340264D01*
X183763489Y-76340261D01*
X183608845Y-76309500D01*
X183608842Y-76309500D01*
X183451158Y-76309500D01*
X183451155Y-76309500D01*
X183296510Y-76340261D01*
X183296498Y-76340264D01*
X183150827Y-76400602D01*
X183150814Y-76400609D01*
X183019711Y-76488210D01*
X183019707Y-76488213D01*
X182908213Y-76599707D01*
X182908210Y-76599711D01*
X182820609Y-76730814D01*
X182820602Y-76730827D01*
X182760264Y-76876498D01*
X182760262Y-76876507D01*
X182750062Y-76927783D01*
X182717676Y-76989693D01*
X182656960Y-77024267D01*
X182587191Y-77020526D01*
X182540764Y-76991271D01*
X181894574Y-76345081D01*
X181861089Y-76283758D01*
X181860638Y-76281591D01*
X181840308Y-76179390D01*
X181829737Y-76126245D01*
X181802772Y-76061145D01*
X181769397Y-75980569D01*
X181769390Y-75980556D01*
X181681789Y-75849453D01*
X181681786Y-75849449D01*
X181570292Y-75737955D01*
X181570288Y-75737952D01*
X181439185Y-75650351D01*
X181439172Y-75650344D01*
X181293501Y-75590006D01*
X181293491Y-75590003D01*
X181160308Y-75563511D01*
X181098397Y-75531126D01*
X181063823Y-75470410D01*
X181060500Y-75441894D01*
X181060500Y-71709329D01*
X181080185Y-71642290D01*
X181132989Y-71596535D01*
X181202147Y-71586591D01*
X181238961Y-71597929D01*
X181343624Y-71649096D01*
X181390000Y-71655852D01*
X181890000Y-71655852D01*
X181936370Y-71649097D01*
X181936372Y-71649096D01*
X182051810Y-71592663D01*
X182142663Y-71501810D01*
X182197324Y-71390000D01*
X181890000Y-71390000D01*
X181890000Y-71655852D01*
X181390000Y-71655852D01*
X181390000Y-71264000D01*
X181409685Y-71196961D01*
X181462489Y-71151206D01*
X181514000Y-71140000D01*
X181640000Y-71140000D01*
X181640000Y-71014499D01*
X181642486Y-71006032D01*
X181641198Y-70997301D01*
X181652179Y-70973021D01*
X181659685Y-70947460D01*
X181666354Y-70941681D01*
X181669991Y-70933640D01*
X181692355Y-70919151D01*
X181712489Y-70901705D01*
X181722764Y-70899449D01*
X181728630Y-70895650D01*
X181762664Y-70890693D01*
X181763546Y-70890500D01*
X181763750Y-70890499D01*
X181889180Y-70890499D01*
X181895294Y-70890017D01*
X181899939Y-70890001D01*
X181899990Y-70890015D01*
X181900393Y-70890000D01*
X182197324Y-70890000D01*
X182198973Y-70887358D01*
X182188792Y-70827732D01*
X182216135Y-70763434D01*
X182224261Y-70754471D01*
X182331135Y-70647598D01*
X182412869Y-70509393D01*
X182453923Y-70368085D01*
X182457664Y-70355208D01*
X182457665Y-70355202D01*
X182460500Y-70319181D01*
X182460499Y-69920820D01*
X182457665Y-69884796D01*
X182412869Y-69730607D01*
X182381531Y-69677618D01*
X182364350Y-69609895D01*
X182386510Y-69543633D01*
X182440977Y-69499870D01*
X182488265Y-69490499D01*
X182507871Y-69490499D01*
X182507872Y-69490499D01*
X182567483Y-69484091D01*
X182702331Y-69433796D01*
X182817546Y-69347546D01*
X182903796Y-69232331D01*
X182954091Y-69097483D01*
X182960500Y-69037873D01*
X182960499Y-68388998D01*
X182963049Y-68380313D01*
X182961761Y-68371353D01*
X182972738Y-68347316D01*
X182980183Y-68321961D01*
X182987025Y-68316032D01*
X182990786Y-68307797D01*
X183013017Y-68293510D01*
X183032987Y-68276206D01*
X183043502Y-68273918D01*
X183049564Y-68270023D01*
X183084499Y-68265000D01*
X183086000Y-68265000D01*
X183153039Y-68284685D01*
X183198794Y-68337489D01*
X183210000Y-68389000D01*
X183210000Y-69240000D01*
X183284626Y-69240000D01*
X183284628Y-69239999D01*
X183357540Y-69225496D01*
X183357544Y-69225494D01*
X183440239Y-69170239D01*
X183495494Y-69087544D01*
X183495496Y-69087540D01*
X183509999Y-69014628D01*
X183510000Y-69014626D01*
X183510000Y-68681981D01*
X183529685Y-68614942D01*
X183582489Y-68569187D01*
X183651647Y-68559243D01*
X183681453Y-68567420D01*
X183780000Y-68608239D01*
X183780000Y-68066988D01*
X183789940Y-68084205D01*
X183845795Y-68140060D01*
X183914204Y-68179556D01*
X183990504Y-68200000D01*
X184069496Y-68200000D01*
X184145796Y-68179556D01*
X184214205Y-68140060D01*
X184270060Y-68084205D01*
X184280000Y-68066988D01*
X184280000Y-68608240D01*
X184385256Y-68564642D01*
X184385260Y-68564640D01*
X184508092Y-68482566D01*
X184508100Y-68482560D01*
X184612560Y-68378100D01*
X184612563Y-68378096D01*
X184694637Y-68255264D01*
X184694642Y-68255254D01*
X184751177Y-68118767D01*
X184751179Y-68118759D01*
X184779999Y-67973873D01*
X184780000Y-67973871D01*
X184780000Y-67565812D01*
X184799685Y-67498773D01*
X184852489Y-67453018D01*
X184921647Y-67443074D01*
X184985203Y-67472099D01*
G37*
%TD.AperFunction*%
%TA.AperFunction,Conductor*%
G36*
X174750722Y-62176738D02*
G01*
X174772811Y-62178318D01*
X174783594Y-62186390D01*
X174796516Y-62190185D01*
X174811015Y-62206918D01*
X174828744Y-62220190D01*
X174833451Y-62232810D01*
X174842271Y-62242989D01*
X174845422Y-62264906D01*
X174853161Y-62285654D01*
X174850298Y-62298814D01*
X174852215Y-62312147D01*
X174843015Y-62332290D01*
X174838309Y-62353927D01*
X174825040Y-62371652D01*
X174823190Y-62375703D01*
X174817158Y-62382181D01*
X174807439Y-62391899D01*
X174807436Y-62391903D01*
X174725362Y-62514735D01*
X174725357Y-62514745D01*
X174668822Y-62651232D01*
X174668820Y-62651240D01*
X174640000Y-62796126D01*
X174640000Y-62920000D01*
X175090000Y-62920000D01*
X175090000Y-63420000D01*
X174640000Y-63420000D01*
X174640000Y-63543873D01*
X174668820Y-63688759D01*
X174668822Y-63688767D01*
X174725357Y-63825254D01*
X174725362Y-63825264D01*
X174807436Y-63948096D01*
X174807439Y-63948100D01*
X174911899Y-64052560D01*
X174911907Y-64052566D01*
X175034739Y-64134640D01*
X175034743Y-64134642D01*
X175139999Y-64178240D01*
X175140000Y-64178240D01*
X175140000Y-63636988D01*
X175149940Y-63654205D01*
X175205795Y-63710060D01*
X175274204Y-63749556D01*
X175350504Y-63770000D01*
X175429496Y-63770000D01*
X175505796Y-63749556D01*
X175574205Y-63710060D01*
X175630060Y-63654205D01*
X175640000Y-63636988D01*
X175640000Y-64178240D01*
X175745256Y-64134642D01*
X175745260Y-64134640D01*
X175868092Y-64052566D01*
X175868100Y-64052560D01*
X175972560Y-63948100D01*
X175972563Y-63948096D01*
X176054637Y-63825264D01*
X176054642Y-63825254D01*
X176111177Y-63688767D01*
X176111179Y-63688759D01*
X176139999Y-63543873D01*
X176140000Y-63543871D01*
X176140000Y-63420000D01*
X175690000Y-63420000D01*
X175690000Y-62920000D01*
X176140000Y-62920000D01*
X176140000Y-62796128D01*
X176139999Y-62796126D01*
X176111179Y-62651240D01*
X176111177Y-62651232D01*
X176054642Y-62514745D01*
X176054637Y-62514735D01*
X175972563Y-62391903D01*
X175972560Y-62391899D01*
X175962842Y-62382181D01*
X175929357Y-62320858D01*
X175934341Y-62251166D01*
X175976213Y-62195233D01*
X176041677Y-62170816D01*
X176050523Y-62170500D01*
X183369477Y-62170500D01*
X183436516Y-62190185D01*
X183482271Y-62242989D01*
X183492215Y-62312147D01*
X183463190Y-62375703D01*
X183457158Y-62382181D01*
X183447439Y-62391899D01*
X183447436Y-62391903D01*
X183365362Y-62514735D01*
X183365357Y-62514745D01*
X183308822Y-62651232D01*
X183308820Y-62651240D01*
X183280000Y-62796126D01*
X183280000Y-62920000D01*
X183730000Y-62920000D01*
X183730000Y-63420000D01*
X183280000Y-63420000D01*
X183280000Y-63543873D01*
X183308820Y-63688759D01*
X183308822Y-63688767D01*
X183365357Y-63825254D01*
X183365362Y-63825264D01*
X183447436Y-63948096D01*
X183447439Y-63948100D01*
X183551899Y-64052560D01*
X183551907Y-64052566D01*
X183674739Y-64134640D01*
X183674743Y-64134642D01*
X183779999Y-64178240D01*
X183780000Y-64178240D01*
X183780000Y-63636988D01*
X183789940Y-63654205D01*
X183845795Y-63710060D01*
X183914204Y-63749556D01*
X183990504Y-63770000D01*
X184069496Y-63770000D01*
X184145796Y-63749556D01*
X184214205Y-63710060D01*
X184270060Y-63654205D01*
X184280000Y-63636988D01*
X184280000Y-64178240D01*
X184385256Y-64134642D01*
X184385260Y-64134640D01*
X184508092Y-64052566D01*
X184508100Y-64052560D01*
X184612560Y-63948100D01*
X184612563Y-63948096D01*
X184694637Y-63825264D01*
X184694642Y-63825254D01*
X184751177Y-63688767D01*
X184751179Y-63688759D01*
X184779999Y-63543873D01*
X184780000Y-63543871D01*
X184780000Y-63420000D01*
X184330000Y-63420000D01*
X184330000Y-62920000D01*
X184780000Y-62920000D01*
X184780000Y-62796128D01*
X184779999Y-62796126D01*
X184751179Y-62651240D01*
X184751177Y-62651232D01*
X184694642Y-62514745D01*
X184694637Y-62514735D01*
X184612563Y-62391903D01*
X184612560Y-62391899D01*
X184602842Y-62382181D01*
X184569357Y-62320858D01*
X184574341Y-62251166D01*
X184616213Y-62195233D01*
X184681677Y-62170816D01*
X184690523Y-62170500D01*
X209235500Y-62170500D01*
X209302539Y-62190185D01*
X209348294Y-62242989D01*
X209359500Y-62294500D01*
X209359500Y-70460959D01*
X209339815Y-70527998D01*
X209287011Y-70573753D01*
X209217853Y-70583697D01*
X209154297Y-70554672D01*
X209147819Y-70548640D01*
X206377174Y-67777996D01*
X206343689Y-67716673D01*
X206348673Y-67646981D01*
X206350279Y-67642899D01*
X206399737Y-67523497D01*
X206430500Y-67368842D01*
X206430500Y-67211158D01*
X206430500Y-67211155D01*
X206430499Y-67211153D01*
X206414612Y-67131284D01*
X206399737Y-67056503D01*
X206394521Y-67043910D01*
X206339397Y-66910827D01*
X206339390Y-66910814D01*
X206251789Y-66779711D01*
X206251786Y-66779707D01*
X206140292Y-66668213D01*
X206140287Y-66668209D01*
X206134645Y-66664439D01*
X206089842Y-66610825D01*
X206081136Y-66541500D01*
X206100435Y-66492450D01*
X206149394Y-66419179D01*
X206209737Y-66273497D01*
X206240500Y-66118842D01*
X206240500Y-65961158D01*
X206240500Y-65961155D01*
X206240499Y-65961153D01*
X206228966Y-65903173D01*
X206209737Y-65806503D01*
X206188864Y-65756111D01*
X206149397Y-65660827D01*
X206149390Y-65660814D01*
X206061789Y-65529711D01*
X206061786Y-65529707D01*
X205950292Y-65418213D01*
X205950288Y-65418210D01*
X205819185Y-65330609D01*
X205819172Y-65330602D01*
X205673501Y-65270264D01*
X205673489Y-65270261D01*
X205518845Y-65239500D01*
X205518842Y-65239500D01*
X205361158Y-65239500D01*
X205361155Y-65239500D01*
X205206510Y-65270261D01*
X205206498Y-65270264D01*
X205060827Y-65330602D01*
X205060820Y-65330606D01*
X205031928Y-65349911D01*
X205003955Y-65368602D01*
X204937279Y-65389480D01*
X204935065Y-65389500D01*
X204250986Y-65389500D01*
X204226223Y-65382228D01*
X204200636Y-65378818D01*
X204190200Y-65371651D01*
X204183947Y-65369815D01*
X204170751Y-65360043D01*
X204166891Y-65356767D01*
X204111888Y-65301764D01*
X204077794Y-65281153D01*
X204070216Y-65274722D01*
X204056264Y-65253496D01*
X204039113Y-65234766D01*
X204037398Y-65224793D01*
X204031839Y-65216335D01*
X204031577Y-65190936D01*
X204027275Y-65165907D01*
X204031187Y-65152952D01*
X204031121Y-65146469D01*
X204035020Y-65140262D01*
X204039967Y-65123883D01*
X204097201Y-65011556D01*
X204097202Y-65011554D01*
X204103784Y-64970000D01*
X201996216Y-64970000D01*
X202002797Y-65011554D01*
X202060033Y-65123885D01*
X202072929Y-65192555D01*
X202046652Y-65257295D01*
X202013699Y-65286296D01*
X201988111Y-65301764D01*
X201988107Y-65301767D01*
X201874266Y-65415608D01*
X201790969Y-65553397D01*
X201743069Y-65707116D01*
X201737000Y-65773911D01*
X201737000Y-66206098D01*
X201743068Y-66272882D01*
X201743071Y-66272893D01*
X201790967Y-66426599D01*
X201872125Y-66560850D01*
X201889961Y-66628405D01*
X201872125Y-66689150D01*
X201790969Y-66823397D01*
X201743069Y-66977116D01*
X201738213Y-67030557D01*
X201737000Y-67043909D01*
X201737000Y-67173365D01*
X201737001Y-67179499D01*
X201717317Y-67246539D01*
X201664513Y-67292294D01*
X201613001Y-67303500D01*
X197312000Y-67303500D01*
X197244961Y-67283815D01*
X197199206Y-67231011D01*
X197188000Y-67179501D01*
X197187999Y-67043901D01*
X197181931Y-66977117D01*
X197181928Y-66977106D01*
X197134032Y-66823401D01*
X197134031Y-66823400D01*
X197134031Y-66823398D01*
X197052873Y-66689147D01*
X197035038Y-66621596D01*
X197052873Y-66560852D01*
X197134031Y-66426602D01*
X197181930Y-66272887D01*
X197188000Y-66206091D01*
X197187999Y-65773910D01*
X197187999Y-65773909D01*
X197187999Y-65773901D01*
X197181931Y-65707117D01*
X197181928Y-65707106D01*
X197134032Y-65553401D01*
X197134031Y-65553400D01*
X197134031Y-65553398D01*
X197052873Y-65419147D01*
X197035038Y-65351596D01*
X197052873Y-65290852D01*
X197134031Y-65156602D01*
X197181930Y-65002887D01*
X197188000Y-64936091D01*
X197187999Y-64503910D01*
X197187999Y-64503901D01*
X197184919Y-64470000D01*
X201996216Y-64470000D01*
X202800000Y-64470000D01*
X203300000Y-64470000D01*
X204103783Y-64470000D01*
X204097202Y-64428445D01*
X204037877Y-64312014D01*
X204037874Y-64312010D01*
X203945489Y-64219625D01*
X203945484Y-64219622D01*
X203829054Y-64160297D01*
X203732465Y-64145000D01*
X203300000Y-64145000D01*
X203300000Y-64470000D01*
X202800000Y-64470000D01*
X202800000Y-64145000D01*
X202367530Y-64145000D01*
X202367530Y-64145001D01*
X202270946Y-64160297D01*
X202270945Y-64160297D01*
X202154514Y-64219622D01*
X202154510Y-64219625D01*
X202062125Y-64312010D01*
X202062122Y-64312014D01*
X202002797Y-64428445D01*
X201996216Y-64470000D01*
X197184919Y-64470000D01*
X197181931Y-64437117D01*
X197181928Y-64437106D01*
X197134032Y-64283401D01*
X197134031Y-64283400D01*
X197134031Y-64283398D01*
X197050736Y-64145612D01*
X197050734Y-64145610D01*
X197050733Y-64145608D01*
X196936891Y-64031766D01*
X196901385Y-64010302D01*
X196799102Y-63948469D01*
X196645387Y-63900570D01*
X196645385Y-63900569D01*
X196645383Y-63900569D01*
X196598617Y-63896319D01*
X196578591Y-63894500D01*
X196578588Y-63894500D01*
X195171401Y-63894500D01*
X195104617Y-63900568D01*
X195104606Y-63900571D01*
X194950901Y-63948467D01*
X194813108Y-64031766D01*
X194813107Y-64031767D01*
X194761696Y-64083180D01*
X194700373Y-64116666D01*
X194674014Y-64119500D01*
X194267031Y-64119500D01*
X194219579Y-64110061D01*
X194123498Y-64070263D01*
X194123488Y-64070260D01*
X193968845Y-64039500D01*
X193968842Y-64039500D01*
X193811158Y-64039500D01*
X193811155Y-64039500D01*
X193656510Y-64070261D01*
X193656498Y-64070264D01*
X193510827Y-64130602D01*
X193510814Y-64130609D01*
X193379711Y-64218210D01*
X193379707Y-64218213D01*
X193268213Y-64329707D01*
X193268210Y-64329711D01*
X193180609Y-64460814D01*
X193180602Y-64460827D01*
X193120264Y-64606498D01*
X193120261Y-64606510D01*
X193089500Y-64761153D01*
X193089500Y-64918846D01*
X193120261Y-65073489D01*
X193120264Y-65073501D01*
X193180602Y-65219172D01*
X193180609Y-65219185D01*
X193268210Y-65350288D01*
X193268213Y-65350292D01*
X193320080Y-65402159D01*
X193353565Y-65463482D01*
X193348581Y-65533174D01*
X193335501Y-65558730D01*
X193260612Y-65670809D01*
X193260602Y-65670827D01*
X193200264Y-65816498D01*
X193200261Y-65816510D01*
X193169500Y-65971153D01*
X193169500Y-66128846D01*
X193200261Y-66283489D01*
X193200264Y-66283501D01*
X193260602Y-66429172D01*
X193260609Y-66429185D01*
X193348210Y-66560288D01*
X193348213Y-66560292D01*
X193350240Y-66562319D01*
X193350962Y-66563642D01*
X193352076Y-66564999D01*
X193351818Y-66565210D01*
X193383725Y-66623642D01*
X193378741Y-66693334D01*
X193350240Y-66737681D01*
X193308213Y-66779707D01*
X193308210Y-66779711D01*
X193220609Y-66910814D01*
X193220602Y-66910827D01*
X193160264Y-67056498D01*
X193160261Y-67056510D01*
X193130985Y-67203691D01*
X193098600Y-67265602D01*
X193037885Y-67300176D01*
X193009368Y-67303500D01*
X186566882Y-67303500D01*
X186499843Y-67283815D01*
X186479201Y-67267181D01*
X184849375Y-65637355D01*
X184849373Y-65637352D01*
X184730502Y-65518481D01*
X184730494Y-65518475D01*
X184635334Y-65463535D01*
X184635332Y-65463534D01*
X184593575Y-65439425D01*
X184593574Y-65439424D01*
X184581048Y-65436067D01*
X184440842Y-65398499D01*
X184282728Y-65398499D01*
X184275132Y-65398499D01*
X184275116Y-65398500D01*
X182544049Y-65398500D01*
X182385934Y-65398500D01*
X182233207Y-65439423D01*
X182233206Y-65439423D01*
X182233204Y-65439424D01*
X182233201Y-65439425D01*
X182191445Y-65463534D01*
X182191443Y-65463535D01*
X182096282Y-65518475D01*
X182096274Y-65518481D01*
X182005276Y-65609480D01*
X181984472Y-65630284D01*
X181984470Y-65630286D01*
X181840846Y-65773911D01*
X181711584Y-65903173D01*
X181650261Y-65936658D01*
X181623903Y-65939492D01*
X178139065Y-65939492D01*
X177980951Y-65939492D01*
X177828223Y-65980415D01*
X177828222Y-65980415D01*
X177828220Y-65980416D01*
X177828217Y-65980417D01*
X177778104Y-66009351D01*
X177778103Y-66009352D01*
X177734697Y-66034412D01*
X177691293Y-66059471D01*
X177691290Y-66059473D01*
X177370003Y-66380761D01*
X177308680Y-66414246D01*
X177238988Y-66409262D01*
X177194641Y-66380761D01*
X177173367Y-66359487D01*
X177173365Y-66359485D01*
X177069874Y-66299734D01*
X177042136Y-66283719D01*
X176968950Y-66264109D01*
X176895766Y-66244500D01*
X176744234Y-66244500D01*
X176597863Y-66283719D01*
X176466635Y-66359485D01*
X176466632Y-66359487D01*
X176359487Y-66466632D01*
X176359480Y-66466641D01*
X176312988Y-66547167D01*
X176262421Y-66595382D01*
X176193814Y-66608604D01*
X176128949Y-66582636D01*
X176091041Y-66532619D01*
X176054642Y-66444744D01*
X176054637Y-66444735D01*
X175972563Y-66321903D01*
X175972560Y-66321899D01*
X175868100Y-66217439D01*
X175868096Y-66217436D01*
X175745264Y-66135362D01*
X175745254Y-66135357D01*
X175640000Y-66091759D01*
X175640000Y-66633011D01*
X175630060Y-66615795D01*
X175574205Y-66559940D01*
X175505796Y-66520444D01*
X175429496Y-66500000D01*
X175350504Y-66500000D01*
X175274204Y-66520444D01*
X175205795Y-66559940D01*
X175149940Y-66615795D01*
X175140000Y-66633011D01*
X175140000Y-66091759D01*
X175139999Y-66091759D01*
X175034745Y-66135357D01*
X175034735Y-66135362D01*
X174911903Y-66217436D01*
X174911899Y-66217439D01*
X174807439Y-66321899D01*
X174807436Y-66321903D01*
X174725362Y-66444735D01*
X174725357Y-66444745D01*
X174668822Y-66581232D01*
X174668820Y-66581240D01*
X174640000Y-66726126D01*
X174640000Y-67100000D01*
X175090000Y-67100000D01*
X175090000Y-67600000D01*
X174640000Y-67600000D01*
X174640000Y-67973873D01*
X174668820Y-68118759D01*
X174668822Y-68118767D01*
X174725357Y-68255254D01*
X174725362Y-68255264D01*
X174807436Y-68378096D01*
X174807439Y-68378100D01*
X174908158Y-68478819D01*
X174941643Y-68540142D01*
X174936659Y-68609834D01*
X174894787Y-68665767D01*
X174829323Y-68690184D01*
X174820477Y-68690500D01*
X173291098Y-68690500D01*
X173224059Y-68670815D01*
X173203417Y-68654181D01*
X172327232Y-67777996D01*
X169711414Y-65162179D01*
X169677930Y-65100857D01*
X169682914Y-65031165D01*
X169724786Y-64975232D01*
X169790250Y-64950815D01*
X169799079Y-64950499D01*
X170004360Y-64950499D01*
X170004363Y-64950499D01*
X170121753Y-64935046D01*
X170121757Y-64935044D01*
X170121762Y-64935044D01*
X170267841Y-64874536D01*
X170393282Y-64778282D01*
X170464198Y-64685861D01*
X170520626Y-64644659D01*
X170590372Y-64640504D01*
X170643690Y-64667560D01*
X170675000Y-64694640D01*
X170706246Y-64690088D01*
X170811191Y-64638784D01*
X170893787Y-64556188D01*
X170945088Y-64451249D01*
X170945270Y-64450000D01*
X170689500Y-64450000D01*
X170680814Y-64447449D01*
X170671854Y-64448738D01*
X170647815Y-64437759D01*
X170622461Y-64430315D01*
X170616533Y-64423473D01*
X170608298Y-64419713D01*
X170594009Y-64397479D01*
X170576706Y-64377511D01*
X170574418Y-64366997D01*
X170570523Y-64360936D01*
X170565500Y-64326001D01*
X170565499Y-64174001D01*
X170585183Y-64106961D01*
X170637987Y-64061206D01*
X170689499Y-64050000D01*
X170945270Y-64050000D01*
X170945270Y-64049999D01*
X170945088Y-64048750D01*
X170893787Y-63943811D01*
X170811188Y-63861212D01*
X170706251Y-63809912D01*
X170706248Y-63809911D01*
X170675000Y-63805358D01*
X170643687Y-63832440D01*
X170580104Y-63861405D01*
X170510955Y-63851396D01*
X170464197Y-63814137D01*
X170460955Y-63809912D01*
X170393282Y-63721718D01*
X170267841Y-63625464D01*
X170121762Y-63564956D01*
X170121760Y-63564955D01*
X170004361Y-63549500D01*
X169665636Y-63549500D01*
X169548246Y-63564953D01*
X169548234Y-63564957D01*
X169402163Y-63625461D01*
X169395124Y-63629526D01*
X169394117Y-63627783D01*
X169382912Y-63632115D01*
X169363678Y-63644477D01*
X169343405Y-63647391D01*
X169339068Y-63649069D01*
X169328743Y-63649500D01*
X169274499Y-63649500D01*
X169207460Y-63629815D01*
X169161705Y-63577011D01*
X169150499Y-63525500D01*
X169150499Y-63498877D01*
X169150498Y-63498876D01*
X169147600Y-63456111D01*
X169147599Y-63456107D01*
X169147599Y-63456104D01*
X169133290Y-63398571D01*
X169101641Y-63271307D01*
X169056994Y-63181284D01*
X169017032Y-63100707D01*
X169017030Y-63100704D01*
X168897722Y-62952278D01*
X168897721Y-62952277D01*
X168749295Y-62832969D01*
X168749292Y-62832967D01*
X168578697Y-62748360D01*
X168393892Y-62702400D01*
X168372506Y-62700950D01*
X168351123Y-62699500D01*
X168351120Y-62699500D01*
X166948877Y-62699500D01*
X166948874Y-62699501D01*
X166906113Y-62702399D01*
X166906112Y-62702399D01*
X166721303Y-62748360D01*
X166550707Y-62832967D01*
X166550704Y-62832969D01*
X166402278Y-62952277D01*
X166402277Y-62952278D01*
X166282969Y-63100704D01*
X166282967Y-63100707D01*
X166198360Y-63271302D01*
X166152400Y-63456107D01*
X166149500Y-63498879D01*
X166149500Y-64401122D01*
X166149501Y-64401125D01*
X166152399Y-64443886D01*
X166152399Y-64443887D01*
X166198360Y-64628696D01*
X166282967Y-64799292D01*
X166282969Y-64799295D01*
X166402277Y-64947721D01*
X166402278Y-64947722D01*
X166471486Y-65003353D01*
X166511405Y-65060696D01*
X166513985Y-65130518D01*
X166478406Y-65190651D01*
X166471486Y-65196647D01*
X166402278Y-65252277D01*
X166402277Y-65252278D01*
X166282969Y-65400704D01*
X166282967Y-65400707D01*
X166198360Y-65571302D01*
X166152400Y-65756107D01*
X166149500Y-65798879D01*
X166149500Y-66701122D01*
X166149501Y-66701125D01*
X166152399Y-66743886D01*
X166152399Y-66743887D01*
X166168736Y-66809577D01*
X166193914Y-66910821D01*
X166198360Y-66928696D01*
X166282967Y-67099292D01*
X166282969Y-67099295D01*
X166400129Y-67245048D01*
X166402278Y-67247722D01*
X166550704Y-67367030D01*
X166679259Y-67430787D01*
X166730570Y-67478206D01*
X166748100Y-67545841D01*
X166726280Y-67612217D01*
X166687286Y-67648605D01*
X166638891Y-67677226D01*
X166638883Y-67677232D01*
X166527232Y-67788883D01*
X166527226Y-67788891D01*
X166446844Y-67924811D01*
X166446843Y-67924814D01*
X166402789Y-68076446D01*
X166402788Y-68076452D01*
X166400000Y-68111881D01*
X166400000Y-68300000D01*
X167526000Y-68300000D01*
X167593039Y-68319685D01*
X167638794Y-68372489D01*
X167650000Y-68424000D01*
X167650000Y-68550000D01*
X167776000Y-68550000D01*
X167843039Y-68569685D01*
X167888794Y-68622489D01*
X167900000Y-68674000D01*
X167900000Y-69550000D01*
X168338106Y-69550000D01*
X168338118Y-69549999D01*
X168373547Y-69547211D01*
X168373553Y-69547210D01*
X168525185Y-69503156D01*
X168525188Y-69503155D01*
X168661108Y-69422773D01*
X168661116Y-69422767D01*
X168772767Y-69311116D01*
X168772773Y-69311108D01*
X168853154Y-69175189D01*
X168853923Y-69172546D01*
X168855090Y-69170718D01*
X168856255Y-69168027D01*
X168856688Y-69168214D01*
X168891529Y-69113660D01*
X168955002Y-69084453D01*
X169024188Y-69094199D01*
X169077123Y-69139802D01*
X169096999Y-69206785D01*
X169097000Y-69207140D01*
X169097000Y-70337403D01*
X169077315Y-70404442D01*
X169060681Y-70425084D01*
X166412584Y-73073181D01*
X166351261Y-73106666D01*
X166324903Y-73109500D01*
X164449766Y-73109500D01*
X164382727Y-73089815D01*
X164380875Y-73088602D01*
X164249185Y-73000609D01*
X164249172Y-73000602D01*
X164103499Y-72940263D01*
X164103491Y-72940261D01*
X164060497Y-72931709D01*
X163998586Y-72899324D01*
X163997008Y-72897773D01*
X161986819Y-70887584D01*
X161953334Y-70826261D01*
X161950500Y-70799903D01*
X161950500Y-68988118D01*
X166400000Y-68988118D01*
X166402788Y-69023547D01*
X166402789Y-69023553D01*
X166446843Y-69175185D01*
X166446844Y-69175188D01*
X166527226Y-69311108D01*
X166527232Y-69311116D01*
X166638883Y-69422767D01*
X166638891Y-69422773D01*
X166774811Y-69503155D01*
X166774814Y-69503156D01*
X166926446Y-69547210D01*
X166926452Y-69547211D01*
X166961881Y-69549999D01*
X166961894Y-69550000D01*
X167400000Y-69550000D01*
X167400000Y-68800000D01*
X166400000Y-68800000D01*
X166400000Y-68988118D01*
X161950500Y-68988118D01*
X161950500Y-68755390D01*
X161958061Y-68729638D01*
X161962065Y-68703099D01*
X161967756Y-68696621D01*
X161970185Y-68688351D01*
X161990464Y-68670778D01*
X162008184Y-68650613D01*
X162019690Y-68645454D01*
X162022989Y-68642596D01*
X162040382Y-68636176D01*
X162223049Y-68583909D01*
X162403407Y-68489698D01*
X162561109Y-68361109D01*
X162689698Y-68203407D01*
X162783909Y-68023049D01*
X162839886Y-67827418D01*
X162850500Y-67708037D01*
X162850499Y-64791964D01*
X162839886Y-64672582D01*
X162783909Y-64476951D01*
X162689698Y-64296593D01*
X162626939Y-64219625D01*
X162561109Y-64138890D01*
X162445933Y-64044977D01*
X162403407Y-64010302D01*
X162223049Y-63916091D01*
X162223048Y-63916090D01*
X162223045Y-63916089D01*
X162105829Y-63882550D01*
X162027418Y-63860114D01*
X162027415Y-63860113D01*
X162027413Y-63860113D01*
X161961102Y-63854217D01*
X161908037Y-63849500D01*
X161908032Y-63849500D01*
X160791971Y-63849500D01*
X160791965Y-63849500D01*
X160791964Y-63849501D01*
X160780316Y-63850536D01*
X160672584Y-63860113D01*
X160476954Y-63916089D01*
X160415680Y-63948096D01*
X160296593Y-64010302D01*
X160296591Y-64010303D01*
X160296590Y-64010304D01*
X160138890Y-64138890D01*
X160010304Y-64296590D01*
X159916089Y-64476954D01*
X159860114Y-64672583D01*
X159860113Y-64672586D01*
X159852607Y-64757016D01*
X159850717Y-64778282D01*
X159849500Y-64791966D01*
X159849500Y-67708028D01*
X159849501Y-67708034D01*
X159860113Y-67827415D01*
X159916089Y-68023045D01*
X159916090Y-68023048D01*
X159916091Y-68023049D01*
X160010302Y-68203407D01*
X160010304Y-68203409D01*
X160138890Y-68361109D01*
X160175549Y-68391000D01*
X160296593Y-68489698D01*
X160476951Y-68583909D01*
X160659612Y-68636174D01*
X160718649Y-68673541D01*
X160748113Y-68736895D01*
X160749500Y-68755390D01*
X160749500Y-71013330D01*
X160749499Y-71013348D01*
X160749499Y-71179054D01*
X160749498Y-71179054D01*
X160771430Y-71260904D01*
X160790423Y-71331785D01*
X160817605Y-71378865D01*
X160858153Y-71449097D01*
X160869479Y-71468714D01*
X160869481Y-71468717D01*
X160988349Y-71587585D01*
X160988355Y-71587590D01*
X163033181Y-73632416D01*
X163066666Y-73693739D01*
X163069500Y-73720097D01*
X163069500Y-73788846D01*
X163100261Y-73943489D01*
X163100264Y-73943501D01*
X163160602Y-74089172D01*
X163160609Y-74089185D01*
X163248210Y-74220288D01*
X163248213Y-74220292D01*
X163359707Y-74331786D01*
X163359711Y-74331789D01*
X163490814Y-74419390D01*
X163490827Y-74419397D01*
X163636498Y-74479735D01*
X163636503Y-74479737D01*
X163791153Y-74510499D01*
X163791156Y-74510500D01*
X163791158Y-74510500D01*
X163948844Y-74510500D01*
X163948845Y-74510499D01*
X164103497Y-74479737D01*
X164249179Y-74419394D01*
X164258410Y-74413226D01*
X164380875Y-74331398D01*
X164447553Y-74310520D01*
X164449766Y-74310500D01*
X166538331Y-74310500D01*
X166538347Y-74310501D01*
X166545943Y-74310501D01*
X166704054Y-74310501D01*
X166704057Y-74310501D01*
X166856785Y-74269577D01*
X166889259Y-74250828D01*
X166908868Y-74239507D01*
X166908879Y-74239499D01*
X166908891Y-74239493D01*
X166993716Y-74190520D01*
X167105520Y-74078716D01*
X167105520Y-74078714D01*
X167115724Y-74068511D01*
X167115728Y-74068506D01*
X169994234Y-71190000D01*
X177262676Y-71190000D01*
X177317336Y-71301810D01*
X177408189Y-71392663D01*
X177523625Y-71449096D01*
X177570000Y-71455852D01*
X178070000Y-71455852D01*
X178116370Y-71449097D01*
X178116372Y-71449096D01*
X178231810Y-71392663D01*
X178322663Y-71301810D01*
X178377324Y-71190000D01*
X178070000Y-71190000D01*
X178070000Y-71455852D01*
X177570000Y-71455852D01*
X177570000Y-71190000D01*
X177262676Y-71190000D01*
X169994234Y-71190000D01*
X170066213Y-71118021D01*
X170066216Y-71118020D01*
X170178020Y-71006216D01*
X170178020Y-71006214D01*
X170188224Y-70996011D01*
X170188228Y-70996006D01*
X170450845Y-70733388D01*
X170512166Y-70699905D01*
X170522341Y-70698132D01*
X170580316Y-70690500D01*
X170621762Y-70685044D01*
X170767841Y-70624536D01*
X170893282Y-70528282D01*
X170964198Y-70435861D01*
X171020626Y-70394659D01*
X171090372Y-70390504D01*
X171143690Y-70417560D01*
X171175000Y-70444640D01*
X171206246Y-70440088D01*
X171311191Y-70388784D01*
X171393787Y-70306188D01*
X171445088Y-70201249D01*
X171445270Y-70200000D01*
X171189500Y-70200000D01*
X171180814Y-70197449D01*
X171171854Y-70198738D01*
X171147815Y-70187759D01*
X171122461Y-70180315D01*
X171116533Y-70173473D01*
X171108298Y-70169713D01*
X171094009Y-70147479D01*
X171076706Y-70127511D01*
X171074418Y-70116997D01*
X171070523Y-70110936D01*
X171065500Y-70076001D01*
X171065499Y-69924001D01*
X171085183Y-69856961D01*
X171137987Y-69811206D01*
X171189499Y-69800000D01*
X171445270Y-69800000D01*
X171445270Y-69799999D01*
X171445088Y-69798750D01*
X171393787Y-69693811D01*
X171311188Y-69611212D01*
X171206251Y-69559912D01*
X171206248Y-69559911D01*
X171175000Y-69555358D01*
X171143687Y-69582440D01*
X171080104Y-69611405D01*
X171010955Y-69601396D01*
X170964197Y-69564137D01*
X170960955Y-69559912D01*
X170893282Y-69471718D01*
X170767841Y-69375464D01*
X170751260Y-69368596D01*
X170621762Y-69314956D01*
X170621760Y-69314955D01*
X170504370Y-69299501D01*
X170504367Y-69299500D01*
X170504361Y-69299500D01*
X170504354Y-69299500D01*
X170422000Y-69299500D01*
X170354961Y-69279815D01*
X170309206Y-69227011D01*
X170298000Y-69175500D01*
X170298000Y-68218444D01*
X170297999Y-68218438D01*
X170289292Y-68185942D01*
X170257077Y-68065715D01*
X170209354Y-67983057D01*
X170178020Y-67928784D01*
X170066216Y-67816980D01*
X170066215Y-67816979D01*
X170061885Y-67812649D01*
X170061874Y-67812639D01*
X169166407Y-66917172D01*
X169132922Y-66855849D01*
X169130572Y-66818549D01*
X169131423Y-66808933D01*
X169147600Y-66743889D01*
X169150500Y-66701123D01*
X169150499Y-66593609D01*
X169150983Y-66588154D01*
X169161823Y-66560529D01*
X169170183Y-66532058D01*
X169174445Y-66528364D01*
X169176506Y-66523113D01*
X169200560Y-66505734D01*
X169222986Y-66486302D01*
X169228569Y-66485499D01*
X169233142Y-66482196D01*
X169262773Y-66480581D01*
X169292145Y-66476358D01*
X169297275Y-66478700D01*
X169302908Y-66478394D01*
X169328708Y-66493055D01*
X169355701Y-66505382D01*
X169362179Y-66511414D01*
X172622284Y-69771520D01*
X172622286Y-69771521D01*
X172622290Y-69771524D01*
X172759209Y-69850573D01*
X172759212Y-69850575D01*
X172759216Y-69850577D01*
X172911943Y-69891501D01*
X172911945Y-69891501D01*
X173077654Y-69891501D01*
X173077670Y-69891500D01*
X176875501Y-69891500D01*
X176942540Y-69911185D01*
X176988295Y-69963989D01*
X176999501Y-70015500D01*
X176999501Y-70119191D01*
X177002335Y-70155205D01*
X177047129Y-70309388D01*
X177047131Y-70309393D01*
X177128863Y-70447595D01*
X177128869Y-70447603D01*
X177235728Y-70554462D01*
X177269213Y-70615785D01*
X177264229Y-70685477D01*
X177262444Y-70689629D01*
X177262676Y-70690000D01*
X177559591Y-70690000D01*
X177569318Y-70690382D01*
X177569516Y-70690397D01*
X177570819Y-70690500D01*
X178069180Y-70690499D01*
X178069193Y-70690498D01*
X178070668Y-70690382D01*
X178080393Y-70690000D01*
X178377324Y-70690000D01*
X178378973Y-70687358D01*
X178368792Y-70627732D01*
X178396135Y-70563434D01*
X178404261Y-70554471D01*
X178511135Y-70447598D01*
X178592869Y-70309393D01*
X178637665Y-70155204D01*
X178640500Y-70119181D01*
X178640499Y-69939074D01*
X178660183Y-69872036D01*
X178712987Y-69826281D01*
X178782145Y-69816337D01*
X178826498Y-69831688D01*
X178859215Y-69850577D01*
X179011943Y-69891501D01*
X179011946Y-69891501D01*
X179177653Y-69891501D01*
X179177669Y-69891500D01*
X179275500Y-69891500D01*
X179342539Y-69911185D01*
X179388294Y-69963989D01*
X179399500Y-70015500D01*
X179399500Y-72331378D01*
X179379815Y-72398417D01*
X179327011Y-72444172D01*
X179275518Y-72455377D01*
X179267903Y-72455379D01*
X179267902Y-72455379D01*
X179105516Y-72487701D01*
X179105512Y-72487703D01*
X178952565Y-72551080D01*
X178952560Y-72551083D01*
X178814901Y-72643091D01*
X178814899Y-72643092D01*
X178697845Y-72760178D01*
X178697842Y-72760182D01*
X178605877Y-72897858D01*
X178542536Y-73050835D01*
X178510256Y-73213233D01*
X178510268Y-73295331D01*
X178510268Y-73335598D01*
X178510257Y-73335782D01*
X178510261Y-73364647D01*
X178510261Y-73364649D01*
X178510268Y-73424149D01*
X178510268Y-73498694D01*
X178510276Y-73498785D01*
X178510277Y-73498787D01*
X178542589Y-73661145D01*
X178605950Y-73814081D01*
X178605951Y-73814083D01*
X178605953Y-73814087D01*
X178654695Y-73887028D01*
X178675576Y-73953705D01*
X178657094Y-74021085D01*
X178654706Y-74024802D01*
X178605908Y-74097849D01*
X178605907Y-74097852D01*
X178542562Y-74250828D01*
X178542561Y-74250829D01*
X178510280Y-74413226D01*
X178510292Y-74495433D01*
X178510292Y-74535598D01*
X178510281Y-74535782D01*
X178510284Y-74564627D01*
X178510261Y-74564705D01*
X178510267Y-74616016D01*
X178510276Y-74698550D01*
X178510277Y-74698795D01*
X178510277Y-74698798D01*
X178542593Y-74861158D01*
X178542596Y-74861166D01*
X178605962Y-75014103D01*
X178605964Y-75014107D01*
X178654679Y-75087002D01*
X178675562Y-75153677D01*
X178657082Y-75221059D01*
X178654694Y-75224776D01*
X178605877Y-75297858D01*
X178542536Y-75450835D01*
X178510256Y-75613233D01*
X178510268Y-75695433D01*
X178510268Y-75735598D01*
X178510257Y-75735782D01*
X178510261Y-75764647D01*
X178510261Y-75764649D01*
X178510268Y-75824149D01*
X178510268Y-75898694D01*
X178510276Y-75898785D01*
X178510277Y-75898787D01*
X178542589Y-76061145D01*
X178555123Y-76091398D01*
X178605953Y-76214088D01*
X178697921Y-76351715D01*
X178697924Y-76351719D01*
X178697925Y-76351720D01*
X178697926Y-76351721D01*
X178812524Y-76466319D01*
X178846008Y-76527640D01*
X178841024Y-76597332D01*
X178839407Y-76601443D01*
X178797012Y-76703813D01*
X178797011Y-76703816D01*
X178763734Y-76871202D01*
X178731355Y-76933116D01*
X178670643Y-76967697D01*
X178600873Y-76963964D01*
X178573223Y-76950125D01*
X178469185Y-76880609D01*
X178469172Y-76880602D01*
X178323501Y-76820264D01*
X178323491Y-76820261D01*
X178168151Y-76789362D01*
X178106241Y-76756977D01*
X178104662Y-76755426D01*
X176457590Y-75108355D01*
X176457588Y-75108352D01*
X176338717Y-74989481D01*
X176338709Y-74989475D01*
X176240464Y-74932754D01*
X176201788Y-74910424D01*
X176201787Y-74910423D01*
X176140693Y-74894053D01*
X176049057Y-74869499D01*
X175890943Y-74869499D01*
X175883347Y-74869499D01*
X175883331Y-74869500D01*
X162599766Y-74869500D01*
X162532727Y-74849815D01*
X162530875Y-74848602D01*
X162399185Y-74760609D01*
X162399172Y-74760602D01*
X162253501Y-74700264D01*
X162253489Y-74700261D01*
X162098845Y-74669500D01*
X162098842Y-74669500D01*
X161941158Y-74669500D01*
X161941155Y-74669500D01*
X161786510Y-74700261D01*
X161786498Y-74700264D01*
X161640827Y-74760602D01*
X161640814Y-74760609D01*
X161509711Y-74848210D01*
X161509707Y-74848213D01*
X161398213Y-74959707D01*
X161398210Y-74959711D01*
X161310609Y-75090814D01*
X161310602Y-75090827D01*
X161250264Y-75236498D01*
X161250261Y-75236510D01*
X161219500Y-75391153D01*
X161219500Y-75488453D01*
X161199815Y-75555492D01*
X161147011Y-75601247D01*
X161077853Y-75611191D01*
X161014297Y-75582166D01*
X161007819Y-75576134D01*
X155636819Y-70205134D01*
X155603334Y-70143811D01*
X155600500Y-70117453D01*
X155600500Y-67589060D01*
X155600501Y-67589047D01*
X155600501Y-67420944D01*
X155586541Y-67368846D01*
X155559577Y-67268216D01*
X155508357Y-67179499D01*
X155480524Y-67131290D01*
X155480518Y-67131282D01*
X153511416Y-65162180D01*
X151537589Y-63188354D01*
X151537588Y-63188352D01*
X151418717Y-63069481D01*
X151418716Y-63069480D01*
X151397408Y-63057178D01*
X151340288Y-63024200D01*
X151340285Y-63024199D01*
X151331904Y-63019360D01*
X151281785Y-62990423D01*
X151186054Y-62964771D01*
X151179915Y-62962406D01*
X151157185Y-62945005D01*
X151132744Y-62930107D01*
X151129794Y-62924035D01*
X151124436Y-62919933D01*
X151114723Y-62893008D01*
X151102216Y-62867260D01*
X151101246Y-62855648D01*
X151100727Y-62854209D01*
X151101019Y-62852931D01*
X151100499Y-62846698D01*
X151100499Y-62652129D01*
X151100498Y-62652123D01*
X151100497Y-62652116D01*
X151094091Y-62592517D01*
X151065080Y-62514735D01*
X151043797Y-62457671D01*
X151043795Y-62457668D01*
X150977276Y-62368810D01*
X150952859Y-62303347D01*
X150967710Y-62235074D01*
X151017115Y-62185668D01*
X151076543Y-62170500D01*
X174729477Y-62170500D01*
X174750722Y-62176738D01*
G37*
%TD.AperFunction*%
%TA.AperFunction,Conductor*%
G36*
X151014971Y-66808233D02*
G01*
X151018208Y-66809573D01*
X151018215Y-66809577D01*
X151170943Y-66850500D01*
X151329057Y-66850500D01*
X152199903Y-66850500D01*
X152266942Y-66870185D01*
X152287584Y-66886819D01*
X153863181Y-68462416D01*
X153896666Y-68523739D01*
X153899500Y-68550097D01*
X153899500Y-70420939D01*
X153899499Y-70420943D01*
X153899499Y-70435862D01*
X153899499Y-70445504D01*
X153889980Y-70477918D01*
X153879814Y-70512539D01*
X153879812Y-70512539D01*
X153879812Y-70512543D01*
X153843274Y-70544201D01*
X153827010Y-70558294D01*
X153827009Y-70558294D01*
X153827007Y-70558296D01*
X153826988Y-70558298D01*
X153775499Y-70569500D01*
X151035719Y-70569500D01*
X150968680Y-70549815D01*
X150925235Y-70501795D01*
X150905052Y-70462185D01*
X150905051Y-70462184D01*
X150780109Y-70290213D01*
X150629786Y-70139890D01*
X150457820Y-70014951D01*
X150268414Y-69918444D01*
X150268413Y-69918443D01*
X150268412Y-69918443D01*
X150169285Y-69886234D01*
X150111610Y-69846797D01*
X150084412Y-69782439D01*
X150096327Y-69713592D01*
X150143571Y-69662117D01*
X150169296Y-69650370D01*
X150172256Y-69649408D01*
X150326525Y-69570803D01*
X150332736Y-69566289D01*
X150332737Y-69566289D01*
X149879410Y-69112962D01*
X149942993Y-69095925D01*
X150057007Y-69030099D01*
X150150099Y-68937007D01*
X150215925Y-68822993D01*
X150232962Y-68759410D01*
X150686289Y-69212737D01*
X150686289Y-69212736D01*
X150690803Y-69206525D01*
X150769408Y-69052257D01*
X150822914Y-68887584D01*
X150850000Y-68716571D01*
X150850000Y-68543428D01*
X150822914Y-68372415D01*
X150769408Y-68207742D01*
X150690801Y-68053471D01*
X150686290Y-68047262D01*
X150686289Y-68047261D01*
X150232962Y-68500589D01*
X150215925Y-68437007D01*
X150150099Y-68322993D01*
X150057007Y-68229901D01*
X149942993Y-68164075D01*
X149879409Y-68147037D01*
X150332737Y-67693709D01*
X150326525Y-67689196D01*
X150172258Y-67610592D01*
X150169282Y-67609625D01*
X150168296Y-67608951D01*
X150167760Y-67608729D01*
X150167806Y-67608616D01*
X150111608Y-67570185D01*
X150084412Y-67505826D01*
X150096328Y-67436980D01*
X150143574Y-67385506D01*
X150169280Y-67373766D01*
X150268412Y-67341557D01*
X150457816Y-67245051D01*
X150514744Y-67203691D01*
X150629786Y-67120109D01*
X150629788Y-67120106D01*
X150629792Y-67120104D01*
X150780104Y-66969792D01*
X150867203Y-66849909D01*
X150922530Y-66807244D01*
X150992144Y-66801264D01*
X151014971Y-66808233D01*
G37*
%TD.AperFunction*%
%TA.AperFunction,Conductor*%
G36*
X176402539Y-68034685D02*
G01*
X176448294Y-68087489D01*
X176459500Y-68139000D01*
X176459501Y-68566500D01*
X176439817Y-68633539D01*
X176387013Y-68679294D01*
X176335501Y-68690500D01*
X176334000Y-68690500D01*
X176266961Y-68670815D01*
X176221206Y-68618011D01*
X176210000Y-68566500D01*
X176210000Y-68515000D01*
X175904000Y-68515000D01*
X175836961Y-68495315D01*
X175791206Y-68442511D01*
X175780000Y-68391000D01*
X175780000Y-68139000D01*
X175799685Y-68071961D01*
X175852489Y-68026206D01*
X175904000Y-68015000D01*
X176335500Y-68015000D01*
X176402539Y-68034685D01*
G37*
%TD.AperFunction*%
%TD*%
M02*
