%TF.GenerationSoftware,KiCad,Pcbnew,9.0.6*%
%TF.CreationDate,2025-12-18T17:34:00+05:30*%
%TF.ProjectId,Blueprint_Project,426c7565-7072-4696-9e74-5f50726f6a65,rev?*%
%TF.SameCoordinates,Original*%
%TF.FileFunction,Legend,Top*%
%TF.FilePolarity,Positive*%
%FSLAX46Y46*%
G04 Gerber Fmt 4.6, Leading zero omitted, Abs format (unit mm)*
G04 Created by KiCad (PCBNEW 9.0.6) date 2025-12-18 17:34:00*
%MOMM*%
%LPD*%
G01*
G04 APERTURE LIST*
%ADD10C,0.150000*%
%ADD11C,0.060000*%
%ADD12C,0.120000*%
G04 APERTURE END LIST*
D10*
X169512142Y-63559580D02*
X169464523Y-63607200D01*
X169464523Y-63607200D02*
X169321666Y-63654819D01*
X169321666Y-63654819D02*
X169226428Y-63654819D01*
X169226428Y-63654819D02*
X169083571Y-63607200D01*
X169083571Y-63607200D02*
X168988333Y-63511961D01*
X168988333Y-63511961D02*
X168940714Y-63416723D01*
X168940714Y-63416723D02*
X168893095Y-63226247D01*
X168893095Y-63226247D02*
X168893095Y-63083390D01*
X168893095Y-63083390D02*
X168940714Y-62892914D01*
X168940714Y-62892914D02*
X168988333Y-62797676D01*
X168988333Y-62797676D02*
X169083571Y-62702438D01*
X169083571Y-62702438D02*
X169226428Y-62654819D01*
X169226428Y-62654819D02*
X169321666Y-62654819D01*
X169321666Y-62654819D02*
X169464523Y-62702438D01*
X169464523Y-62702438D02*
X169512142Y-62750057D01*
X170464523Y-63654819D02*
X169893095Y-63654819D01*
X170178809Y-63654819D02*
X170178809Y-62654819D01*
X170178809Y-62654819D02*
X170083571Y-62797676D01*
X170083571Y-62797676D02*
X169988333Y-62892914D01*
X169988333Y-62892914D02*
X169893095Y-62940533D01*
X171321666Y-62988152D02*
X171321666Y-63654819D01*
X171083571Y-62607200D02*
X170845476Y-63321485D01*
X170845476Y-63321485D02*
X171464523Y-63321485D01*
X175447142Y-106899580D02*
X175399523Y-106947200D01*
X175399523Y-106947200D02*
X175256666Y-106994819D01*
X175256666Y-106994819D02*
X175161428Y-106994819D01*
X175161428Y-106994819D02*
X175018571Y-106947200D01*
X175018571Y-106947200D02*
X174923333Y-106851961D01*
X174923333Y-106851961D02*
X174875714Y-106756723D01*
X174875714Y-106756723D02*
X174828095Y-106566247D01*
X174828095Y-106566247D02*
X174828095Y-106423390D01*
X174828095Y-106423390D02*
X174875714Y-106232914D01*
X174875714Y-106232914D02*
X174923333Y-106137676D01*
X174923333Y-106137676D02*
X175018571Y-106042438D01*
X175018571Y-106042438D02*
X175161428Y-105994819D01*
X175161428Y-105994819D02*
X175256666Y-105994819D01*
X175256666Y-105994819D02*
X175399523Y-106042438D01*
X175399523Y-106042438D02*
X175447142Y-106090057D01*
X176399523Y-106994819D02*
X175828095Y-106994819D01*
X176113809Y-106994819D02*
X176113809Y-105994819D01*
X176113809Y-105994819D02*
X176018571Y-106137676D01*
X176018571Y-106137676D02*
X175923333Y-106232914D01*
X175923333Y-106232914D02*
X175828095Y-106280533D01*
X177256666Y-105994819D02*
X177066190Y-105994819D01*
X177066190Y-105994819D02*
X176970952Y-106042438D01*
X176970952Y-106042438D02*
X176923333Y-106090057D01*
X176923333Y-106090057D02*
X176828095Y-106232914D01*
X176828095Y-106232914D02*
X176780476Y-106423390D01*
X176780476Y-106423390D02*
X176780476Y-106804342D01*
X176780476Y-106804342D02*
X176828095Y-106899580D01*
X176828095Y-106899580D02*
X176875714Y-106947200D01*
X176875714Y-106947200D02*
X176970952Y-106994819D01*
X176970952Y-106994819D02*
X177161428Y-106994819D01*
X177161428Y-106994819D02*
X177256666Y-106947200D01*
X177256666Y-106947200D02*
X177304285Y-106899580D01*
X177304285Y-106899580D02*
X177351904Y-106804342D01*
X177351904Y-106804342D02*
X177351904Y-106566247D01*
X177351904Y-106566247D02*
X177304285Y-106471009D01*
X177304285Y-106471009D02*
X177256666Y-106423390D01*
X177256666Y-106423390D02*
X177161428Y-106375771D01*
X177161428Y-106375771D02*
X176970952Y-106375771D01*
X176970952Y-106375771D02*
X176875714Y-106423390D01*
X176875714Y-106423390D02*
X176828095Y-106471009D01*
X176828095Y-106471009D02*
X176780476Y-106566247D01*
X176483809Y-100238628D02*
X176483809Y-100714819D01*
X176150476Y-99714819D02*
X176483809Y-100238628D01*
X176483809Y-100238628D02*
X176817142Y-99714819D01*
X177674285Y-100714819D02*
X177102857Y-100714819D01*
X177388571Y-100714819D02*
X177388571Y-99714819D01*
X177388571Y-99714819D02*
X177293333Y-99857676D01*
X177293333Y-99857676D02*
X177198095Y-99952914D01*
X177198095Y-99952914D02*
X177102857Y-100000533D01*
X170513333Y-93529580D02*
X170465714Y-93577200D01*
X170465714Y-93577200D02*
X170322857Y-93624819D01*
X170322857Y-93624819D02*
X170227619Y-93624819D01*
X170227619Y-93624819D02*
X170084762Y-93577200D01*
X170084762Y-93577200D02*
X169989524Y-93481961D01*
X169989524Y-93481961D02*
X169941905Y-93386723D01*
X169941905Y-93386723D02*
X169894286Y-93196247D01*
X169894286Y-93196247D02*
X169894286Y-93053390D01*
X169894286Y-93053390D02*
X169941905Y-92862914D01*
X169941905Y-92862914D02*
X169989524Y-92767676D01*
X169989524Y-92767676D02*
X170084762Y-92672438D01*
X170084762Y-92672438D02*
X170227619Y-92624819D01*
X170227619Y-92624819D02*
X170322857Y-92624819D01*
X170322857Y-92624819D02*
X170465714Y-92672438D01*
X170465714Y-92672438D02*
X170513333Y-92720057D01*
X171084762Y-93053390D02*
X170989524Y-93005771D01*
X170989524Y-93005771D02*
X170941905Y-92958152D01*
X170941905Y-92958152D02*
X170894286Y-92862914D01*
X170894286Y-92862914D02*
X170894286Y-92815295D01*
X170894286Y-92815295D02*
X170941905Y-92720057D01*
X170941905Y-92720057D02*
X170989524Y-92672438D01*
X170989524Y-92672438D02*
X171084762Y-92624819D01*
X171084762Y-92624819D02*
X171275238Y-92624819D01*
X171275238Y-92624819D02*
X171370476Y-92672438D01*
X171370476Y-92672438D02*
X171418095Y-92720057D01*
X171418095Y-92720057D02*
X171465714Y-92815295D01*
X171465714Y-92815295D02*
X171465714Y-92862914D01*
X171465714Y-92862914D02*
X171418095Y-92958152D01*
X171418095Y-92958152D02*
X171370476Y-93005771D01*
X171370476Y-93005771D02*
X171275238Y-93053390D01*
X171275238Y-93053390D02*
X171084762Y-93053390D01*
X171084762Y-93053390D02*
X170989524Y-93101009D01*
X170989524Y-93101009D02*
X170941905Y-93148628D01*
X170941905Y-93148628D02*
X170894286Y-93243866D01*
X170894286Y-93243866D02*
X170894286Y-93434342D01*
X170894286Y-93434342D02*
X170941905Y-93529580D01*
X170941905Y-93529580D02*
X170989524Y-93577200D01*
X170989524Y-93577200D02*
X171084762Y-93624819D01*
X171084762Y-93624819D02*
X171275238Y-93624819D01*
X171275238Y-93624819D02*
X171370476Y-93577200D01*
X171370476Y-93577200D02*
X171418095Y-93529580D01*
X171418095Y-93529580D02*
X171465714Y-93434342D01*
X171465714Y-93434342D02*
X171465714Y-93243866D01*
X171465714Y-93243866D02*
X171418095Y-93148628D01*
X171418095Y-93148628D02*
X171370476Y-93101009D01*
X171370476Y-93101009D02*
X171275238Y-93053390D01*
X178373333Y-106994819D02*
X178040000Y-106518628D01*
X177801905Y-106994819D02*
X177801905Y-105994819D01*
X177801905Y-105994819D02*
X178182857Y-105994819D01*
X178182857Y-105994819D02*
X178278095Y-106042438D01*
X178278095Y-106042438D02*
X178325714Y-106090057D01*
X178325714Y-106090057D02*
X178373333Y-106185295D01*
X178373333Y-106185295D02*
X178373333Y-106328152D01*
X178373333Y-106328152D02*
X178325714Y-106423390D01*
X178325714Y-106423390D02*
X178278095Y-106471009D01*
X178278095Y-106471009D02*
X178182857Y-106518628D01*
X178182857Y-106518628D02*
X177801905Y-106518628D01*
X179278095Y-105994819D02*
X178801905Y-105994819D01*
X178801905Y-105994819D02*
X178754286Y-106471009D01*
X178754286Y-106471009D02*
X178801905Y-106423390D01*
X178801905Y-106423390D02*
X178897143Y-106375771D01*
X178897143Y-106375771D02*
X179135238Y-106375771D01*
X179135238Y-106375771D02*
X179230476Y-106423390D01*
X179230476Y-106423390D02*
X179278095Y-106471009D01*
X179278095Y-106471009D02*
X179325714Y-106566247D01*
X179325714Y-106566247D02*
X179325714Y-106804342D01*
X179325714Y-106804342D02*
X179278095Y-106899580D01*
X179278095Y-106899580D02*
X179230476Y-106947200D01*
X179230476Y-106947200D02*
X179135238Y-106994819D01*
X179135238Y-106994819D02*
X178897143Y-106994819D01*
X178897143Y-106994819D02*
X178801905Y-106947200D01*
X178801905Y-106947200D02*
X178754286Y-106899580D01*
X180016666Y-69594819D02*
X180016666Y-70309104D01*
X180016666Y-70309104D02*
X179969047Y-70451961D01*
X179969047Y-70451961D02*
X179873809Y-70547200D01*
X179873809Y-70547200D02*
X179730952Y-70594819D01*
X179730952Y-70594819D02*
X179635714Y-70594819D01*
X180445238Y-69690057D02*
X180492857Y-69642438D01*
X180492857Y-69642438D02*
X180588095Y-69594819D01*
X180588095Y-69594819D02*
X180826190Y-69594819D01*
X180826190Y-69594819D02*
X180921428Y-69642438D01*
X180921428Y-69642438D02*
X180969047Y-69690057D01*
X180969047Y-69690057D02*
X181016666Y-69785295D01*
X181016666Y-69785295D02*
X181016666Y-69880533D01*
X181016666Y-69880533D02*
X180969047Y-70023390D01*
X180969047Y-70023390D02*
X180397619Y-70594819D01*
X180397619Y-70594819D02*
X181016666Y-70594819D01*
X170012142Y-69309580D02*
X169964523Y-69357200D01*
X169964523Y-69357200D02*
X169821666Y-69404819D01*
X169821666Y-69404819D02*
X169726428Y-69404819D01*
X169726428Y-69404819D02*
X169583571Y-69357200D01*
X169583571Y-69357200D02*
X169488333Y-69261961D01*
X169488333Y-69261961D02*
X169440714Y-69166723D01*
X169440714Y-69166723D02*
X169393095Y-68976247D01*
X169393095Y-68976247D02*
X169393095Y-68833390D01*
X169393095Y-68833390D02*
X169440714Y-68642914D01*
X169440714Y-68642914D02*
X169488333Y-68547676D01*
X169488333Y-68547676D02*
X169583571Y-68452438D01*
X169583571Y-68452438D02*
X169726428Y-68404819D01*
X169726428Y-68404819D02*
X169821666Y-68404819D01*
X169821666Y-68404819D02*
X169964523Y-68452438D01*
X169964523Y-68452438D02*
X170012142Y-68500057D01*
X170964523Y-69404819D02*
X170393095Y-69404819D01*
X170678809Y-69404819D02*
X170678809Y-68404819D01*
X170678809Y-68404819D02*
X170583571Y-68547676D01*
X170583571Y-68547676D02*
X170488333Y-68642914D01*
X170488333Y-68642914D02*
X170393095Y-68690533D01*
X171297857Y-68404819D02*
X171916904Y-68404819D01*
X171916904Y-68404819D02*
X171583571Y-68785771D01*
X171583571Y-68785771D02*
X171726428Y-68785771D01*
X171726428Y-68785771D02*
X171821666Y-68833390D01*
X171821666Y-68833390D02*
X171869285Y-68881009D01*
X171869285Y-68881009D02*
X171916904Y-68976247D01*
X171916904Y-68976247D02*
X171916904Y-69214342D01*
X171916904Y-69214342D02*
X171869285Y-69309580D01*
X171869285Y-69309580D02*
X171821666Y-69357200D01*
X171821666Y-69357200D02*
X171726428Y-69404819D01*
X171726428Y-69404819D02*
X171440714Y-69404819D01*
X171440714Y-69404819D02*
X171345476Y-69357200D01*
X171345476Y-69357200D02*
X171297857Y-69309580D01*
X152316666Y-62444819D02*
X152316666Y-63159104D01*
X152316666Y-63159104D02*
X152269047Y-63301961D01*
X152269047Y-63301961D02*
X152173809Y-63397200D01*
X152173809Y-63397200D02*
X152030952Y-63444819D01*
X152030952Y-63444819D02*
X151935714Y-63444819D01*
X153316666Y-63444819D02*
X152745238Y-63444819D01*
X153030952Y-63444819D02*
X153030952Y-62444819D01*
X153030952Y-62444819D02*
X152935714Y-62587676D01*
X152935714Y-62587676D02*
X152840476Y-62682914D01*
X152840476Y-62682914D02*
X152745238Y-62730533D01*
X180779580Y-98116666D02*
X180827200Y-98164285D01*
X180827200Y-98164285D02*
X180874819Y-98307142D01*
X180874819Y-98307142D02*
X180874819Y-98402380D01*
X180874819Y-98402380D02*
X180827200Y-98545237D01*
X180827200Y-98545237D02*
X180731961Y-98640475D01*
X180731961Y-98640475D02*
X180636723Y-98688094D01*
X180636723Y-98688094D02*
X180446247Y-98735713D01*
X180446247Y-98735713D02*
X180303390Y-98735713D01*
X180303390Y-98735713D02*
X180112914Y-98688094D01*
X180112914Y-98688094D02*
X180017676Y-98640475D01*
X180017676Y-98640475D02*
X179922438Y-98545237D01*
X179922438Y-98545237D02*
X179874819Y-98402380D01*
X179874819Y-98402380D02*
X179874819Y-98307142D01*
X179874819Y-98307142D02*
X179922438Y-98164285D01*
X179922438Y-98164285D02*
X179970057Y-98116666D01*
X180874819Y-97640475D02*
X180874819Y-97449999D01*
X180874819Y-97449999D02*
X180827200Y-97354761D01*
X180827200Y-97354761D02*
X180779580Y-97307142D01*
X180779580Y-97307142D02*
X180636723Y-97211904D01*
X180636723Y-97211904D02*
X180446247Y-97164285D01*
X180446247Y-97164285D02*
X180065295Y-97164285D01*
X180065295Y-97164285D02*
X179970057Y-97211904D01*
X179970057Y-97211904D02*
X179922438Y-97259523D01*
X179922438Y-97259523D02*
X179874819Y-97354761D01*
X179874819Y-97354761D02*
X179874819Y-97545237D01*
X179874819Y-97545237D02*
X179922438Y-97640475D01*
X179922438Y-97640475D02*
X179970057Y-97688094D01*
X179970057Y-97688094D02*
X180065295Y-97735713D01*
X180065295Y-97735713D02*
X180303390Y-97735713D01*
X180303390Y-97735713D02*
X180398628Y-97688094D01*
X180398628Y-97688094D02*
X180446247Y-97640475D01*
X180446247Y-97640475D02*
X180493866Y-97545237D01*
X180493866Y-97545237D02*
X180493866Y-97354761D01*
X180493866Y-97354761D02*
X180446247Y-97259523D01*
X180446247Y-97259523D02*
X180398628Y-97211904D01*
X180398628Y-97211904D02*
X180303390Y-97164285D01*
X185323333Y-86359580D02*
X185275714Y-86407200D01*
X185275714Y-86407200D02*
X185132857Y-86454819D01*
X185132857Y-86454819D02*
X185037619Y-86454819D01*
X185037619Y-86454819D02*
X184894762Y-86407200D01*
X184894762Y-86407200D02*
X184799524Y-86311961D01*
X184799524Y-86311961D02*
X184751905Y-86216723D01*
X184751905Y-86216723D02*
X184704286Y-86026247D01*
X184704286Y-86026247D02*
X184704286Y-85883390D01*
X184704286Y-85883390D02*
X184751905Y-85692914D01*
X184751905Y-85692914D02*
X184799524Y-85597676D01*
X184799524Y-85597676D02*
X184894762Y-85502438D01*
X184894762Y-85502438D02*
X185037619Y-85454819D01*
X185037619Y-85454819D02*
X185132857Y-85454819D01*
X185132857Y-85454819D02*
X185275714Y-85502438D01*
X185275714Y-85502438D02*
X185323333Y-85550057D01*
X186228095Y-85454819D02*
X185751905Y-85454819D01*
X185751905Y-85454819D02*
X185704286Y-85931009D01*
X185704286Y-85931009D02*
X185751905Y-85883390D01*
X185751905Y-85883390D02*
X185847143Y-85835771D01*
X185847143Y-85835771D02*
X186085238Y-85835771D01*
X186085238Y-85835771D02*
X186180476Y-85883390D01*
X186180476Y-85883390D02*
X186228095Y-85931009D01*
X186228095Y-85931009D02*
X186275714Y-86026247D01*
X186275714Y-86026247D02*
X186275714Y-86264342D01*
X186275714Y-86264342D02*
X186228095Y-86359580D01*
X186228095Y-86359580D02*
X186180476Y-86407200D01*
X186180476Y-86407200D02*
X186085238Y-86454819D01*
X186085238Y-86454819D02*
X185847143Y-86454819D01*
X185847143Y-86454819D02*
X185751905Y-86407200D01*
X185751905Y-86407200D02*
X185704286Y-86359580D01*
X202344819Y-71726666D02*
X201868628Y-72059999D01*
X202344819Y-72298094D02*
X201344819Y-72298094D01*
X201344819Y-72298094D02*
X201344819Y-71917142D01*
X201344819Y-71917142D02*
X201392438Y-71821904D01*
X201392438Y-71821904D02*
X201440057Y-71774285D01*
X201440057Y-71774285D02*
X201535295Y-71726666D01*
X201535295Y-71726666D02*
X201678152Y-71726666D01*
X201678152Y-71726666D02*
X201773390Y-71774285D01*
X201773390Y-71774285D02*
X201821009Y-71821904D01*
X201821009Y-71821904D02*
X201868628Y-71917142D01*
X201868628Y-71917142D02*
X201868628Y-72298094D01*
X201344819Y-71393332D02*
X201344819Y-70726666D01*
X201344819Y-70726666D02*
X202344819Y-71155237D01*
X179284819Y-83416666D02*
X178808628Y-83749999D01*
X179284819Y-83988094D02*
X178284819Y-83988094D01*
X178284819Y-83988094D02*
X178284819Y-83607142D01*
X178284819Y-83607142D02*
X178332438Y-83511904D01*
X178332438Y-83511904D02*
X178380057Y-83464285D01*
X178380057Y-83464285D02*
X178475295Y-83416666D01*
X178475295Y-83416666D02*
X178618152Y-83416666D01*
X178618152Y-83416666D02*
X178713390Y-83464285D01*
X178713390Y-83464285D02*
X178761009Y-83511904D01*
X178761009Y-83511904D02*
X178808628Y-83607142D01*
X178808628Y-83607142D02*
X178808628Y-83988094D01*
X178284819Y-83083332D02*
X178284819Y-82464285D01*
X178284819Y-82464285D02*
X178665771Y-82797618D01*
X178665771Y-82797618D02*
X178665771Y-82654761D01*
X178665771Y-82654761D02*
X178713390Y-82559523D01*
X178713390Y-82559523D02*
X178761009Y-82511904D01*
X178761009Y-82511904D02*
X178856247Y-82464285D01*
X178856247Y-82464285D02*
X179094342Y-82464285D01*
X179094342Y-82464285D02*
X179189580Y-82511904D01*
X179189580Y-82511904D02*
X179237200Y-82559523D01*
X179237200Y-82559523D02*
X179284819Y-82654761D01*
X179284819Y-82654761D02*
X179284819Y-82940475D01*
X179284819Y-82940475D02*
X179237200Y-83035713D01*
X179237200Y-83035713D02*
X179189580Y-83083332D01*
X205874819Y-71666666D02*
X205398628Y-71999999D01*
X205874819Y-72238094D02*
X204874819Y-72238094D01*
X204874819Y-72238094D02*
X204874819Y-71857142D01*
X204874819Y-71857142D02*
X204922438Y-71761904D01*
X204922438Y-71761904D02*
X204970057Y-71714285D01*
X204970057Y-71714285D02*
X205065295Y-71666666D01*
X205065295Y-71666666D02*
X205208152Y-71666666D01*
X205208152Y-71666666D02*
X205303390Y-71714285D01*
X205303390Y-71714285D02*
X205351009Y-71761904D01*
X205351009Y-71761904D02*
X205398628Y-71857142D01*
X205398628Y-71857142D02*
X205398628Y-72238094D01*
X204874819Y-70809523D02*
X204874819Y-70999999D01*
X204874819Y-70999999D02*
X204922438Y-71095237D01*
X204922438Y-71095237D02*
X204970057Y-71142856D01*
X204970057Y-71142856D02*
X205112914Y-71238094D01*
X205112914Y-71238094D02*
X205303390Y-71285713D01*
X205303390Y-71285713D02*
X205684342Y-71285713D01*
X205684342Y-71285713D02*
X205779580Y-71238094D01*
X205779580Y-71238094D02*
X205827200Y-71190475D01*
X205827200Y-71190475D02*
X205874819Y-71095237D01*
X205874819Y-71095237D02*
X205874819Y-70904761D01*
X205874819Y-70904761D02*
X205827200Y-70809523D01*
X205827200Y-70809523D02*
X205779580Y-70761904D01*
X205779580Y-70761904D02*
X205684342Y-70714285D01*
X205684342Y-70714285D02*
X205446247Y-70714285D01*
X205446247Y-70714285D02*
X205351009Y-70761904D01*
X205351009Y-70761904D02*
X205303390Y-70809523D01*
X205303390Y-70809523D02*
X205255771Y-70904761D01*
X205255771Y-70904761D02*
X205255771Y-71095237D01*
X205255771Y-71095237D02*
X205303390Y-71190475D01*
X205303390Y-71190475D02*
X205351009Y-71238094D01*
X205351009Y-71238094D02*
X205446247Y-71285713D01*
X179819580Y-79316666D02*
X179867200Y-79364285D01*
X179867200Y-79364285D02*
X179914819Y-79507142D01*
X179914819Y-79507142D02*
X179914819Y-79602380D01*
X179914819Y-79602380D02*
X179867200Y-79745237D01*
X179867200Y-79745237D02*
X179771961Y-79840475D01*
X179771961Y-79840475D02*
X179676723Y-79888094D01*
X179676723Y-79888094D02*
X179486247Y-79935713D01*
X179486247Y-79935713D02*
X179343390Y-79935713D01*
X179343390Y-79935713D02*
X179152914Y-79888094D01*
X179152914Y-79888094D02*
X179057676Y-79840475D01*
X179057676Y-79840475D02*
X178962438Y-79745237D01*
X178962438Y-79745237D02*
X178914819Y-79602380D01*
X178914819Y-79602380D02*
X178914819Y-79507142D01*
X178914819Y-79507142D02*
X178962438Y-79364285D01*
X178962438Y-79364285D02*
X179010057Y-79316666D01*
X178914819Y-78983332D02*
X178914819Y-78364285D01*
X178914819Y-78364285D02*
X179295771Y-78697618D01*
X179295771Y-78697618D02*
X179295771Y-78554761D01*
X179295771Y-78554761D02*
X179343390Y-78459523D01*
X179343390Y-78459523D02*
X179391009Y-78411904D01*
X179391009Y-78411904D02*
X179486247Y-78364285D01*
X179486247Y-78364285D02*
X179724342Y-78364285D01*
X179724342Y-78364285D02*
X179819580Y-78411904D01*
X179819580Y-78411904D02*
X179867200Y-78459523D01*
X179867200Y-78459523D02*
X179914819Y-78554761D01*
X179914819Y-78554761D02*
X179914819Y-78840475D01*
X179914819Y-78840475D02*
X179867200Y-78935713D01*
X179867200Y-78935713D02*
X179819580Y-78983332D01*
X195199580Y-75642857D02*
X195247200Y-75690476D01*
X195247200Y-75690476D02*
X195294819Y-75833333D01*
X195294819Y-75833333D02*
X195294819Y-75928571D01*
X195294819Y-75928571D02*
X195247200Y-76071428D01*
X195247200Y-76071428D02*
X195151961Y-76166666D01*
X195151961Y-76166666D02*
X195056723Y-76214285D01*
X195056723Y-76214285D02*
X194866247Y-76261904D01*
X194866247Y-76261904D02*
X194723390Y-76261904D01*
X194723390Y-76261904D02*
X194532914Y-76214285D01*
X194532914Y-76214285D02*
X194437676Y-76166666D01*
X194437676Y-76166666D02*
X194342438Y-76071428D01*
X194342438Y-76071428D02*
X194294819Y-75928571D01*
X194294819Y-75928571D02*
X194294819Y-75833333D01*
X194294819Y-75833333D02*
X194342438Y-75690476D01*
X194342438Y-75690476D02*
X194390057Y-75642857D01*
X195294819Y-74690476D02*
X195294819Y-75261904D01*
X195294819Y-74976190D02*
X194294819Y-74976190D01*
X194294819Y-74976190D02*
X194437676Y-75071428D01*
X194437676Y-75071428D02*
X194532914Y-75166666D01*
X194532914Y-75166666D02*
X194580533Y-75261904D01*
X194294819Y-74357142D02*
X194294819Y-73690476D01*
X194294819Y-73690476D02*
X195294819Y-74119047D01*
X163738095Y-70204819D02*
X163738095Y-71014342D01*
X163738095Y-71014342D02*
X163785714Y-71109580D01*
X163785714Y-71109580D02*
X163833333Y-71157200D01*
X163833333Y-71157200D02*
X163928571Y-71204819D01*
X163928571Y-71204819D02*
X164119047Y-71204819D01*
X164119047Y-71204819D02*
X164214285Y-71157200D01*
X164214285Y-71157200D02*
X164261904Y-71109580D01*
X164261904Y-71109580D02*
X164309523Y-71014342D01*
X164309523Y-71014342D02*
X164309523Y-70204819D01*
X164738095Y-70300057D02*
X164785714Y-70252438D01*
X164785714Y-70252438D02*
X164880952Y-70204819D01*
X164880952Y-70204819D02*
X165119047Y-70204819D01*
X165119047Y-70204819D02*
X165214285Y-70252438D01*
X165214285Y-70252438D02*
X165261904Y-70300057D01*
X165261904Y-70300057D02*
X165309523Y-70395295D01*
X165309523Y-70395295D02*
X165309523Y-70490533D01*
X165309523Y-70490533D02*
X165261904Y-70633390D01*
X165261904Y-70633390D02*
X164690476Y-71204819D01*
X164690476Y-71204819D02*
X165309523Y-71204819D01*
X179444819Y-70596666D02*
X178968628Y-70929999D01*
X179444819Y-71168094D02*
X178444819Y-71168094D01*
X178444819Y-71168094D02*
X178444819Y-70787142D01*
X178444819Y-70787142D02*
X178492438Y-70691904D01*
X178492438Y-70691904D02*
X178540057Y-70644285D01*
X178540057Y-70644285D02*
X178635295Y-70596666D01*
X178635295Y-70596666D02*
X178778152Y-70596666D01*
X178778152Y-70596666D02*
X178873390Y-70644285D01*
X178873390Y-70644285D02*
X178921009Y-70691904D01*
X178921009Y-70691904D02*
X178968628Y-70787142D01*
X178968628Y-70787142D02*
X178968628Y-71168094D01*
X178540057Y-70215713D02*
X178492438Y-70168094D01*
X178492438Y-70168094D02*
X178444819Y-70072856D01*
X178444819Y-70072856D02*
X178444819Y-69834761D01*
X178444819Y-69834761D02*
X178492438Y-69739523D01*
X178492438Y-69739523D02*
X178540057Y-69691904D01*
X178540057Y-69691904D02*
X178635295Y-69644285D01*
X178635295Y-69644285D02*
X178730533Y-69644285D01*
X178730533Y-69644285D02*
X178873390Y-69691904D01*
X178873390Y-69691904D02*
X179444819Y-70263332D01*
X179444819Y-70263332D02*
X179444819Y-69644285D01*
X186063333Y-90809580D02*
X186015714Y-90857200D01*
X186015714Y-90857200D02*
X185872857Y-90904819D01*
X185872857Y-90904819D02*
X185777619Y-90904819D01*
X185777619Y-90904819D02*
X185634762Y-90857200D01*
X185634762Y-90857200D02*
X185539524Y-90761961D01*
X185539524Y-90761961D02*
X185491905Y-90666723D01*
X185491905Y-90666723D02*
X185444286Y-90476247D01*
X185444286Y-90476247D02*
X185444286Y-90333390D01*
X185444286Y-90333390D02*
X185491905Y-90142914D01*
X185491905Y-90142914D02*
X185539524Y-90047676D01*
X185539524Y-90047676D02*
X185634762Y-89952438D01*
X185634762Y-89952438D02*
X185777619Y-89904819D01*
X185777619Y-89904819D02*
X185872857Y-89904819D01*
X185872857Y-89904819D02*
X186015714Y-89952438D01*
X186015714Y-89952438D02*
X186063333Y-90000057D01*
X186396667Y-89904819D02*
X187063333Y-89904819D01*
X187063333Y-89904819D02*
X186634762Y-90904819D01*
X179029580Y-100162857D02*
X179077200Y-100210476D01*
X179077200Y-100210476D02*
X179124819Y-100353333D01*
X179124819Y-100353333D02*
X179124819Y-100448571D01*
X179124819Y-100448571D02*
X179077200Y-100591428D01*
X179077200Y-100591428D02*
X178981961Y-100686666D01*
X178981961Y-100686666D02*
X178886723Y-100734285D01*
X178886723Y-100734285D02*
X178696247Y-100781904D01*
X178696247Y-100781904D02*
X178553390Y-100781904D01*
X178553390Y-100781904D02*
X178362914Y-100734285D01*
X178362914Y-100734285D02*
X178267676Y-100686666D01*
X178267676Y-100686666D02*
X178172438Y-100591428D01*
X178172438Y-100591428D02*
X178124819Y-100448571D01*
X178124819Y-100448571D02*
X178124819Y-100353333D01*
X178124819Y-100353333D02*
X178172438Y-100210476D01*
X178172438Y-100210476D02*
X178220057Y-100162857D01*
X179124819Y-99210476D02*
X179124819Y-99781904D01*
X179124819Y-99496190D02*
X178124819Y-99496190D01*
X178124819Y-99496190D02*
X178267676Y-99591428D01*
X178267676Y-99591428D02*
X178362914Y-99686666D01*
X178362914Y-99686666D02*
X178410533Y-99781904D01*
X178124819Y-98305714D02*
X178124819Y-98781904D01*
X178124819Y-98781904D02*
X178601009Y-98829523D01*
X178601009Y-98829523D02*
X178553390Y-98781904D01*
X178553390Y-98781904D02*
X178505771Y-98686666D01*
X178505771Y-98686666D02*
X178505771Y-98448571D01*
X178505771Y-98448571D02*
X178553390Y-98353333D01*
X178553390Y-98353333D02*
X178601009Y-98305714D01*
X178601009Y-98305714D02*
X178696247Y-98258095D01*
X178696247Y-98258095D02*
X178934342Y-98258095D01*
X178934342Y-98258095D02*
X179029580Y-98305714D01*
X179029580Y-98305714D02*
X179077200Y-98353333D01*
X179077200Y-98353333D02*
X179124819Y-98448571D01*
X179124819Y-98448571D02*
X179124819Y-98686666D01*
X179124819Y-98686666D02*
X179077200Y-98781904D01*
X179077200Y-98781904D02*
X179029580Y-98829523D01*
X183264819Y-70796666D02*
X182788628Y-71129999D01*
X183264819Y-71368094D02*
X182264819Y-71368094D01*
X182264819Y-71368094D02*
X182264819Y-70987142D01*
X182264819Y-70987142D02*
X182312438Y-70891904D01*
X182312438Y-70891904D02*
X182360057Y-70844285D01*
X182360057Y-70844285D02*
X182455295Y-70796666D01*
X182455295Y-70796666D02*
X182598152Y-70796666D01*
X182598152Y-70796666D02*
X182693390Y-70844285D01*
X182693390Y-70844285D02*
X182741009Y-70891904D01*
X182741009Y-70891904D02*
X182788628Y-70987142D01*
X182788628Y-70987142D02*
X182788628Y-71368094D01*
X183264819Y-69844285D02*
X183264819Y-70415713D01*
X183264819Y-70129999D02*
X182264819Y-70129999D01*
X182264819Y-70129999D02*
X182407676Y-70225237D01*
X182407676Y-70225237D02*
X182502914Y-70320475D01*
X182502914Y-70320475D02*
X182550533Y-70415713D01*
X178629580Y-79306666D02*
X178677200Y-79354285D01*
X178677200Y-79354285D02*
X178724819Y-79497142D01*
X178724819Y-79497142D02*
X178724819Y-79592380D01*
X178724819Y-79592380D02*
X178677200Y-79735237D01*
X178677200Y-79735237D02*
X178581961Y-79830475D01*
X178581961Y-79830475D02*
X178486723Y-79878094D01*
X178486723Y-79878094D02*
X178296247Y-79925713D01*
X178296247Y-79925713D02*
X178153390Y-79925713D01*
X178153390Y-79925713D02*
X177962914Y-79878094D01*
X177962914Y-79878094D02*
X177867676Y-79830475D01*
X177867676Y-79830475D02*
X177772438Y-79735237D01*
X177772438Y-79735237D02*
X177724819Y-79592380D01*
X177724819Y-79592380D02*
X177724819Y-79497142D01*
X177724819Y-79497142D02*
X177772438Y-79354285D01*
X177772438Y-79354285D02*
X177820057Y-79306666D01*
X178058152Y-78449523D02*
X178724819Y-78449523D01*
X177677200Y-78687618D02*
X178391485Y-78925713D01*
X178391485Y-78925713D02*
X178391485Y-78306666D01*
X178718095Y-85004819D02*
X178718095Y-85814342D01*
X178718095Y-85814342D02*
X178765714Y-85909580D01*
X178765714Y-85909580D02*
X178813333Y-85957200D01*
X178813333Y-85957200D02*
X178908571Y-86004819D01*
X178908571Y-86004819D02*
X179099047Y-86004819D01*
X179099047Y-86004819D02*
X179194285Y-85957200D01*
X179194285Y-85957200D02*
X179241904Y-85909580D01*
X179241904Y-85909580D02*
X179289523Y-85814342D01*
X179289523Y-85814342D02*
X179289523Y-85004819D01*
X180289523Y-86004819D02*
X179718095Y-86004819D01*
X180003809Y-86004819D02*
X180003809Y-85004819D01*
X180003809Y-85004819D02*
X179908571Y-85147676D01*
X179908571Y-85147676D02*
X179813333Y-85242914D01*
X179813333Y-85242914D02*
X179718095Y-85290533D01*
X184699580Y-84416666D02*
X184747200Y-84464285D01*
X184747200Y-84464285D02*
X184794819Y-84607142D01*
X184794819Y-84607142D02*
X184794819Y-84702380D01*
X184794819Y-84702380D02*
X184747200Y-84845237D01*
X184747200Y-84845237D02*
X184651961Y-84940475D01*
X184651961Y-84940475D02*
X184556723Y-84988094D01*
X184556723Y-84988094D02*
X184366247Y-85035713D01*
X184366247Y-85035713D02*
X184223390Y-85035713D01*
X184223390Y-85035713D02*
X184032914Y-84988094D01*
X184032914Y-84988094D02*
X183937676Y-84940475D01*
X183937676Y-84940475D02*
X183842438Y-84845237D01*
X183842438Y-84845237D02*
X183794819Y-84702380D01*
X183794819Y-84702380D02*
X183794819Y-84607142D01*
X183794819Y-84607142D02*
X183842438Y-84464285D01*
X183842438Y-84464285D02*
X183890057Y-84416666D01*
X183794819Y-83559523D02*
X183794819Y-83749999D01*
X183794819Y-83749999D02*
X183842438Y-83845237D01*
X183842438Y-83845237D02*
X183890057Y-83892856D01*
X183890057Y-83892856D02*
X184032914Y-83988094D01*
X184032914Y-83988094D02*
X184223390Y-84035713D01*
X184223390Y-84035713D02*
X184604342Y-84035713D01*
X184604342Y-84035713D02*
X184699580Y-83988094D01*
X184699580Y-83988094D02*
X184747200Y-83940475D01*
X184747200Y-83940475D02*
X184794819Y-83845237D01*
X184794819Y-83845237D02*
X184794819Y-83654761D01*
X184794819Y-83654761D02*
X184747200Y-83559523D01*
X184747200Y-83559523D02*
X184699580Y-83511904D01*
X184699580Y-83511904D02*
X184604342Y-83464285D01*
X184604342Y-83464285D02*
X184366247Y-83464285D01*
X184366247Y-83464285D02*
X184271009Y-83511904D01*
X184271009Y-83511904D02*
X184223390Y-83559523D01*
X184223390Y-83559523D02*
X184175771Y-83654761D01*
X184175771Y-83654761D02*
X184175771Y-83845237D01*
X184175771Y-83845237D02*
X184223390Y-83940475D01*
X184223390Y-83940475D02*
X184271009Y-83988094D01*
X184271009Y-83988094D02*
X184366247Y-84035713D01*
X184269580Y-99142857D02*
X184317200Y-99190476D01*
X184317200Y-99190476D02*
X184364819Y-99333333D01*
X184364819Y-99333333D02*
X184364819Y-99428571D01*
X184364819Y-99428571D02*
X184317200Y-99571428D01*
X184317200Y-99571428D02*
X184221961Y-99666666D01*
X184221961Y-99666666D02*
X184126723Y-99714285D01*
X184126723Y-99714285D02*
X183936247Y-99761904D01*
X183936247Y-99761904D02*
X183793390Y-99761904D01*
X183793390Y-99761904D02*
X183602914Y-99714285D01*
X183602914Y-99714285D02*
X183507676Y-99666666D01*
X183507676Y-99666666D02*
X183412438Y-99571428D01*
X183412438Y-99571428D02*
X183364819Y-99428571D01*
X183364819Y-99428571D02*
X183364819Y-99333333D01*
X183364819Y-99333333D02*
X183412438Y-99190476D01*
X183412438Y-99190476D02*
X183460057Y-99142857D01*
X184364819Y-98190476D02*
X184364819Y-98761904D01*
X184364819Y-98476190D02*
X183364819Y-98476190D01*
X183364819Y-98476190D02*
X183507676Y-98571428D01*
X183507676Y-98571428D02*
X183602914Y-98666666D01*
X183602914Y-98666666D02*
X183650533Y-98761904D01*
X184364819Y-97238095D02*
X184364819Y-97809523D01*
X184364819Y-97523809D02*
X183364819Y-97523809D01*
X183364819Y-97523809D02*
X183507676Y-97619047D01*
X183507676Y-97619047D02*
X183602914Y-97714285D01*
X183602914Y-97714285D02*
X183650533Y-97809523D01*
X176519580Y-81542857D02*
X176567200Y-81590476D01*
X176567200Y-81590476D02*
X176614819Y-81733333D01*
X176614819Y-81733333D02*
X176614819Y-81828571D01*
X176614819Y-81828571D02*
X176567200Y-81971428D01*
X176567200Y-81971428D02*
X176471961Y-82066666D01*
X176471961Y-82066666D02*
X176376723Y-82114285D01*
X176376723Y-82114285D02*
X176186247Y-82161904D01*
X176186247Y-82161904D02*
X176043390Y-82161904D01*
X176043390Y-82161904D02*
X175852914Y-82114285D01*
X175852914Y-82114285D02*
X175757676Y-82066666D01*
X175757676Y-82066666D02*
X175662438Y-81971428D01*
X175662438Y-81971428D02*
X175614819Y-81828571D01*
X175614819Y-81828571D02*
X175614819Y-81733333D01*
X175614819Y-81733333D02*
X175662438Y-81590476D01*
X175662438Y-81590476D02*
X175710057Y-81542857D01*
X176614819Y-80590476D02*
X176614819Y-81161904D01*
X176614819Y-80876190D02*
X175614819Y-80876190D01*
X175614819Y-80876190D02*
X175757676Y-80971428D01*
X175757676Y-80971428D02*
X175852914Y-81066666D01*
X175852914Y-81066666D02*
X175900533Y-81161904D01*
X175614819Y-79971428D02*
X175614819Y-79876190D01*
X175614819Y-79876190D02*
X175662438Y-79780952D01*
X175662438Y-79780952D02*
X175710057Y-79733333D01*
X175710057Y-79733333D02*
X175805295Y-79685714D01*
X175805295Y-79685714D02*
X175995771Y-79638095D01*
X175995771Y-79638095D02*
X176233866Y-79638095D01*
X176233866Y-79638095D02*
X176424342Y-79685714D01*
X176424342Y-79685714D02*
X176519580Y-79733333D01*
X176519580Y-79733333D02*
X176567200Y-79780952D01*
X176567200Y-79780952D02*
X176614819Y-79876190D01*
X176614819Y-79876190D02*
X176614819Y-79971428D01*
X176614819Y-79971428D02*
X176567200Y-80066666D01*
X176567200Y-80066666D02*
X176519580Y-80114285D01*
X176519580Y-80114285D02*
X176424342Y-80161904D01*
X176424342Y-80161904D02*
X176233866Y-80209523D01*
X176233866Y-80209523D02*
X175995771Y-80209523D01*
X175995771Y-80209523D02*
X175805295Y-80161904D01*
X175805295Y-80161904D02*
X175710057Y-80114285D01*
X175710057Y-80114285D02*
X175662438Y-80066666D01*
X175662438Y-80066666D02*
X175614819Y-79971428D01*
X184699580Y-82166666D02*
X184747200Y-82214285D01*
X184747200Y-82214285D02*
X184794819Y-82357142D01*
X184794819Y-82357142D02*
X184794819Y-82452380D01*
X184794819Y-82452380D02*
X184747200Y-82595237D01*
X184747200Y-82595237D02*
X184651961Y-82690475D01*
X184651961Y-82690475D02*
X184556723Y-82738094D01*
X184556723Y-82738094D02*
X184366247Y-82785713D01*
X184366247Y-82785713D02*
X184223390Y-82785713D01*
X184223390Y-82785713D02*
X184032914Y-82738094D01*
X184032914Y-82738094D02*
X183937676Y-82690475D01*
X183937676Y-82690475D02*
X183842438Y-82595237D01*
X183842438Y-82595237D02*
X183794819Y-82452380D01*
X183794819Y-82452380D02*
X183794819Y-82357142D01*
X183794819Y-82357142D02*
X183842438Y-82214285D01*
X183842438Y-82214285D02*
X183890057Y-82166666D01*
X184794819Y-81214285D02*
X184794819Y-81785713D01*
X184794819Y-81499999D02*
X183794819Y-81499999D01*
X183794819Y-81499999D02*
X183937676Y-81595237D01*
X183937676Y-81595237D02*
X184032914Y-81690475D01*
X184032914Y-81690475D02*
X184080533Y-81785713D01*
X173583333Y-88519580D02*
X173535714Y-88567200D01*
X173535714Y-88567200D02*
X173392857Y-88614819D01*
X173392857Y-88614819D02*
X173297619Y-88614819D01*
X173297619Y-88614819D02*
X173154762Y-88567200D01*
X173154762Y-88567200D02*
X173059524Y-88471961D01*
X173059524Y-88471961D02*
X173011905Y-88376723D01*
X173011905Y-88376723D02*
X172964286Y-88186247D01*
X172964286Y-88186247D02*
X172964286Y-88043390D01*
X172964286Y-88043390D02*
X173011905Y-87852914D01*
X173011905Y-87852914D02*
X173059524Y-87757676D01*
X173059524Y-87757676D02*
X173154762Y-87662438D01*
X173154762Y-87662438D02*
X173297619Y-87614819D01*
X173297619Y-87614819D02*
X173392857Y-87614819D01*
X173392857Y-87614819D02*
X173535714Y-87662438D01*
X173535714Y-87662438D02*
X173583333Y-87710057D01*
X173964286Y-87710057D02*
X174011905Y-87662438D01*
X174011905Y-87662438D02*
X174107143Y-87614819D01*
X174107143Y-87614819D02*
X174345238Y-87614819D01*
X174345238Y-87614819D02*
X174440476Y-87662438D01*
X174440476Y-87662438D02*
X174488095Y-87710057D01*
X174488095Y-87710057D02*
X174535714Y-87805295D01*
X174535714Y-87805295D02*
X174535714Y-87900533D01*
X174535714Y-87900533D02*
X174488095Y-88043390D01*
X174488095Y-88043390D02*
X173916667Y-88614819D01*
X173916667Y-88614819D02*
X174535714Y-88614819D01*
X198700595Y-69679819D02*
X198700595Y-70489342D01*
X198700595Y-70489342D02*
X198748214Y-70584580D01*
X198748214Y-70584580D02*
X198795833Y-70632200D01*
X198795833Y-70632200D02*
X198891071Y-70679819D01*
X198891071Y-70679819D02*
X199081547Y-70679819D01*
X199081547Y-70679819D02*
X199176785Y-70632200D01*
X199176785Y-70632200D02*
X199224404Y-70584580D01*
X199224404Y-70584580D02*
X199272023Y-70489342D01*
X199272023Y-70489342D02*
X199272023Y-69679819D01*
X199652976Y-69679819D02*
X200272023Y-69679819D01*
X200272023Y-69679819D02*
X199938690Y-70060771D01*
X199938690Y-70060771D02*
X200081547Y-70060771D01*
X200081547Y-70060771D02*
X200176785Y-70108390D01*
X200176785Y-70108390D02*
X200224404Y-70156009D01*
X200224404Y-70156009D02*
X200272023Y-70251247D01*
X200272023Y-70251247D02*
X200272023Y-70489342D01*
X200272023Y-70489342D02*
X200224404Y-70584580D01*
X200224404Y-70584580D02*
X200176785Y-70632200D01*
X200176785Y-70632200D02*
X200081547Y-70679819D01*
X200081547Y-70679819D02*
X199795833Y-70679819D01*
X199795833Y-70679819D02*
X199700595Y-70632200D01*
X199700595Y-70632200D02*
X199652976Y-70584580D01*
X207246666Y-97464819D02*
X207246666Y-98179104D01*
X207246666Y-98179104D02*
X207199047Y-98321961D01*
X207199047Y-98321961D02*
X207103809Y-98417200D01*
X207103809Y-98417200D02*
X206960952Y-98464819D01*
X206960952Y-98464819D02*
X206865714Y-98464819D01*
X207627619Y-97464819D02*
X208246666Y-97464819D01*
X208246666Y-97464819D02*
X207913333Y-97845771D01*
X207913333Y-97845771D02*
X208056190Y-97845771D01*
X208056190Y-97845771D02*
X208151428Y-97893390D01*
X208151428Y-97893390D02*
X208199047Y-97941009D01*
X208199047Y-97941009D02*
X208246666Y-98036247D01*
X208246666Y-98036247D02*
X208246666Y-98274342D01*
X208246666Y-98274342D02*
X208199047Y-98369580D01*
X208199047Y-98369580D02*
X208151428Y-98417200D01*
X208151428Y-98417200D02*
X208056190Y-98464819D01*
X208056190Y-98464819D02*
X207770476Y-98464819D01*
X207770476Y-98464819D02*
X207675238Y-98417200D01*
X207675238Y-98417200D02*
X207627619Y-98369580D01*
D11*
X182737094Y-83272856D02*
X182751380Y-83287142D01*
X182751380Y-83287142D02*
X182765665Y-83329999D01*
X182765665Y-83329999D02*
X182765665Y-83358571D01*
X182765665Y-83358571D02*
X182751380Y-83401428D01*
X182751380Y-83401428D02*
X182722808Y-83429999D01*
X182722808Y-83429999D02*
X182694237Y-83444285D01*
X182694237Y-83444285D02*
X182637094Y-83458571D01*
X182637094Y-83458571D02*
X182594237Y-83458571D01*
X182594237Y-83458571D02*
X182537094Y-83444285D01*
X182537094Y-83444285D02*
X182508522Y-83429999D01*
X182508522Y-83429999D02*
X182479951Y-83401428D01*
X182479951Y-83401428D02*
X182465665Y-83358571D01*
X182465665Y-83358571D02*
X182465665Y-83329999D01*
X182465665Y-83329999D02*
X182479951Y-83287142D01*
X182479951Y-83287142D02*
X182494237Y-83272856D01*
X182765665Y-82987142D02*
X182765665Y-83158571D01*
X182765665Y-83072856D02*
X182465665Y-83072856D01*
X182465665Y-83072856D02*
X182508522Y-83101428D01*
X182508522Y-83101428D02*
X182537094Y-83129999D01*
X182537094Y-83129999D02*
X182551380Y-83158571D01*
X182494237Y-82872857D02*
X182479951Y-82858571D01*
X182479951Y-82858571D02*
X182465665Y-82830000D01*
X182465665Y-82830000D02*
X182465665Y-82758571D01*
X182465665Y-82758571D02*
X182479951Y-82730000D01*
X182479951Y-82730000D02*
X182494237Y-82715714D01*
X182494237Y-82715714D02*
X182522808Y-82701428D01*
X182522808Y-82701428D02*
X182551380Y-82701428D01*
X182551380Y-82701428D02*
X182594237Y-82715714D01*
X182594237Y-82715714D02*
X182765665Y-82887142D01*
X182765665Y-82887142D02*
X182765665Y-82701428D01*
D10*
X209984819Y-113583333D02*
X210699104Y-113583333D01*
X210699104Y-113583333D02*
X210841961Y-113630952D01*
X210841961Y-113630952D02*
X210937200Y-113726190D01*
X210937200Y-113726190D02*
X210984819Y-113869047D01*
X210984819Y-113869047D02*
X210984819Y-113964285D01*
X210318152Y-112678571D02*
X210984819Y-112678571D01*
X209937200Y-112916666D02*
X210651485Y-113154761D01*
X210651485Y-113154761D02*
X210651485Y-112535714D01*
X200166667Y-78407200D02*
X200309524Y-78454819D01*
X200309524Y-78454819D02*
X200547619Y-78454819D01*
X200547619Y-78454819D02*
X200642857Y-78407200D01*
X200642857Y-78407200D02*
X200690476Y-78359580D01*
X200690476Y-78359580D02*
X200738095Y-78264342D01*
X200738095Y-78264342D02*
X200738095Y-78169104D01*
X200738095Y-78169104D02*
X200690476Y-78073866D01*
X200690476Y-78073866D02*
X200642857Y-78026247D01*
X200642857Y-78026247D02*
X200547619Y-77978628D01*
X200547619Y-77978628D02*
X200357143Y-77931009D01*
X200357143Y-77931009D02*
X200261905Y-77883390D01*
X200261905Y-77883390D02*
X200214286Y-77835771D01*
X200214286Y-77835771D02*
X200166667Y-77740533D01*
X200166667Y-77740533D02*
X200166667Y-77645295D01*
X200166667Y-77645295D02*
X200214286Y-77550057D01*
X200214286Y-77550057D02*
X200261905Y-77502438D01*
X200261905Y-77502438D02*
X200357143Y-77454819D01*
X200357143Y-77454819D02*
X200595238Y-77454819D01*
X200595238Y-77454819D02*
X200738095Y-77502438D01*
X201071429Y-77454819D02*
X201309524Y-78454819D01*
X201309524Y-78454819D02*
X201500000Y-77740533D01*
X201500000Y-77740533D02*
X201690476Y-78454819D01*
X201690476Y-78454819D02*
X201928572Y-77454819D01*
X202833333Y-78454819D02*
X202261905Y-78454819D01*
X202547619Y-78454819D02*
X202547619Y-77454819D01*
X202547619Y-77454819D02*
X202452381Y-77597676D01*
X202452381Y-77597676D02*
X202357143Y-77692914D01*
X202357143Y-77692914D02*
X202261905Y-77740533D01*
D12*
%TO.C,R4*%
X180620000Y-83403641D02*
X180620000Y-83096359D01*
X181380000Y-83403641D02*
X181380000Y-83096359D01*
%TO.C,C16*%
X176197836Y-105020000D02*
X175982164Y-105020000D01*
X176197836Y-105740000D02*
X175982164Y-105740000D01*
%TO.C,Y1*%
X176570000Y-100960000D02*
X176570000Y-104380000D01*
X176570000Y-104380000D02*
X180690000Y-104380000D01*
%TO.C,C8*%
X170787836Y-91650000D02*
X170572164Y-91650000D01*
X170787836Y-92370000D02*
X170572164Y-92370000D01*
%TO.C,R5*%
X178693641Y-104990000D02*
X178386359Y-104990000D01*
X178693641Y-105750000D02*
X178386359Y-105750000D01*
%TO.C,J2*%
X175010000Y-62220000D02*
X175010000Y-60320000D01*
X175010000Y-66120000D02*
X175010000Y-64120000D01*
X184410000Y-60320000D02*
X175010000Y-60320000D01*
X184410000Y-62220000D02*
X184410000Y-60320000D01*
X184410000Y-66120000D02*
X184410000Y-64120000D01*
%TO.C,J1*%
X148370000Y-62170000D02*
X149750000Y-62170000D01*
X148370000Y-63550000D02*
X148370000Y-62170000D01*
X148370000Y-64820000D02*
X148370000Y-113190000D01*
X148370000Y-64820000D02*
X151130000Y-64820000D01*
X148370000Y-113190000D02*
X151130000Y-113190000D01*
X151130000Y-64820000D02*
X151130000Y-113190000D01*
%TO.C,C9*%
X181140000Y-98392164D02*
X181140000Y-98607836D01*
X181860000Y-98392164D02*
X181860000Y-98607836D01*
%TO.C,C5*%
X185382164Y-86800000D02*
X185597836Y-86800000D01*
X185382164Y-87520000D02*
X185597836Y-87520000D01*
%TO.C,R7*%
X202620000Y-71356359D02*
X202620000Y-71663641D01*
X203380000Y-71356359D02*
X203380000Y-71663641D01*
%TO.C,R3*%
X179620000Y-83403641D02*
X179620000Y-83096359D01*
X180380000Y-83403641D02*
X180380000Y-83096359D01*
%TO.C,R6*%
X203870000Y-71346359D02*
X203870000Y-71653641D01*
X204630000Y-71346359D02*
X204630000Y-71653641D01*
%TO.C,C3*%
X178950000Y-81027836D02*
X178950000Y-80812164D01*
X179670000Y-81027836D02*
X179670000Y-80812164D01*
%TO.C,C17*%
X195640000Y-75107836D02*
X195640000Y-74892164D01*
X196360000Y-75107836D02*
X196360000Y-74892164D01*
%TO.C,U2*%
X162590000Y-62840000D02*
X162590000Y-64100000D01*
X162590000Y-69660000D02*
X162590000Y-68400000D01*
X166350000Y-62840000D02*
X162590000Y-62840000D01*
X166350000Y-69660000D02*
X162590000Y-69660000D01*
X167870000Y-69890000D02*
X167390000Y-69890000D01*
X167630000Y-69560000D01*
X167870000Y-69890000D01*
G36*
X167870000Y-69890000D02*
G01*
X167390000Y-69890000D01*
X167630000Y-69560000D01*
X167870000Y-69890000D01*
G37*
%TO.C,R2*%
X177440000Y-70276359D02*
X177440000Y-70583641D01*
X178200000Y-70276359D02*
X178200000Y-70583641D01*
%TO.C,C7*%
X186122164Y-91250000D02*
X186337836Y-91250000D01*
X186122164Y-91970000D02*
X186337836Y-91970000D01*
%TO.C,C15*%
X179470000Y-99627836D02*
X179470000Y-99412164D01*
X180190000Y-99627836D02*
X180190000Y-99412164D01*
%TO.C,R1*%
X181260000Y-70476359D02*
X181260000Y-70783641D01*
X182020000Y-70476359D02*
X182020000Y-70783641D01*
%TO.C,C4*%
X177950000Y-81017836D02*
X177950000Y-80802164D01*
X178670000Y-81017836D02*
X178670000Y-80802164D01*
%TO.C,U1*%
X175870000Y-86770000D02*
X176520000Y-86770000D01*
X175870000Y-87420000D02*
X175870000Y-86770000D01*
X175870000Y-93990000D02*
X175870000Y-93340000D01*
X176520000Y-93990000D02*
X175870000Y-93990000D01*
X182440000Y-86770000D02*
X183090000Y-86770000D01*
X183090000Y-86770000D02*
X183090000Y-87420000D01*
X183090000Y-93340000D02*
X183090000Y-93990000D01*
X183090000Y-93990000D02*
X182440000Y-93990000D01*
X175340000Y-87780000D02*
X175010000Y-88020000D01*
X175010000Y-87540000D01*
X175340000Y-87780000D01*
G36*
X175340000Y-87780000D02*
G01*
X175010000Y-88020000D01*
X175010000Y-87540000D01*
X175340000Y-87780000D01*
G37*
%TO.C,C6*%
X185140000Y-84357836D02*
X185140000Y-84142164D01*
X185860000Y-84357836D02*
X185860000Y-84142164D01*
%TO.C,C11*%
X182390000Y-98392164D02*
X182390000Y-98607836D01*
X183110000Y-98392164D02*
X183110000Y-98607836D01*
%TO.C,C10*%
X176960000Y-81007836D02*
X176960000Y-80792164D01*
X177680000Y-81007836D02*
X177680000Y-80792164D01*
%TO.C,C1*%
X185140000Y-82107836D02*
X185140000Y-81892164D01*
X185860000Y-82107836D02*
X185860000Y-81892164D01*
%TO.C,C2*%
X173857836Y-86640000D02*
X173642164Y-86640000D01*
X173857836Y-87360000D02*
X173642164Y-87360000D01*
%TO.C,U3*%
X196702500Y-63865000D02*
X202222500Y-63865000D01*
X196702500Y-64135000D02*
X196702500Y-63865000D01*
X196702500Y-69385000D02*
X196702500Y-69115000D01*
X202222500Y-63865000D02*
X202222500Y-64135000D01*
X202222500Y-69115000D02*
X202222500Y-69385000D01*
X202222500Y-69385000D02*
X196702500Y-69385000D01*
X203392500Y-69595000D02*
X202712500Y-69595000D01*
X203052500Y-69125000D01*
X203392500Y-69595000D01*
G36*
X203392500Y-69595000D02*
G01*
X202712500Y-69595000D01*
X203052500Y-69125000D01*
X203392500Y-69595000D01*
G37*
%TO.C,J3*%
X206200000Y-99010000D02*
X207580000Y-99010000D01*
X206200000Y-100390000D02*
X206200000Y-99010000D01*
X206200000Y-101660000D02*
X206200000Y-106850000D01*
X206200000Y-101660000D02*
X208960000Y-101660000D01*
X206200000Y-106850000D02*
X208960000Y-106850000D01*
X208960000Y-101660000D02*
X208960000Y-106850000D01*
%TO.C,C12*%
X181640000Y-83127836D02*
X181640000Y-82912164D01*
X182360000Y-83127836D02*
X182360000Y-82912164D01*
%TO.C,J4*%
X158510000Y-111870000D02*
X158510000Y-114630000D01*
X206880000Y-111870000D02*
X158510000Y-111870000D01*
X206880000Y-111870000D02*
X206880000Y-114630000D01*
X206880000Y-114630000D02*
X158510000Y-114630000D01*
X208150000Y-111870000D02*
X209530000Y-111870000D01*
X209530000Y-111870000D02*
X209530000Y-113250000D01*
%TO.C,SW1*%
X199430000Y-78680000D02*
X203570000Y-78680000D01*
X199430000Y-78980000D02*
X199430000Y-78680000D01*
X199430000Y-81820000D02*
X199430000Y-81520000D01*
X203570000Y-78680000D02*
X203570000Y-78980000D01*
X203570000Y-81520000D02*
X203570000Y-81820000D01*
X203570000Y-81820000D02*
X199430000Y-81820000D01*
%TD*%
M02*
